<svg xmlns="http://www.w3.org/2000/svg" width="20" height="16" viewBox="0 0 20 16">
    <path fill="#FFF" d="M18.066 4.057c.231 4.238-2.012 8.245-5.814 10.389C8.449 16.589 3.723 16.51 0 14.24c2.11.134 4.198-.488 5.861-1.746-1.618-.185-2.98-1.25-3.505-2.735.626.097 1.266.057 1.874-.116C2.293 9.293.864 7.7.785 5.803c.538.207 1.114.306 1.692.29C.811 4.854.347 2.62 1.39.857c2.097 2.494 5.192 4.017 8.52 4.19-.57-1.783.252-3.706 1.96-4.585 1.71-.88 3.825-.47 5.048.977.926-.16 1.81-.496 2.599-.99-.301.945-.973 1.739-1.873 2.212.818-.08 1.615-.296 2.356-.64-.355.89-1.046 1.617-1.934 2.037z"/>
</svg>
