<svg xmlns="http://www.w3.org/2000/svg" width="93" height="102" viewBox="0 0 93 102">
    <g fill="none" fill-rule="evenodd">
        <path fill="#55D3DA" d="M41.152 20.006C30.229 27.813 24.37 43.691 23.513 60.411c-.889 17.346 3.597 35.511 13.136 46.306 6.286 6.468 12.504 7.909 18.723 6.5 8.133-1.84 16.332-8.769 24.778-15.977 5.055-4.314 10.205-8.714 15.506-12.09 10.079-5.956 14.733-12.013 14.962-19.416.236-7.625-4.355-16.818-13.175-29.097-8.358-12.726-17.069-20.514-26.38-23.291-9.225-2.752-19.09-.644-29.911 6.66z" transform="translate(-18 -12)"/>
        <g>
            <path fill="#FFF" d="M23.718 0c1.576 0 2.866 1.23 2.959 2.784l.005.18v5.93h47.436c1.576 0 2.866 1.231 2.959 2.784l.005.18v5.93h8.894c1.577 0 2.866 1.231 2.96 2.784l.005.18v45.954c0 2.381-1.872 4.326-4.225 4.441l-.222.006H4.447c-2.382 0-4.326-1.872-4.442-4.225L0 66.706V2.965C0 1.388 1.23.099 2.784.005L2.964 0h20.754zm31.13 28.165h-8.895v11.859H34.094v8.894h11.859v11.858h8.894V48.918h11.859v-8.894H54.847v-11.86z" transform="translate(-18 -12) translate(19 26)"/>
            <path stroke="#000" stroke-linecap="round" stroke-linejoin="round" stroke-width="1.7" d="M77.082 17.788v-5.93c0-1.637-1.327-2.964-2.964-2.964H26.682v-5.93C26.682 1.328 25.355 0 23.718 0H2.965C1.327 0 0 1.327 0 2.965v63.74c0 2.457 1.991 4.448 4.447 4.448h80.047c2.456 0 4.447-1.991 4.447-4.447V20.753c0-1.637-1.327-2.965-2.965-2.965H14.824c-1.638 0-2.965 1.328-2.965 2.965v45.953c0 2.456-1.991 4.447-4.447 4.447" transform="translate(-18 -12) translate(19 26)"/>
            <path stroke="#000" stroke-linecap="round" stroke-width="1.7" d="M66.706 40.024L54.847 40.024 54.847 28.165 45.953 28.165 45.953 40.024 34.094 40.024 34.094 48.918 45.953 48.918 45.953 60.776 54.847 60.776 54.847 48.918 66.706 48.918z" transform="translate(-18 -12) translate(19 26)"/>
        </g>
    </g>
</svg>
