<svg xmlns="http://www.w3.org/2000/svg" width="90" height="100" viewBox="0 0 90 100">
    <g fill="none" fill-rule="evenodd">
        <path fill="#55D3DA" d="M10.506 26.552C1.777 35.932-1.03 46.051.322 56.21 1.857 67.757 8.83 79.394 18.75 90.055c8.432 9.06 16.652 11.277 24.82 9.252 9.982-2.476 19.961-11.492 30.245-22.543 9.593-10.309 15.33-22.728 16.096-35.066.72-11.611-2.946-23.166-11.974-32.866-3.964-4.26-8.446-6.814-13.224-8.012-5.223-1.309-10.808-.991-16.468.53-13.485 3.622-27.414 14.106-37.74 25.202z"/>
        <g>
            <path fill="#FFF" d="M10.286 7.714v7.715H20.57V7.714h36v7.715H66.86V7.714h10.284V72H0V7.714h10.286zm41.003 17.63c-2.813 0-5.26.696-6.918 2.753-1.028 1.275-1.606 4.501-1.814 6.232v3.31c0 .388-.645-.09-1.371.68-.203.214-.477.921-.822 2.12.214 2.65 2.312 1.88 2.59 2.933.564 2.124 1.707 4.073 3.332 5.614v1.928c0 1.286-2.182 1.995-7.325 3.152-3.061.676-4.126 4.514-4.052 7.648h33.04s.256-7.582-5.015-8.739c-5.272-1.157-6.363-.904-6.363-2.06v-1.93c1.927-1.773 2.607-2.812 3.07-5.349.058-.324 1.442-1.236 1.831-1.567.483-.409.578-1.54.575-1.955-1.079-.935-1.618-1.637-1.618-2.105v-3.68c-.255-2.119-.862-5.184-2.297-6.577-1.628-1.58-4.422-2.408-6.843-2.408z" transform="translate(5 13)"/>
            <path stroke="#000" stroke-linecap="round" stroke-linejoin="round" stroke-width="1.7" d="M10.286 7.714H0V72h77.143V7.714H66.857m-36 18H10.286M23.143 36H10.286m18 10.286h-18M20.57 7.714h36" transform="translate(5 13)"/>
            <path fill="#FFF" stroke="#000" stroke-linecap="round" stroke-linejoin="round" stroke-width="1.7" d="M10.286 0H20.57v15.429H10.286V0zM56.57 0h10.286v15.429H56.571V0z" transform="translate(5 13)"/>
            <g transform="translate(5 13) translate(34.818 25.09)">
                <path stroke="#000" stroke-linecap="round" stroke-linejoin="round" stroke-width="1.7" d="M11.262 23.985c0 1.237 1.709 2.597-5.091 3.833-4.533.824-6.56 3.915-6.08 9.273h32.727c.727-5.234-1.464-8.325-6.574-9.273-6.615-1.236-5.091-2.534-5.091-3.77"/>
                <path stroke="#000" stroke-linecap="round" stroke-linejoin="round" stroke-width="1.7" d="M12.87 1.236c-1.334-.033-2.624.473-3.578 1.404C8.338 3.571 7.8 4.848 7.8 6.182v6.182c-1.855 0-2.04 2.349-2.04 2.905 0 .556.433 3.276 2.35 3.276.626 2.608 2.216 4.883 4.45 6.368 1.161.768 2.505 1.215 3.895 1.298 1.25-.005 2.466-.417 3.461-1.175 2.217-1.557 3.797-3.862 4.451-6.49 1.855 0 2.597-2.535 2.597-3.091 0-.557 0-3.03-1.855-3.091V6.182c0-2.888-2.096-4.438-4.243-4.84-.38-.07-.077-.106-.45-.106M12.248 9.258H7.8m12.744 0h4.565"/>
                <circle cx="16.455" cy="5.455" r="5.455" stroke="#000" stroke-linecap="round" stroke-linejoin="round" stroke-width="1.7"/>
                <circle cx="16.455" cy="5.455" r="1" fill="#000"/>
            </g>
        </g>
    </g>
</svg>
