<svg xmlns="http://www.w3.org/2000/svg" width="80" height="105" viewBox="0 0 80 105">
    <g fill="none" fill-rule="evenodd">
        <path fill="#55D3DA" d="M28.125 26.868C14.41 48.432-5.019 53.253 14.225 71.5 33.47 89.746 25.422 95.726 35.56 103.212c10.136 7.487 21.762-.65 30.017-10.346 8.074-10.522 15.181-19.34 16.298-37.72 1.116-18.378-.956-38.092-13.708-48.372-12.751-10.28-26.326-1.47-40.04 20.094z" transform="translate(-5.536 -1.868)"/>
        <g>
            <path fill="#FFF" stroke="#000" stroke-linecap="round" stroke-linejoin="round" stroke-width="1.7" d="M36 0c19.882 0 36 16.118 36 36S55.882 72 36 72 0 55.882 0 36 16.118 0 36 0zM26 20l5.235 22.277c.567 2.01 2.244 3.469 4.248 3.693 2.004.225 3.941-.829 4.907-2.668.966-1.84.772-4.103-.494-5.735C39.904 37.408 26 20 26 20z" transform="translate(-5.536 -1.868) translate(12.536 18.868)"/>
            <path stroke="#000" stroke-linecap="round" stroke-linejoin="round" stroke-width="1.7" d="M64 36C64 20.536 51.464 8 36 8S8 20.536 8 36" transform="translate(-5.536 -1.868) translate(12.536 18.868)"/>
            <path stroke="#000" stroke-linecap="round" stroke-linejoin="round" stroke-width="1.7" d="M8 36L11 36" transform="translate(-5.536 -1.868) translate(12.536 18.868)"/>
            <path stroke="#000" stroke-linecap="round" stroke-linejoin="round" stroke-width="1.7" d="M61 36L64 36" transform="translate(-5.536 -1.868) translate(12.536 18.868) rotate(180 62.5 36)"/>
            <path stroke="#000" stroke-linecap="round" stroke-linejoin="round" stroke-width="1.7" d="M34.5 10.5L37.5 10.5" transform="translate(-5.536 -1.868) translate(12.536 18.868) rotate(90 36 10.5)"/>
        </g>
    </g>
</svg>
