<svg xmlns="http://www.w3.org/2000/svg" width="90" height="100" viewBox="0 0 90 100">
    <g fill="none" fill-rule="evenodd">
        <path fill="#55D3DA" d="M.322 56.21C1.857 67.756 8.83 79.393 18.75 90.054c8.432 9.06 16.652 11.277 24.82 9.252 9.982-2.476 19.961-11.492 30.245-22.543 9.593-10.309 15.33-22.728 16.096-35.066.72-11.611-2.946-23.166-11.974-32.866-3.964-4.26-8.446-6.814-13.224-8.012-5.223-1.309-10.808-.991-16.468.53-13.485 3.622-27.414 14.106-37.74 25.202C1.777 35.932-1.03 46.051.322 56.21z"/>
        <g transform="rotate(-5 113.211 -13.26)">
            <path fill="#FFF" stroke="#000" stroke-linecap="round" stroke-linejoin="round" stroke-width="1.7" d="M54.89 5.7c7.34 0 10.003.764 12.686 2.2 2.683 1.435 4.79 3.54 6.225 6.224C75.236 16.807 76 19.469 76 26.809v33.782c0 7.34-.764 10.002-2.2 12.685-1.435 2.683-3.54 4.79-6.224 6.225-2.683 1.435-5.345 2.199-12.685 2.199H21.109c-7.34 0-10.002-.764-12.685-2.2-2.683-1.435-4.79-3.54-6.225-6.224C.764 70.593 0 67.931 0 60.591V26.809c0-7.34.764-10.002 2.2-12.685 1.435-2.683 3.54-4.79 6.224-6.225C11.107 6.464 13.769 5.7 21.109 5.7h33.782zm-10.978 22l-5.933 8.897-5.902-8.897-12.813 19.251c-1.1 1.674-1.498 3.658-1.131 5.642.367 1.984 1.498 3.689 3.15 4.805 1.253.837 2.66 1.302 4.128 1.302.49 0 .948-.031 1.437-.155 1.957-.372 3.64-1.519 4.74-3.193l4.098-6.138-3.028-4.557-5.229 7.874c-.367.527-.887.899-1.529 1.023-.642.124-1.254 0-1.804-.372-.52-.372-.887-.899-1.01-1.55-.108-.579-.023-1.133.255-1.64l.113-.189 8.654-12.989 12.354 18.538c2.293 3.441 6.911 4.34 10.305 2.046 3.364-2.294 4.25-7.006 1.957-10.447L43.912 27.7zm-.031 9.145l8.654 12.989c.765 1.085.459 2.604-.642 3.348-1.101.744-2.6.465-3.333-.651l-7.553-11.346 2.874-4.34z"/>
            <circle cx="70.3" cy="13.3" r="13.3" fill="#FFF" stroke="#000" stroke-linecap="round" stroke-linejoin="round" stroke-width="1.7"/>
            <path fill="#000" fill-rule="nonzero" d="M67.77 19V7.219h-1.68L63 8.313l.47 1.65 2.368-.674V19h1.932zM77 19v-1.868h-4.87l2.653-2.66c1.327-1.363 1.999-2.642 1.999-3.837 0-1.127-.37-2.002-1.109-2.659C74.934 7.32 74.044 7 73.02 7c-1.63 0-3.057.825-3.796 2.39l1.63.96c.47-.977 1.192-1.465 2.183-1.465 1.058 0 1.813.673 1.813 1.818 0 .723-.504 1.599-1.494 2.592l-4.098 4.19V19H77z"/>
        </g>
    </g>
</svg>
