<svg xmlns="http://www.w3.org/2000/svg" width="106" height="102" viewBox="0 0 106 102">
    <g fill="none" fill-rule="evenodd">
        <path fill="#55D3DA" d="M41.152 20.006C30.229 27.813 24.37 43.691 23.513 60.411c-.889 17.346 3.597 35.511 13.136 46.306 6.286 6.468 12.504 7.909 18.723 6.5 8.133-1.84 16.332-8.769 24.778-15.977 5.055-4.314 10.205-8.714 15.506-12.09 10.079-5.956 14.733-12.013 14.962-19.416.236-7.625-4.355-16.818-13.175-29.097-8.358-12.726-17.069-20.514-26.38-23.291-9.225-2.752-19.09-.644-29.911 6.66z" transform="translate(-10 -12)"/>
        <g>
            <g>
                <path fill="#FFF" d="M19.967 38.128c-3.682.234-11-.376-14.375-3.5.745-.833 1.72-1.517 2.535-2.806.864-1.367 1.557-3.371 2.048-5.405.996-4.12-.291-6.462.743-11.067.86-3.826 3.026-7.99 6.88-10.276 8.49-5.038 16.135-1.727 19.524 1.293 3.39 3.021 5.443 6.92 5.443 11.613s-.105 11.975 5.08 16.133c0 2.148-5.116 3.487-15.345 4.015 4.4-4.512 6.37-10.04 5.907-16.585-.088-1.243-2.243-1.243-3.918-3.563-1.038-1.439-1.962-2.689-2.77-3.75H21.386c-2.026 4.047-4.355 6.485-6.985 7.313-.421 1.413-.798 10.215 5.565 16.585zM44.051 45.173c-.642 0-3.597-1.058-8.865-3.173l-8.119 7.197c-5.843-4.798-8.764-7.182-8.764-7.153-1.28.953-3.606 1.883-7.829 2.653C0 46.607 0 54.6 0 54.6h38.796c.626-2.421 1.147-4.1 1.563-5.036 1.42-3.19 4.138-4.391 3.692-4.391z" transform="translate(-10 -12) translate(11 19) translate(0 25)"/>
                <path stroke="#000" stroke-linecap="round" stroke-linejoin="round" stroke-width="1.7" d="M14.258 21.563v2.307c0 6.399 2.566 11.922 6.78 14.497m10.68 0c4.215-2.575 6.601-8.159 6.601-14.558v-2.613" transform="translate(-10 -12) translate(11 19) translate(0 25)"/>
                <path stroke="#000" stroke-linecap="round" stroke-linejoin="round" stroke-width="1.7" d="M19.605 37.337v.79c0 1.783.541 4.447-9.26 6.239C0 46.256 0 55 0 55h38.407m5.103-10.163c-2.064-.599-3.335-.962-3.816-1.09-.72-.19-1.364-.386-1.938-.586-4.85-1.681-4.784-3.607-4.784-5.033v-.643" transform="translate(-10 -12) translate(11 19) translate(0 25)"/>
                <path stroke="#000" stroke-linecap="round" stroke-linejoin="round" stroke-width="1.7" d="M17.924 5.113c-4.515 2.966-7.234 8.007-7.23 13.41v3.208s.28 9.268-5.347 12.832c3.564 3.565 14.258 3.565 14.258 3.565M35.542 5.113c4.517 2.965 7.237 8.006 7.233 13.41v3.208s-.28 9.268 5.347 12.832c-3.565 3.565-15.15 3.565-15.15 3.565" transform="translate(-10 -12) translate(11 19) translate(0 25)"/>
                <path stroke="#000" stroke-linecap="round" stroke-linejoin="round" stroke-width="1.7" d="M18.002 41.795l8.731 7.025m8.02-7.124l-8.02 7.124 7.131 4.457 4.984-9.777m-17.46-28.542c-1.58 2.868-4.172 5.29-7.13 6.605m17.823-6.605c1.451 2.616 3.616 4.888 6.238 6.238" transform="translate(-10 -12) translate(11 19) translate(0 25)"/>
                <path fill="#FFF" stroke="#000" stroke-linecap="round" stroke-linejoin="round" stroke-width="1.7" d="M19.605 14.258h14.258s1.577-9.29 1.783-10.693c.169-.9-.081-1.828-.679-2.522C34.37.35 33.49-.034 32.574 0H20.722c-1.7 0-3.134 1.158-2.9 3.565.235 2.406 1.783 10.693 1.783 10.693zm7.128-10.693v7.129m3.565-3.565h-7.13" transform="translate(-10 -12) translate(11 19) translate(0 25)"/>
            </g>
            <g>
                <path fill="#FFF" stroke="#000" stroke-linecap="round" stroke-linejoin="round" stroke-width="1.7" d="M28.8 51.733c0 2.667 1.333 5.6-13.333 8.267C.8 62.667 0 74.667 0 74.667V80h80v-5.333S80 63.067 63.467 60c-14.267-2.667-13.334-5.467-13.334-8.133M40 56.909V80" transform="translate(-10 -12) translate(11 19) translate(24)"/>
                <path fill="#FFF" d="M58.667 21.333l-9.334-4.666-2.266-14.004c4.917.654 8.093 2.142 9.526 4.464 1.433 2.322 2.125 7.057 2.074 14.206zM21.615 21.333l9.333-4.666 2.267-14.004c-4.918.654-8.094 2.142-9.527 4.464-1.433 2.322-2.124 7.057-2.073 14.206zM57.067 40c-1.248 5.195-4.004 9.572-8.267 13.13-4.263 3.558-9.015 4.246-14.255 2.062C28.201 52.515 24.02 47.45 22 40c11.92-7.386 23.608-7.386 35.067 0z" transform="translate(-10 -12) translate(11 19) translate(24)"/>
                <path stroke="#000" stroke-linecap="round" stroke-linejoin="round" stroke-width="1.7" d="M32.267 2.667c-2.875-.072-5.657 1.02-7.716 3.028-2.058 2.008-3.219 4.763-3.218 7.638v13.334c-4 0-4.4 5.066-4.4 6.266 0 1.2.934 7.067 5.067 7.067 1.353 5.625 4.782 10.53 9.6 13.733 2.505 1.656 5.402 2.622 8.4 2.8 2.698-.01 5.32-.899 7.467-2.533 4.78-3.359 8.19-8.33 9.6-14 4 0 5.6-5.467 5.6-6.667 0-1.2 0-6.533-4-6.666V13.333c0-7.333-6.267-10.666-11.6-10.666M26.667 64v10.667M32 69.333H21.333" transform="translate(-10 -12) translate(11 19) translate(24)"/>
                <path stroke="#000" stroke-linecap="round" stroke-linejoin="round" stroke-width="1.7" d="M21.867 40c5.406-3.483 11.702-5.335 18.133-5.333 6.119-.136 12.114 1.738 17.067 5.333M31.2 16.667l-9.867 5.6m27.467-5.6l9.867 4.666" transform="translate(-10 -12) translate(11 19) translate(24)"/>
                <path fill="#FFF" stroke="#000" stroke-linecap="round" stroke-linejoin="round" stroke-width="1.7" d="M40 0c5.891 0 10.667 4.776 10.667 10.667 0 5.89-4.776 10.666-10.667 10.666s-10.667-4.775-10.667-10.666S34.11 0 40 0zm0 8c-1.473 0-2.667 1.194-2.667 2.667 0 1.472 1.194 2.666 2.667 2.666 1.473 0 2.667-1.194 2.667-2.666C42.667 9.194 41.473 8 40 8z" transform="translate(-10 -12) translate(11 19) translate(24)"/>
            </g>
        </g>
    </g>
</svg>
