<svg xmlns="http://www.w3.org/2000/svg" width="92" height="108" viewBox="0 0 92 108">
    <g fill="none" fill-rule="evenodd">
        <path fill="#55D3DA" d="M95.021 99.088c7.594-11.786 8.931-30.995 5.35-49.236-3.983-18.694-13.986-35.22-27.295-41.03-8.733-2.925-15.671-.934-21.544 3.742-7.303 5.781-4.755 15.744-10.084 25.955l-1.8 3.472c-2.834 5.475-13.697 10.868-16.94 15.535-6.984 9.39-8.665 16.338-5.632 22.554 3.112 6.41 11.12 12.508 23.83 20.217C52.93 109.173 63.01 114 71.658 114.217c8.51.315 16.128-4.431 23.363-15.129z" transform="translate(-15 -7)"/>
        <g>
            <path fill="#FFF" d="M28.525 54.468c-5.26.334-15.714-.536-20.536-4.992 1.063-1.19 2.458-2.166 3.621-4.006 1.234-1.95 2.225-4.81 2.926-7.711 1.422-5.879-.417-9.221 1.061-15.792 1.228-5.46 4.324-11.4 9.828-14.663C37.555.116 48.475 4.84 53.318 9.15c4.842 4.31 7.775 9.873 7.775 16.57 0 6.696-.15 17.087 7.256 23.02 0 3.065-7.307 4.975-21.92 5.728 6.286-6.437 9.1-14.325 8.438-23.664-.125-1.773-3.205-1.773-5.597-5.085-1.483-2.053-2.802-3.836-3.958-5.35H30.553c-2.895 5.774-6.221 9.253-9.98 10.435-.6 2.016-1.138 14.575 7.952 23.664z" transform="translate(-15 -7) translate(23 20)"/>
            <path stroke="#000" stroke-linecap="round" stroke-linejoin="round" stroke-width="1.7" d="M20.369 30.804V34.1c0 9.141 3.665 17.032 9.687 20.71m15.256 0c6.022-3.678 9.43-11.655 9.43-20.797V30.28" transform="translate(-15 -7) translate(23 20)"/>
            <path fill="#FFF" d="M62.93 64.533c-.917 0-5.138-1.511-12.664-4.533L38.667 70.28c-8.347-6.853-12.52-10.259-12.52-10.217-1.828 1.361-5.152 2.69-11.184 3.79C0 66.583 0 78 0 78H55.423c.894-3.46 1.638-5.857 2.233-7.195 2.027-4.557 5.911-6.272 5.274-6.272z" transform="translate(-15 -7) translate(23 20)"/>
            <path stroke="#000" stroke-linecap="round" stroke-linejoin="round" stroke-width="1.7" d="M28.007 53.338v1.13c0 2.547.773 6.352-13.228 8.912C0 66.08 0 78.384 0 78.384H54.867m7.29-14.331c-2.948-.856-4.765-1.375-5.45-1.557-1.03-.273-1.95-.552-2.77-.837-6.928-2.402-6.834-5.154-6.834-7.19v-.92" transform="translate(-15 -7) translate(23 20)"/>
            <path stroke="#000" stroke-linecap="round" stroke-linejoin="round" stroke-width="1.7" d="M25.606 7.304c-6.45 4.237-10.334 11.439-10.33 19.157v4.583s.4 13.24-7.638 18.332c5.093 5.092 20.37 5.092 20.37 5.092M50.774 7.304c6.453 4.236 10.337 11.438 10.332 19.157v4.583s-.399 13.24 7.638 18.332c-5.092 5.092-21.642 5.092-21.642 5.092" transform="translate(-15 -7) translate(23 20)"/>
            <path stroke="#000" stroke-linecap="round" stroke-linejoin="round" stroke-width="1.7" d="M25.717 59.707L38.19 69.743 28.01 76.11 20.574 62.01m29.074-2.443L38.19 69.743l10.188 6.367 7.118-13.968M30.553 21.37c-2.726 4.948-7.305 8.611-12.73 10.184M45.83 21.37c2.739 4.937 7.313 8.596 12.73 10.184" transform="translate(-15 -7) translate(23 20)"/>
            <path fill="#FFF" stroke="#000" stroke-linecap="round" stroke-linejoin="round" stroke-width="1.7" d="M28.007 20.369h20.37s2.251-13.273 2.545-15.277c.242-1.285-.115-2.61-.969-3.601C49.1.5 47.841-.05 46.534 0H29.602c-2.429 0-4.476 1.655-4.14 5.092.334 3.437 2.545 15.277 2.545 15.277zM38.19 5.092v10.185m5.093-5.093H33.098" transform="translate(-15 -7) translate(23 20)"/>
            <g stroke="#000" stroke-linecap="round" stroke-linejoin="round" stroke-width="1.7" transform="translate(-15 -7) translate(23 20) translate(55.867 62.224)">
                <circle cx="13.34" cy="13.34" r="13.34" fill="#FFF"/>
                <path d="M13.771 6.025L13.771 13.484 18.074 17.213"/>
            </g>
        </g>
    </g>
</svg>
