<svg xmlns="http://www.w3.org/2000/svg" width="89" height="111" viewBox="0 0 89 111">
    <g fill="none" fill-rule="evenodd">
        <path fill="#55D3DA" d="M12.544 11.248C2.242 20.927-1.229 38.603.714 56.566 2.77 75.2 10.13 94.05 20.839 104.407c6.81 6.136 12.776 6.912 18.362 4.645 7.048-2.847 13.707-10.708 20.676-19.06l2.449-2.894c3.956-4.62 8.039-9.213 12.338-12.97 9.42-7.597 13.664-14.637 13.532-22.572-.132-8.172-5.244-17.426-15.033-29.458C63.523 9.534 53.66 2.285 43.48.462 33.324-1.344 23.04 2.118 12.544 11.248z"/>
        <g>
            <path fill="#FFF" stroke="#000" stroke-linecap="round" stroke-linejoin="round" stroke-width="1.7" d="M28.8 51.733c0 2.667 1.333 5.6-13.333 8.267C.8 62.667 0 74.667 0 74.667V80h80v-5.333S80 63.067 63.467 60c-14.267-2.667-13.334-5.467-13.334-8.133M40 56.909V80" transform="translate(1 12)"/>
            <path fill="#FFF" d="M58.667 21.333l-9.334-4.666-2.266-14.004c4.917.654 8.093 2.142 9.526 4.464 1.433 2.322 2.125 7.057 2.074 14.206zM21.615 21.333l9.333-4.666 2.267-14.004c-4.918.654-8.094 2.142-9.527 4.464-1.433 2.322-2.124 7.057-2.073 14.206zM57.067 40c-1.248 5.195-4.004 9.572-8.267 13.13-4.263 3.558-9.015 4.246-14.255 2.062C28.201 52.515 24.02 47.45 22 40c11.92-7.386 23.608-7.386 35.067 0z" transform="translate(1 12)"/>
            <path stroke="#000" stroke-linecap="round" stroke-linejoin="round" stroke-width="1.7" d="M32.267 2.667c-2.875-.072-5.657 1.02-7.716 3.028-2.058 2.008-3.219 4.763-3.218 7.638v13.334c-4 0-4.4 5.066-4.4 6.266 0 1.2.934 7.067 5.067 7.067 1.353 5.625 4.782 10.53 9.6 13.733 2.505 1.656 5.402 2.622 8.4 2.8 2.698-.01 5.32-.899 7.467-2.533 4.78-3.359 8.19-8.33 9.6-14 4 0 5.6-5.467 5.6-6.667 0-1.2 0-6.533-4-6.666V13.333c0-7.333-6.267-10.666-11.6-10.666M26.667 64v10.667M32 69.333H21.333" transform="translate(1 12)"/>
            <path stroke="#000" stroke-linecap="round" stroke-linejoin="round" stroke-width="1.7" d="M21.867 40c5.406-3.483 11.702-5.335 18.133-5.333 6.119-.136 12.114 1.738 17.067 5.333M31.2 16.667l-9.867 5.6m27.467-5.6l9.867 4.666" transform="translate(1 12)"/>
            <path fill="#FFF" stroke="#000" stroke-linecap="round" stroke-linejoin="round" stroke-width="1.7" d="M40 0c5.891 0 10.667 4.776 10.667 10.667 0 5.89-4.776 10.666-10.667 10.666s-10.667-4.775-10.667-10.666S34.11 0 40 0zm0 8c-1.473 0-2.667 1.194-2.667 2.667 0 1.472 1.194 2.666 2.667 2.666 1.473 0 2.667-1.194 2.667-2.666C42.667 9.194 41.473 8 40 8z" transform="translate(1 12)"/>
        </g>
    </g>
</svg>
