<svg xmlns="http://www.w3.org/2000/svg" width="88" height="100" viewBox="0 0 88 100">
    <g fill="none" fill-rule="evenodd">
        <path fill="#55D3DA" d="M0 58.997c0 15.524 9.94 31.74 38.864 39.07 28.925 7.332 40.277-7.65 41.09-20.623.914-14.603 3.696-17.748 6.398-33.309 2.603-15.153.298-29.365-8.543-38.815-11.777-12.587-27.17.594-33.955 4.535-15.683 9.11-15.89 12.114-26.145 21.492C9.67 37.751 0 43.472 0 58.997z"/>
        <g stroke="#000" stroke-linecap="round" stroke-linejoin="round">
            <path fill="#FFF" stroke-width="1.7" d="M36 0c19.882 0 36 16.118 36 36S55.882 72 36 72 0 55.882 0 36 16.118 0 36 0zm0 7.2C20.094 7.2 7.2 20.094 7.2 36S20.094 64.8 36 64.8 64.8 51.906 64.8 36 51.906 7.2 36 7.2z" transform="translate(11 15)"/>
            <path stroke-width="2" d="M36 16.8L36 37.2 48 44.4" transform="translate(11 15)"/>
        </g>
    </g>
</svg>
