<svg xmlns="http://www.w3.org/2000/svg" width="50" height="56" viewBox="0 0 50 56">
    <g fill="none">
        <path fill="#757C8D" d="M4.598 43.56v-.736H.91v-2.271h3.412v-.736H.91V37.73h3.66v-.736H.037v6.566h4.561zm2.45.101c.35 0 .654-.069.911-.207.258-.138.47-.354.635-.648h.018v.754h.736v-4.754h-.782v2.685c0 .214-.029.412-.087.593-.059.18-.146.339-.262.474-.117.135-.262.239-.437.312-.175.074-.382.11-.62.11-.301 0-.537-.085-.709-.257-.172-.171-.257-.404-.257-.699v-3.218h-.782v3.126c0 .258.026.492.078.704.052.211.143.394.271.547.129.153.298.271.506.354.209.083.47.124.782.124zm4.116-.101v-2.115c0-.307.03-.578.092-.814.061-.236.16-.437.294-.602.135-.166.313-.291.534-.377.22-.086.487-.129.8-.129v-.828c-.423-.012-.773.074-1.049.258-.276.184-.509.469-.699.855h-.018v-1.002h-.736v4.754h.782zm4.078.101c.38 0 .713-.063.998-.188.285-.126.526-.3.722-.525.196-.223.343-.485.441-.786.099-.3.148-.625.148-.975 0-.349-.05-.675-.148-.979-.098-.303-.245-.567-.441-.79-.196-.225-.437-.4-.722-.53-.285-.128-.618-.193-.998-.193-.374 0-.705.065-.993.193-.288.13-.53.305-.726.53-.196.223-.344.487-.442.79-.098.304-.147.63-.147.98 0 .349.05.674.147.974.098.3.246.563.442.786.196.224.438.399.726.525.288.125.62.188.993.188zm0-.68c-.202 0-.394-.04-.574-.12-.181-.08-.34-.195-.474-.345-.135-.15-.24-.337-.317-.56-.077-.224-.115-.48-.115-.769 0-.288.038-.544.115-.767.076-.224.182-.413.317-.566.135-.153.293-.27.474-.35.18-.08.372-.119.574-.119.203 0 .394.04.575.12.181.08.339.196.474.349.135.153.24.342.317.566.077.223.115.48.115.767 0 .289-.038.545-.115.768-.077.224-.182.411-.317.561-.135.15-.293.265-.474.345-.18.08-.372.12-.575.12zm3.922 2.39v-2.446h.019c.086.141.191.26.317.355.126.095.26.17.4.225.141.055.284.095.428.12.144.024.274.036.39.036.362 0 .68-.064.952-.193.273-.129.5-.305.68-.529.182-.223.317-.486.406-.786.088-.3.133-.62.133-.956 0-.338-.046-.656-.138-.957-.092-.3-.228-.565-.41-.795-.18-.23-.407-.412-.68-.547-.273-.135-.593-.203-.96-.203-.332 0-.635.06-.911.18s-.478.31-.607.574h-.019v-.643h-.781v6.566h.781zm1.472-2.39c-.27 0-.5-.05-.69-.152-.19-.101-.345-.235-.464-.4-.12-.166-.207-.357-.262-.575-.056-.217-.083-.443-.083-.676 0-.22.026-.438.078-.653.052-.214.136-.406.253-.574.116-.169.267-.305.45-.41.184-.104.408-.156.672-.156.251 0 .47.05.657.147.187.098.34.23.46.396.12.165.209.354.267.565.058.212.087.428.087.648 0 .233-.024.46-.073.681-.05.22-.13.417-.24.589-.11.171-.255.31-.436.413-.181.105-.406.157-.676.157zm4.492-4.865v-.956H24.3v.956h.828zm1.729 0v-.956h-.828v.956h.828zm.487 5.545c.24 0 .426-.04.561-.12v-.606c-.092.03-.171.046-.239.046-.122 0-.194-.043-.216-.13-.021-.085-.032-.22-.032-.404v-2.446c0-.276-.052-.5-.156-.671-.105-.172-.243-.305-.414-.4-.172-.095-.364-.158-.575-.189-.212-.03-.425-.046-.64-.046-.263 0-.514.028-.753.083-.24.055-.45.146-.635.271-.184.126-.33.29-.441.492-.11.203-.172.451-.184.745h.782c.018-.35.138-.587.358-.712.22-.126.497-.189.828-.189.122 0 .247.01.372.028.126.018.24.055.34.11.102.055.184.135.249.24.064.103.096.241.096.413 0 .147-.043.259-.128.336-.086.076-.203.134-.35.174-.147.04-.317.07-.51.092-.193.022-.397.054-.612.097-.202.037-.4.083-.593.138-.193.055-.365.136-.515.243-.15.108-.271.247-.363.419-.092.171-.138.392-.138.662 0 .239.041.443.124.611.083.17.196.307.34.414.144.108.312.184.502.23.19.046.392.07.607.07.33 0 .639-.058.924-.171.285-.113.535-.299.75-.556 0 .257.059.443.179.556.12.113.28.17.482.17zm-2.16-.68c-.117 0-.232-.013-.346-.037-.113-.025-.211-.065-.294-.12-.083-.055-.15-.127-.202-.216-.052-.089-.078-.197-.078-.326 0-.196.044-.351.133-.465.089-.113.204-.2.345-.262.14-.061.3-.105.478-.133.178-.028.354-.052.529-.074.175-.021.342-.049.501-.082.16-.034.288-.088.386-.161v.8c0 .11-.027.228-.083.354-.055.125-.14.242-.257.35-.117.107-.267.195-.45.266-.185.07-.405.106-.663.106zm4.16-5.03v-.957h-.781v.956h.781zm0 5.609v-4.754h-.781v4.754h.781zm2.81.101c.239 0 .48-.023.722-.069.242-.046.46-.127.653-.244.193-.116.35-.27.469-.46.12-.19.179-.428.179-.717 0-.226-.045-.416-.133-.57-.09-.153-.206-.28-.35-.381-.144-.102-.31-.183-.496-.244-.187-.061-.379-.113-.575-.156-.184-.043-.368-.085-.552-.125-.184-.04-.35-.088-.497-.147-.147-.058-.268-.131-.363-.22-.095-.09-.142-.201-.142-.336 0-.123.03-.222.092-.299.061-.077.14-.138.239-.184.098-.046.207-.078.326-.096.12-.019.238-.028.354-.028.129 0 .256.014.382.041.126.028.24.072.345.134.104.061.19.142.257.243.068.102.108.229.12.382h.781c-.018-.288-.08-.529-.183-.722-.105-.193-.244-.346-.419-.46-.175-.113-.375-.193-.602-.239-.227-.046-.475-.069-.745-.069-.209 0-.419.026-.63.078-.212.053-.402.132-.57.24-.169.107-.307.246-.414.418-.107.172-.161.377-.161.616 0 .307.077.546.23.717.153.172.345.305.575.4.23.095.48.169.75.221.269.052.519.11.749.175.23.064.421.149.574.253.154.104.23.257.23.46 0 .147-.036.268-.11.363-.074.095-.167.167-.28.216-.114.049-.238.083-.373.101-.135.018-.264.028-.386.028-.16 0-.314-.016-.465-.046-.15-.031-.285-.082-.404-.152-.12-.07-.216-.166-.29-.285-.073-.12-.113-.265-.12-.437h-.781c.012.294.073.544.184.75.11.205.257.37.441.496s.396.216.635.271c.239.056.49.083.754.083zm4.74 0c.607 0 1.087-.16 1.44-.478.352-.319.571-.772.657-1.361h-.8c-.05.368-.182.653-.4.855-.218.202-.52.304-.906.304-.245 0-.457-.05-.634-.147-.178-.099-.322-.229-.433-.391-.11-.163-.191-.348-.243-.557-.052-.208-.078-.423-.078-.643 0-.24.024-.47.073-.695.05-.223.13-.421.244-.593.113-.171.265-.31.455-.414.19-.104.426-.156.708-.156.331 0 .595.083.791.248.196.166.325.399.386.7h.81c-.031-.283-.105-.526-.221-.732-.117-.205-.265-.375-.446-.51s-.39-.235-.626-.3c-.236-.063-.489-.096-.758-.096-.374 0-.702.066-.984.198-.282.132-.517.313-.704.543-.187.23-.326.5-.418.809-.092.31-.138.642-.138.998 0 .355.047.682.142.979.095.297.236.553.423.768.187.214.42.38.7.496.278.117.599.175.96.175zm3.637-.101v-2.685c0-.215.03-.413.088-.593.058-.181.145-.34.262-.474.116-.135.262-.24.437-.313.174-.073.381-.11.62-.11.3 0 .537.086.708.258.172.171.258.404.258.698v3.219h.782v-3.127c0-.257-.026-.492-.079-.703-.052-.212-.142-.394-.27-.547-.13-.154-.298-.273-.507-.359-.208-.086-.469-.129-.781-.129-.141 0-.287.016-.437.046-.15.03-.294.078-.432.143-.138.064-.262.147-.373.248-.11.101-.196.225-.257.373h-.019v-2.51h-.781v6.565h.781zm6.24.101c.54 0 .987-.135 1.342-.404.356-.27.586-.672.69-1.205h-.772c-.068.313-.207.545-.419.699-.211.153-.482.23-.814.23-.257 0-.48-.043-.67-.13-.19-.085-.347-.2-.47-.344-.122-.144-.211-.31-.267-.497-.055-.187-.08-.384-.073-.593h3.559c.012-.288-.014-.591-.078-.91-.065-.319-.181-.613-.35-.883-.168-.27-.392-.492-.671-.667-.28-.174-.63-.262-1.053-.262-.325 0-.624.062-.897.184-.273.123-.509.295-.708.515-.2.22-.354.481-.464.782-.11.3-.166.631-.166.993.013.362.066.696.161 1.002.095.307.238.57.428.791.19.221.424.393.703.515.28.123.609.184.989.184zm1.278-2.933h-2.731c.012-.184.052-.357.12-.52.067-.162.159-.305.275-.428.117-.122.256-.219.419-.29.162-.07.345-.105.547-.105.196 0 .375.035.538.106.162.07.303.165.423.285.12.12.214.262.285.427.07.166.112.34.124.525zM2.694 54.355c.828 0 1.466-.21 1.913-.63.448-.42.672-1.05.672-1.89v-4.193h-.874v4.193c0 .589-.146 1.035-.437 1.338-.291.304-.716.456-1.274.456-.588 0-1.039-.152-1.351-.456-.313-.303-.47-.749-.47-1.338v-4.193H0v4.193c0 .877.238 1.516.713 1.918.475.401 1.135.602 1.981.602zm4.52-.147v-2.685c0-.215.03-.413.088-.593.058-.181.145-.34.262-.474.116-.135.262-.24.437-.313.174-.073.381-.11.62-.11.3 0 .537.086.708.258.172.171.258.404.258.698v3.219h.781v-3.127c0-.257-.026-.492-.078-.703-.052-.212-.142-.394-.271-.547-.129-.154-.297-.273-.506-.359-.208-.086-.469-.129-.781-.129-.705 0-1.22.288-1.545.865h-.019v-.754h-.735v4.754h.781zm5.044-5.61v-.956h-.781v.956h.781zm0 5.61v-4.754h-.781v4.754h.781zm3.15.101c.38 0 .713-.063.998-.188.285-.126.525-.3.722-.525.196-.223.343-.485.441-.786.098-.3.147-.625.147-.975 0-.349-.049-.675-.147-.979-.098-.303-.245-.567-.441-.79-.197-.225-.437-.4-.722-.53-.285-.128-.618-.193-.998-.193-.374 0-.705.065-.993.193-.288.13-.53.305-.727.53-.196.223-.343.487-.441.79-.098.304-.147.63-.147.98 0 .349.049.674.147.974.098.3.245.563.441.786.196.224.439.399.727.525.288.125.619.188.993.188zm0-.68c-.202 0-.394-.04-.575-.12-.18-.08-.339-.195-.473-.345-.135-.15-.241-.337-.318-.56-.076-.224-.115-.48-.115-.769 0-.288.039-.544.115-.767.077-.224.183-.413.318-.566.134-.153.292-.27.473-.35.181-.08.373-.119.575-.119.202 0 .394.04.575.12.18.08.338.196.473.349.135.153.24.342.318.566.076.223.114.48.114.767 0 .289-.038.545-.114.768-.077.224-.183.411-.318.561-.135.15-.292.265-.473.345-.181.08-.373.12-.575.12zm3.894.579v-2.685c0-.215.03-.413.088-.593.058-.181.145-.34.262-.474.116-.135.262-.24.437-.313.174-.073.381-.11.62-.11.3 0 .537.086.708.258.172.171.258.404.258.698v3.219h.782v-3.127c0-.257-.026-.492-.079-.703-.052-.212-.142-.394-.27-.547-.13-.154-.298-.273-.507-.359-.208-.086-.469-.129-.781-.129-.705 0-1.22.288-1.545.865h-.019v-.754h-.735v4.754h.781z" transform="translate(.3 .7)"/>
        <g>
            <path fill="#757C8D" d="M0 0H48.4V32.267H0z" transform="translate(.3 .7) translate(.287)"/>
            <path fill="#D6D8DE" d="M24.2 25.096l.4 1.237h1.303l-1.052.765.4 1.243-1.051-.765-1.052.765.4-1.243-1.051-.765H23.8l.4-1.237zm-5.378-1.44l.4 1.237h1.303l-1.051.765.4 1.243-1.052-.771-1.051.77.4-1.242-1.052-.765h1.303l.4-1.237zm10.756 0l.4 1.237h1.303l-1.052.765.4 1.243-1.051-.771-1.052.77.4-1.242-1.051-.765h1.302l.4-1.237zM14.884 19.72l.407 1.236h1.296l-1.051.765.4 1.243-1.052-.765-1.051.765.4-1.243-1.051-.765h1.302l.4-1.236zm18.632 0l.4 1.236h1.302l-1.051.765.4 1.243-1.051-.765-1.052.765.4-1.243-1.051-.765h1.296l.407-1.236zM13.444 14.34l.4 1.237h1.303l-1.051.764.4 1.243-1.052-.765-1.051.765.4-1.243-1.052-.764h1.303l.4-1.237zm21.512 0l.4 1.237h1.303l-1.052.764.4 1.243-1.051-.765-1.052.765.4-1.243-1.051-.764h1.302l.4-1.237zM14.884 8.963l.407 1.237h1.296l-1.051.765.4 1.243-1.052-.765-1.051.765.4-1.243-1.051-.765h1.302l.4-1.237zm18.632 0l.4 1.237h1.302l-1.051.765.4 1.243-1.051-.765-1.052.765.4-1.243-1.051-.765h1.296l.407-1.237zM18.822 5.025l.4 1.237h1.303l-1.051.77.4 1.238-1.052-.765-1.051.765.4-1.237-1.052-.77h1.303l.4-1.238zm10.756 0l.4 1.237h1.303l-1.052.77.4 1.238-1.051-.765-1.052.765.4-1.237-1.051-.77h1.302l.4-1.238zM24.2 3.585l.4 1.237h1.303l-1.052.765.4 1.243-1.051-.765-1.052.765.4-1.243-1.051-.765H23.8l.4-1.237z" transform="translate(.3 .7) translate(.287)"/>
        </g>
    </g>
</svg>
