<svg xmlns="http://www.w3.org/2000/svg" width="72" height="47" viewBox="0 0 72 47">
    <defs>
        <linearGradient id="prefix__a" x1="0%" x2="100%" y1="99.76%" y2=".24%">
            <stop offset="0%" stop-color="#D6D8DE"/>
            <stop offset="100%" stop-color="#848B99"/>
        </linearGradient>
    </defs>
    <g fill="none" fill-rule="evenodd">
        <path fill="#757C8D" d="M8.711 6.615c-.652.379-.544 1.518.172 1.814 1.126.467 1.987-.798 1.174-1.724-.24-.274-.949-.321-1.346-.09m10.798.09c-.558.476-.413 1.451.256 1.729.867.359 1.752-.452 1.427-1.306-.253-.667-1.137-.889-1.683-.423m12.966 4.553v4.377h1.835V6.881h-1.835v4.377M0 11.332v4.333l2.224-.058c1.675-.043 2.357-.116 2.766-.295 1.509-.661 2.348-1.921 2.462-3.697.119-1.851-.588-3.267-2.063-4.135-.636-.373-.74-.389-3.024-.434L0 6.999v4.333m23.615-3.566l-.6.144v1.372h-1.13v1.553h.988v4.8h1.836V10.852l.53-.044.529-.044V9.352l-.53-.044-.529-.043v-.839c0-.934.013-.927-1.094-.66m-21.78 3.581v2.49l1.136-.067c1.705-.098 2.377-.704 2.49-2.248.055-.749.012-1.003-.262-1.524-.449-.855-1.032-1.14-2.338-1.14H1.836v2.49m11.223-1.952c-.693.325-1.393 1.098-1.623 1.793-.095.289-.147.948-.116 1.488.045.798.13 1.077.48 1.574.234.333.676.748.984.922.74.42 1.97.435 2.753.036l.56-.285v.366c0 .491-.708 1.188-1.225 1.207-.879.031-1.416-.05-1.988-.3l-.6-.263v1.924l.67.195c.37.107 1.125.19 1.68.186 1.351-.011 2.208-.439 2.802-1.4l.425-.686.042-3.436.043-3.435h-.925c-.84 0-.925.026-.925.292 0 .289-.004.289-.45-.028-.616-.44-1.82-.51-2.587-.15m14.156-.094l-.53.149v.85c0 .816.013.845.318.75.175-.054.654-.133 1.064-.175.84-.087 1.301.176 1.301.738 0 .305-.013.307-.616.109-1.174-.387-2.498.308-2.707 1.42-.329 1.754 1.22 3.103 2.801 2.443.304-.128.55-.162.598-.083.045.073.464.132.93.132h.848l-.045-2.531c-.048-2.757-.09-2.91-.996-3.587-.44-.329-2.128-.45-2.966-.215m-18.748.05c-.002.04-.006 1.453-.01 3.142l-.004 3.07.856.043.857.042V9.282h-.847c-.466 0-.85.031-.852.07m10.799.11c-.038.099-.052 1.513-.031 3.141l.038 2.962.882.042.883.042V9.282h-.852c-.56 0-.875.061-.92.18m-5.614 1.91c-.275.286-.38.543-.38.927 0 .686.188 1.021.728 1.3 1.43.74 2.715-1.118 1.567-2.267-.518-.517-1.399-.499-1.915.04m14.385 1.803c-.454.454-.111 1.19.555 1.19.399 0 .776-.344.776-.706 0-.363-.377-.706-.776-.706-.183 0-.433.1-.555.222m11.32 5.088c-.182 1.614.408 3.97 1.422 5.675 1.788 3.007 5.031 5.071 9.47 6.027l.48.103-.097-.85c-.326-2.887-2.052-6.27-4.063-7.964-.995-.838-2.238-1.663-3.357-2.227-1.053-.531-3.292-1.415-3.583-1.415-.132 0-.224.22-.272.651m-17.69.94c-.038.097-.052 2.05-.031 4.341l.037 4.163h1.836l.037-4.341.037-4.342h-.924c-.613 0-.947.06-.992.178m7.278 4.2v4.376h1.835v-2.016c0-2.312.113-2.643.9-2.643.936 0 1.001.156 1.052 2.53l.045 2.13H34.61l-.044-2.533c-.048-2.766-.088-2.908-1.016-3.601-.59-.44-1.913-.412-2.405.051l-.365.342v-3.014h-1.835v4.377M0 23.471v4.307h1.827l.04-1.73.04-1.73 1.87-.039 1.87-.039v3.551l.954-.042.953-.042v-8.471l-.953-.042-.953-.042v3.41l-1.871-.04-1.87-.039-.04-1.659-.04-1.659H0v4.307m26.05-3.55c-.545.163-.566.192-.608.835-.042.658-.05.667-.529.667h-.486v1.553h.988v4.814l.882-.041.883-.043.039-2.365.038-2.365h.981v-1.553h-.988v-.847c0-.956-.07-.995-1.2-.656m36.71.318c-3.546.784-6.677 3.122-8.723 6.514-.996 1.65-1.897 3.788-3.197 7.59-1.223 3.577-2.279 5.976-3.317 7.538-.685 1.03-2.016 2.441-2.818 2.988-.28.19-.51.38-.51.422 0 .04.226.438.504.882l.504.806.66-.45c2.768-1.885 4.905-5.45 6.924-11.55l.584-1.765 2.012-.008c1.71-.007 2.239-.066 3.515-.392 3.12-.797 5.072-1.912 7.116-4.066 1.61-1.696 2.731-3.347 4.02-5.915l.708-1.41-.44-.268c-.242-.147-.958-.443-1.59-.658-.99-.337-1.416-.397-3.057-.434-1.341-.03-2.199.022-2.894.176m-52.146 1.25c-1.346.61-2 1.63-1.998 3.112.002 1.076.344 1.84 1.119 2.503.98.84 2.562 1.026 3.913.461.46-.192.47-.214.47-1.066 0-.773-.027-.857-.247-.764-1.284.544-2.052.622-2.72.277-.361-.187-.704-.594-.704-.837 0-.044.953-.08 2.118-.08h2.118v-.825c0-1.674-1.06-2.827-2.701-2.934-.61-.04-1.05.009-1.368.153m5.87-.044l-.53.149V23.387l.49-.205c1.09-.456 2.193-.153 2.193.602 0 .278-.024.282-.586.088-1.398-.481-2.801.47-2.802 1.901-.002 1.539 1.466 2.54 2.865 1.955.305-.127.55-.16.598-.083.046.073.464.133.93.133h.848l-.044-2.532c-.048-2.757-.091-2.91-.997-3.586-.44-.329-2.127-.451-2.966-.215m47.336.644c-2.715.472-5.221 1.972-7.002 4.19-.58.722-1.256 1.825-1.83 2.982l-.91 1.835.529.1c.771.144 3.127-.134 4.502-.533 2.976-.862 5.34-2.681 7.36-5.662.687-1.013 1.445-2.35 1.445-2.545 0-.335-2.822-.588-4.094-.367m-53.025 1.094c-.19.19-.347.413-.347.494 0 .191 2.352.199 2.47.008.048-.077-.072-.3-.267-.495-.49-.489-1.37-.493-1.856-.007m6.537 2.065c-.343.2-.326.925.026 1.113.407.218.784.178 1.046-.112.62-.685-.24-1.487-1.072-1.001M.174 35.579l.038 4.271h.847l.037-4.27.038-4.272H.137l.037 4.271m9.574-3.999c-.197.368-.046.7.365.804.593.149 1.008-.488.59-.907-.26-.259-.792-.201-.955.103m6.235-.103c-.418.419-.004 1.056.59.907.41-.103.562-.436.365-.804-.163-.304-.696-.362-.955-.103m11.97.047c-.137.165-.142.298-.02.565.181.398.602.456.931.127.263-.263.265-.282.076-.635-.175-.327-.736-.36-.987-.057m-14.716.587c-.197.052-.247.22-.247.831v.766h-.636c-.58 0-.635.03-.635.345 0 .305.07.35.6.388l.6.044.039 2.727.038 2.727.385-.044.385-.045.039-2.718.038-2.718h.642c.585 0 .638-.028.597-.317-.037-.265-.146-.326-.645-.362l-.6-.043v-.839c0-.855-.029-.891-.6-.742m11.93.048c-.27.11-.317.234-.317.839v.71h-.565c-.508 0-.564.036-.564.353 0 .318.056.353.561.353h.562l.038 2.718.039 2.718.385.045.385.044.039-2.727.038-2.727.6-.044c.53-.038.6-.083.6-.388 0-.315-.056-.345-.635-.345h-.636v-.847c0-.886-.016-.908-.53-.702M5.155 33.661c-.156.042-.49.232-.742.422l-.459.346v-.36c0-.307-.063-.36-.423-.36h-.424v6.212h.847v-2.052c0-1.454.059-2.192.201-2.532.347-.831 1.46-1.167 2.346-.709.727.377.842.81.842 3.168v2.125h.847v-2.23c0-2.031-.028-2.284-.317-2.855-.175-.345-.514-.74-.754-.877-.464-.266-1.498-.423-1.964-.298m14.684 0c-.804.178-1.06.363-1.06.77 0 .476-.032.465.614.195 1.332-.556 2.417-.028 2.588 1.261l.092.696-.482-.29c-.687-.413-1.183-.498-1.863-.317-1.077.286-1.733 1.172-1.619 2.186.172 1.518 1.811 2.314 3.248 1.577.637-.328.67-.331.67-.072 0 .214.084.263.389.228l.388-.045.044-1.906c.054-2.269-.111-3.197-.66-3.723-.572-.548-1.45-.757-2.35-.56m18.402.122c-1.148.365-2.093 1.734-2.093 3.032 0 1.403 1.059 2.784 2.376 3.1.83.2 1.466.12 2.46-.306.613-.263.67-.33.67-.77v-.483l-.67.393c-.548.322-.84.394-1.589.395-1.11 0-1.728-.365-2.128-1.257l-.259-.578 2.606-.039 2.605-.038v-.71c0-1.046-.65-2.128-1.566-2.607-.587-.306-1.676-.366-2.412-.132M9.884 36.815v3.125l.388-.045.388-.045V33.78l-.388-.045-.388-.045v3.126m6.134-2.926c-.038.099-.052 1.48-.03 3.07l.038 2.891.388.045.388.045v-6.232h-.357c-.197 0-.389.081-.427.18m12.002 0c-.038.1-.052 1.482-.031 3.072l.038 2.89.388.045.389.045v-6.232h-.358c-.196 0-.388.081-.426.18m1.913-.047c0 .073.515 1.392 1.144 2.93.63 1.538 1.178 2.88 1.218 2.98.045.11.248.168.504.142.419-.042.46-.117 1.662-3.053 1.254-3.062 1.289-3.24.599-3.106-.183.035-.533.73-1.244 2.474-.543 1.334-1.03 2.381-1.083 2.328-.052-.054-.519-1.162-1.038-2.463-.917-2.298-.955-2.365-1.353-2.365-.225 0-.409.06-.409.133m8.188.89c-.574.391-.956.91-1.014 1.378l-.044.353 2.154.038 2.153.04v-.376c0-.542-.494-1.26-1.047-1.523-.698-.33-1.64-.292-2.202.09m-18.352 2.047c-.593.3-.883.808-.78 1.369.248 1.354 2.297 1.578 2.827.308.504-1.204-.826-2.294-2.047-1.677m37.273 2.146c0 1.809.093 2.177.47 1.864.11-.091.252-.097.382-.014.852.539 2.134-.503 1.904-1.548-.184-.838-1.201-1.359-1.839-.941l-.352.23v-.709c0-.615-.037-.71-.282-.71-.268 0-.283.095-.283 1.828m3.34.486l.5 1.184-.288.651-.288.652h.314c.267 0 .423-.257 1.05-1.73.406-.952.738-1.778.738-1.836 0-.057-.12-.105-.266-.105-.19 0-.357.223-.585.785-.175.432-.365.734-.421.671-.057-.063-.215-.416-.353-.785-.199-.535-.315-.67-.576-.67h-.326l.5 1.183m-2.46-.54c-.598.42-.253 1.474.482 1.474.476 0 .804-.346.804-.847 0-.752-.653-1.07-1.286-.627m-4.266 5.668c-.337.916-.64 1.745-.675 1.842-.042.12.097.177.432.177.409 0 .509-.06.582-.353.078-.311.164-.353.725-.353.549 0 .654.048.77.353.103.269.236.353.562.353.234 0 .427-.051.427-.114s-.28-.873-.623-1.8c-.62-1.677-.626-1.687-1.106-1.729l-.482-.042-.612 1.666m3.105.167v1.852h.424c.407 0 .423-.024.423-.635 0-.58.03-.636.347-.636 1.106 0 1.744-1.173 1.082-1.99-.222-.275-.428-.338-1.27-.385l-1.006-.057v1.851m2.905-1.148c.214.368.453.773.53.898.104.172.011.437-.377 1.077-.284.468-.517.89-.517.937 0 .048.211.088.469.088.402 0 .514-.083.797-.586l.33-.587.346.587c.3.51.41.586.84.586h.493l-.39-.67c-.215-.37-.46-.785-.543-.924-.122-.2-.059-.423.306-1.084.252-.458.459-.872.459-.922 0-.049-.205-.07-.456-.045-.358.035-.518.158-.75.573l-.296.529-.317-.564c-.277-.492-.381-.564-.816-.564h-.498l.39.67m-2.058.53c0 .322.052.366.388.327.28-.032.389-.124.389-.327s-.11-.295-.389-.327c-.336-.039-.388.005-.388.327m-3.018.405c-.115.456-.064.56.242.49.177-.04.183-.114.035-.471l-.175-.424-.102.405" transform="translate(.724)"/>
        <path fill="url(#prefix__a)" d="M61.69 6.899c2.04-.024 1.996-.277 1.99 3.38l-.002 1.033c0 2.856-.02 2.91-.313 3.115-.26.182-.825.22-3.29.22-2.127 0-3.025.048-3.146.17-.12.12-.169 1.035-.169 3.219v.266c-.004 1.992-.053 2.837-.17 2.953-.122.122-1.131.17-3.653.17h-.277c-2.697-.003-3.24-.04-3.385-.214-.274-.331-.098-3.538.271-4.94 1.095-4.151 4.11-7.465 7.963-8.751.606-.203 1.464-.421 1.906-.486.442-.065 1.466-.126 2.276-.135zM49.454.105c.175-.073 1.83-.118 3.677-.102 2.809.026 3.38.065 3.492.242.073.117.135 1.459.136 2.983l.002 2.771-1.194.573c-1.596.766-2.77 1.582-3.893 2.704-1.085 1.085-2.475 3.131-2.965 4.364l-.344.866h-3.168c-1.882-.005-2.694-.054-2.81-.17-.247-.247-.24-6.939.008-7.14.097-.079 1.576-.188 3.322-.245 2.833-.093 3.159-.128 3.282-.36.077-.143.138-1.6.138-3.305 0-3.03.002-3.05.317-3.181z" transform="translate(.724)"/>
    </g>
</svg>
