<svg xmlns="http://www.w3.org/2000/svg" width="125" height="63" viewBox="0 0 125 63">
    <g fill="none">
        <path fill="#B5B9C3" d="M29.61 61.484L33.178 61.484 33.178 41.345 29.61 41.345z" transform="translate(.5 .6)"/>
        <path fill="#9AA0AC" d="M29.61 41.343L33.178 41.343 33.178 21.134 29.61 21.134z" transform="translate(.5 .6)"/>
        <path fill="#757C8D" d="M11.646 0c.627 0 1.23.193 2.002.193.192 0 .337 0 .458-.048-.073.168-.266.385-.483.554.121.169.459.574.459 1.22 0 1.037-.7 1.893-.7 2.942 0 .622.483 1.172.627 1.5.097.005.169.01.265.01 1.592 0 3.183-1.028 3.183-2.347 0-.704-.337-1.196-.723-1.74-.217.038-.434.06-.603.06-.723 0-1.11-.386-1.133-.765 0-.342.265-.59.7-.59.674 0 1.904.617 3.134.617-.12.09-.338.186-.579.277.723.649 1.206 1.52 1.398 2.448l1.881 3.014c.314.504.989 1.492 1.977 2.266-1.205 0-2.025.03-3.038-1.6l-.964-1.546c-.073.2-.169.395-.265.585l1.904 3.075c.338.509.99 1.49 2.002 2.266-1.206 0-2.026.03-3.062-1.6l-1.64-2.646c-.12.13-.265.258-.386.384l2.315 3.732c.337.511.988 1.488 2.001 2.264-1.23 0-2.025.03-3.062-1.6l-2.267-3.64c-.144.097-.313.186-.458.273L19.362 14c.314.508.965 1.487 1.977 2.266-1.205 0-2.025.027-3.038-1.603l-2.87-4.572c-.168.065-.337.125-.506.18l3.232 5.17c.313.502.988 1.495 1.977 2.265h-.294c-1.05-.007-1.816-.107-2.744-1.601l-3.448-5.508-.097.017c-.096.3-.169.577-.169.854 0 1.731 1.134 3.26 2.508 4.439-.096.038-.241.053-.386.053-.29 0-.458-.017-.603-.039.338.719 1.013 1.645 1.35 2.125.435-.08 1.086-.143 1.52-.143.434 0 .482.26.482.492 0 .405-.169.728-.41.907-.072-.207-.241-.482-1.06-.482l-.073.002c.24.268.988.875.988 1.367 0 .323-.361.808-.82.808.025-.104.025-.2.025-.273 0-.395-.362-.858-.651-1.181v.198c0 .935-.097 1.367-.675 1.367-.29 0-.507-.16-.58-.207.387-.357.41-.637.41-1.163v-.455c0-.121 0-.278.025-.393-.217-.03-.29-.03-.458-.03 0 0-.844-.067-1.061.372-.217-.207-.555-.506-.555-.837 0-.214.097-.46.53-.46.17 0 .7.103 1.134.103-.12-.26-.651-1.02-1.085-1.572-.072.212-.193.446-.41.634-.048-.354-.241-1.473-.796-2.129-.072.442-.169.897-.169 1.855 0 2.329.58 4.05 1.76 4.378-.168.27-.482.514-.82.514-.433 0-.674-.494-.915-.96-.121.345-.483 1.184-.82 1.184-.362 0-.7-.839-.82-1.184-.241.466-.482.96-.916.96-.338 0-.675-.244-.82-.514 1.181-.328 1.736-2.05 1.736-4.378 0-.958-.072-1.413-.145-1.855-.554.656-.771 1.775-.795 2.13-.242-.189-.338-.423-.41-.635-.458.552-.965 1.312-1.085 1.572.434 0 .964-.103 1.109-.103.434 0 .554.246.554.46 0 .33-.337.63-.578.837-.193-.439-1.037-.371-1.037-.371-.169 0-.241 0-.458.029 0 .115.024.272 0 .393v.455c0 .526.024.806.41 1.163-.073.048-.266.207-.555.207-.603 0-.675-.432-.675-1.367v-.198c-.29.323-.651.786-.651 1.181 0 .073 0 .17.024.273-.458 0-.82-.485-.82-.808 0-.492.748-1.1.989-1.367l-.073-.002c-.844 0-.988.275-1.085.482-.217-.179-.41-.502-.41-.907 0-.231.049-.492.507-.492.41 0 1.06.063 1.519.143.337-.48 1.013-1.406 1.326-2.125-.12.022-.313.039-.579.039-.144 0-.289-.015-.385-.053 1.374-1.18 2.507-2.708 2.507-4.44 0-.276-.072-.554-.169-.853l-.096-.017-3.448 5.508c-1.037 1.63-1.833 1.6-3.062 1.6 1.012-.769 1.688-1.762 2.001-2.264l3.231-5.17c-.169-.055-.362-.115-.53-.18l-2.846 4.572c-1.036 1.63-1.832 1.603-3.062 1.603 1.013-.779 1.688-1.758 2.001-2.266l2.773-4.442c-.168-.087-.313-.176-.458-.272l-2.29 3.638c-1.013 1.63-1.833 1.601-3.039 1.601 1.013-.776 1.664-1.753 1.978-2.264L5.473 8.53c-.144-.126-.265-.254-.385-.384L3.424 10.79C2.41 12.42 1.59 12.391.386 12.391c1.013-.776 1.664-1.757 1.977-2.266L4.292 7.05c-.096-.19-.193-.385-.265-.585L3.062 8.01C2.025 9.64 1.23 9.611 0 9.611c1.013-.774 1.688-1.762 2.001-2.266L3.882 4.33c.193-.929.675-1.8 1.374-2.448-.24-.091-.434-.188-.554-.277 1.23 0 2.46-.617 3.11-.617.434 0 .724.248.724.59-.024.379-.434.765-1.158.765-.144 0-.361-.022-.602-.06-.386.544-.7 1.036-.7 1.74 0 1.32 1.592 2.346 3.183 2.346.072 0 .169-.004.265-.01.314-1.067.965-1.769 1.52-2.454-.652-.234-1.375-.844-1.375-1.121.096-.048 1.326.34 1.447.374.024.007.048.01.096 0 .145-.044.265-.263.265-.287-.144-.022-.916-.12-1.422-.314-.41-.147-.627-.412-.627-.513.145-.022.627.236 1.35.236.265 0 .314-.012.579-.043-.193-.442-.53-.813-.916-.813-.17 0-.507.096-.796.241-.193-.31-.386-.726-.386-.943 0-.265.265-.578 1.013-.578.193 0 .386.024.579.048.12.024.265.072.385.12-.024-.024-.024-.072-.024-.096 0-.096.097-.217.434-.217zm21.532 1.06v20.144H29.61V1.061h3.568zm24.073 11.56c1.738 0 2.562.634 2.497 2.318h-1.07c0-.95-.39-1.46-1.427-1.46-.324 0-1.482.054-1.482 1.738v2.72c0 1.762.512 2.206 1.482 2.206.735 0 1.226-.199 1.438-.355v-2.408h-1.483v-.893h2.508V20.4c-.657.357-1.427.6-2.463.6-1.705 0-2.53-.879-2.53-3.11v-2.64c0-1.605.825-2.63 2.53-2.63zm15.364 2.584v3.903c0 .68.313 1.136.96 1.136.49 0 1.104-.366 1.104-1.303v-3.736h.914v4.46c0 .39.021.78.054 1.171h-.968v-.68h-.035c-.3.513-.836.792-1.426.792-.981 0-1.517-.491-1.517-1.45v-4.293h.914zm-28.08-.003v3.901c0 .69.305 1.141.956 1.141.49 0 1.101-.371 1.101-1.3V15.2h.916v4.458c0 .398.026.783.053 1.181h-.969v-.69h-.04c-.292.518-.836.797-1.42.797-.982 0-1.512-.491-1.512-1.447v-4.3h.915zm51.335-.107c1.604 0 2.006.881 2.006 2.742v.479H94.71c0 1.571.423 1.884 1.137 1.884.625 0 .948-.501.982-1.07h1.004c-.012 1.25-.78 1.818-1.963 1.818-1.193 0-2.14-.357-2.14-2.843 0-1.65.19-3.01 2.14-3.01zm-27.354 0c1.003 0 1.862.48 1.785 1.594h-1.015c.01-.59-.3-.904-.882-.904-.49 0-.867.268-.867.76 0 .99 2.808.968 2.808 2.685 0 1.238-.848 1.718-1.963 1.718-1.214 0-1.973-.537-1.939-1.83h1.035c0 .325.013 1.082.938 1.082.547 0 .97-.277.97-.858 0-1.003-2.809-1.026-2.809-2.709 0-.59.356-1.538 1.939-1.538zm18.1-2.307v8.048h-.912v-.67h-.023c-.312.525-.703.782-1.293.782-.903 0-1.818-.357-1.818-2.832 0-1.404.046-3.02 1.864-3.02.533 0 .923.233 1.236.679h.034v-2.987h.913zm-23.318 2.307c1.607 0 2.008.881 2.008 2.742v.479H62.14c0 1.571.423 1.884 1.137 1.884.624 0 .947-.501.98-1.07h1.005c-.013 1.25-.782 1.818-1.964 1.818-1.192 0-2.14-.357-2.14-2.843 0-1.65.19-3.01 2.14-3.01zm39.55-1.382v1.492h1.224v.693h-1.225v3.512c.004.344.053.747.837.747.066 0 .212-.023.41-.045v.702c-.3.022-.6.088-.901.088-.87 0-1.26-.357-1.26-1.001v-4.003h-.926v-.693h.926v-1.08l.914-.412zM9.137 15.8c-.12 0-.192.021-.265.05-.289.765-1.326 2.197-1.495 2.421-.458-.077-1.109-.156-1.615-.156-.12 0-.29-.01-.29.28 0 .168.073.465.17.561.216-.27.602-.35 1.108-.35.17 0 .41.066.483.087-.603.627-1.182 1.146-1.182 1.495 0 .193.193.449.362.535 0-.51.53-1.22 1.06-1.615l.006.105c.007.121.019.318.019.527 0 .967.072 1.157.458 1.157.072 0 .169-.024.217-.05-.193-.232-.265-.536-.265-1.11v-.455c0-.254-.024-.434-.048-.577.144-.019.458-.065.699-.065.506 0 .82.05 1.037.277.168-.122.361-.359.361-.523 0-.231-.168-.248-.337-.248-.241 0-.458.104-1.423.104.193-.548.748-1.32 1.326-2.028-.072-.244-.12-.422-.385-.422zm5.233 0c-.241 0-.314.178-.386.422.603.709 1.157 1.48 1.35 2.028-.964 0-1.181-.104-1.446-.104-.17 0-.314.017-.314.248 0 .164.169.4.338.523.24-.226.554-.277 1.06-.277.242 0 .555.046.7.065-.024.143-.048.323-.048.577v.455c0 .574-.073.878-.29 1.11.049.026.17.05.242.05.361 0 .458-.19.458-1.157 0-.292.024-.562.024-.632.53.395 1.06 1.104 1.06 1.615.17-.086.362-.342.362-.535 0-.35-.578-.868-1.205-1.495.096-.021.313-.087.506-.087.482 0 .892.08 1.11.35.096-.096.168-.393.168-.562 0-.29-.169-.28-.29-.28-.53 0-1.157.08-1.615.157-.169-.224-1.23-1.656-1.495-2.42-.096-.03-.144-.051-.29-.051zm85.714-.6v5.64h-.916V15.2h.916zm-57.816-2.448c.188 0 .3.011.435.034v.657c-.97-.067-1.137.346-1.137.804v.956h1.137v.693h-1.137v4.938h-.916v-4.938h-.868v-.693h.868v-1.09c0-1.138.804-1.36 1.618-1.36zm37.436 2.341c1.205 0 1.507.725 1.507 1.84v3.901h-.916v-3.901c0-.603-.212-1.094-.993-1.094-1.002 0-1.148.893-1.148 1.662v3.333h-.913v-4.459c0-.391-.022-.78-.055-1.172h.968v.726h.046c.357-.635.781-.836 1.504-.836zm9.498-2.307v3.143h.045c.368-.658.792-.836 1.528-.836.958 0 1.492.48 1.492 1.75v3.991h-.913v-3.812c0-.692-.223-1.183-1.003-1.183-.915 0-1.149.737-1.149 1.684v3.311h-.913v-8.048h.913zm-37.284 2.307v.948c-.167-.023-.324-.057-.49-.057-1.015 0-1.27.77-1.27 1.527v3.323h-.916v-5.63h.916v.847h.021c.379-.858.847-.958 1.739-.958zm32.724.746c-.98 0-1.113.78-1.113 2.287 0 .846 0 2.072 1.148 2.072 1.026 0 1.026-1.27 1.026-2.408v-.105c-.006-.748-.092-1.846-1.06-1.846zm11.138-.056c-.58 0-1.059.28-1.07 1.84h2.195c0-1.64-.456-1.84-1.125-1.84zm-32.572 0c-.578 0-1.058.28-1.07 1.84h2.197c0-1.64-.458-1.84-1.127-1.84zm-18.103-2.68v1.154h-1.049v-1.154h1.049zm1.964 0v1.154H46.02v-1.154h1.049zm53.068-.319v.982h-1.022v-.982h1.022zm2.277-9.634c1.606 0 2.008.881 2.008 2.742v.479h-3.167c0 1.571.422 1.884 1.136 1.884.625 0 .948-.501.982-1.07h1.004c-.012 1.25-.78 1.817-1.963 1.817-1.193 0-2.14-.357-2.14-2.842 0-1.65.19-3.01 2.14-3.01zm10.449.11v3.903c0 .68.313 1.136.958 1.136.492 0 1.104-.366 1.104-1.303V3.26h.914V7.72c0 .392.023.782.056 1.172h-.97v-.68h-.034c-.3.513-.836.791-1.427.791-.98 0-1.515-.49-1.515-1.449V3.261h.914zm-18.859-.11c1.002 0 1.861.48 1.783 1.594h-1.016c.014-.59-.3-.904-.88-.904-.489 0-.869.268-.869.76 0 .99 2.81.968 2.81 2.685 0 1.238-.847 1.717-1.962 1.717-1.215 0-1.972-.536-1.94-1.828h1.038c0 .323.01 1.081.936 1.081.545 0 .97-.277.97-.858 0-1.004-2.81-1.026-2.81-2.709 0-.59.357-1.538 1.94-1.538zm-46.533.11v3.903c0 .68.31 1.136.957 1.136.49 0 1.104-.366 1.104-1.303V3.26h.914V7.72c0 .392.023.782.055 1.172h-.97v-.68H49.5c-.3.513-.836.791-1.428.791-.98 0-1.516-.49-1.516-1.449V3.261h.916zm14-2.418v8.049h-.914v-.67h-.023c-.312.525-.702.781-1.292.781-.903 0-1.818-.357-1.818-2.832 0-1.404.045-3.02 1.863-3.02.535 0 .925.234 1.238.68h.032V.843h.914zm3.523 2.308C66.6 3.151 67 4.032 67 5.893v.479h-3.164c0 1.571.423 1.884 1.137 1.884.623 0 .947-.501.98-1.07h1.004c-.01 1.25-.78 1.817-1.962 1.817-1.193 0-2.14-.357-2.14-2.842 0-1.65.19-3.01 2.14-3.01zm5.217 0c1.004 0 1.862.48 1.783 1.594H70.98c.013-.59-.298-.904-.88-.904-.49 0-.869.268-.869.76 0 .99 2.81.968 2.81 2.685 0 1.238-.847 1.717-1.963 1.717-1.214 0-1.972-.536-1.939-1.828h1.036c0 .323.012 1.081.937 1.081.547 0 .969-.277.969-.858 0-1.004-2.808-1.026-2.808-2.709 0-.59.357-1.538 1.939-1.538zm28.07-1.383v1.493h1.227v.693h-1.226v3.512c.003.344.052.746.836.746.067 0 .212-.022.412-.045v.702c-.301.023-.602.09-.902.09-.87 0-1.26-.358-1.26-1.003V3.954h-.926V3.26h.925v-1.08l.915-.413zm-15.794 1.49v5.64h-.915v-5.64h.915zm8.148 0v5.64h-.915v-5.64h.915zm19.693 0v5.64h-.915v-5.64h.915zM86.605 3.15c1.203 0 1.503.725 1.503 1.84v3.9h-.913v-3.9c0-.603-.21-1.094-.992-1.094-1.004 0-1.148.893-1.148 1.661v3.334h-.915V4.433c0-.391-.022-.78-.055-1.172h.97v.726h.045c.355-.636.779-.836 1.505-.836zm-8.192 0c.59 0 1.54.133 1.54 1.46v4.28h-.915v-3.9c0-.57-.155-1.094-.892-1.094-.346 0-.446.012-.691.212-.267.223-.312.782-.312.993v3.79h-.914V4.99c0-.569-.156-1.093-.89-1.093-.28 0-.659.167-.794.38-.166.278-.21.614-.21.825v3.79h-.916V4.433c0-.391-.022-.78-.054-1.172h.97v.704h.022c.266-.603.746-.814 1.403-.814.514 0 1.104.211 1.315.725.313-.603.827-.725 1.338-.725zm44.06 0c.59 0 1.538.133 1.538 1.46v4.28h-.914v-3.9c0-.57-.156-1.094-.892-1.094-.346 0-.446.012-.69.212-.27.223-.313.782-.313.993v3.79h-.915V4.99c0-.569-.156-1.093-.89-1.093-.28 0-.658.167-.792.38-.168.278-.211.614-.211.825v3.79h-.915V4.433c0-.391-.022-.78-.055-1.172h.97v.704h.02c.269-.603.748-.814 1.406-.814.512 0 1.103.211 1.315.725.312-.603.824-.725 1.338-.725zm-14.028 0V4.1c-.166-.023-.321-.057-.488-.057-1.016 0-1.272.77-1.272 1.527v3.323h-.914v-5.63h.914v.847h.023c.378-.858.846-.958 1.737-.958zM42.838.843c1.115 0 1.494.38 1.794.826.28.435.324.914.324 1.07 0 1.003-.346 1.671-1.382 1.906V4.7c1.148.134 1.649.825 1.649 1.928 0 2.063-1.504 2.264-2.418 2.264H40.22V.843zM54.56 3.151c1.205 0 1.506.725 1.506 1.84v3.9h-.915v-3.9c0-.603-.212-1.094-.99-1.094-1.005 0-1.15.893-1.15 1.661v3.334h-.914V4.433c0-.391-.023-.78-.055-1.172h.969v.726h.045c.356-.636.78-.836 1.504-.836zm-48.387-.99c-.29.255-1.11 1.164-1.11 2.312 0 2.008 2.002 3.872 4.317 3.887-.024-.217-.049-.449-.049-.697 0-.154 0-.309.025-.451-2.026 0-3.834-1.459-3.834-3.137 0-.846.554-1.485.868-1.866l-.217-.049zm11.164 0l-.193.048c.313.38.844 1.02.844 1.866 0 1.664-1.76 3.108-3.762 3.135.024.17.024.323.024.453 0 .236-.024.47-.048.697 2.267-.041 4.268-1.893 4.268-3.887 0-1.148-.82-2.057-1.133-2.313zm42.162 1.736c-.98 0-1.115.78-1.115 2.286v.229c.009.822.1 1.844 1.15 1.844.935 0 1.016-1.06 1.023-2.11v-.403c-.005-.748-.09-1.846-1.058-1.846zM42.336 5.124h-1.092V8h1.45c1.093 0 1.482-.78 1.482-1.372 0-1.28-.791-1.504-1.84-1.504zm22.57-1.283c-.58 0-1.059.28-1.07 1.84h2.196c0-1.64-.458-1.84-1.126-1.84zm37.421 0c-.581 0-1.06.28-1.07 1.84h2.194c0-1.64-.456-1.84-1.124-1.84zM42.695 1.735h-1.45v2.498h1.492c.803-.012 1.193-.503 1.193-1.284 0-.667-.378-1.214-1.235-1.214zM10.272.41c-.507 0-.748.145-.748.313 0 .17.145.514.217.622.17-.08.507-.163.7-.163.65 0 1.157.735 1.253 1.345.121-.241.266-.526.266-.842C11.96.82 11.236.41 10.272.41zm100.124.432v.982h-1.035V.842h1.035zm-19.707 0v.982h-1.022V.842h1.022zm-8.148 0v.982h-1.035V.842h1.035zM11.936.82c.12.169.217.369.24.593.58.11.965-.617.41-.738.073.241-.289.41-.289.41s-.12-.313.048-.506c-.337-.17-.41.024-.41.24z" transform="translate(.5 .6)"/>
    </g>
</svg>
