<svg xmlns="http://www.w3.org/2000/svg" width="103" height="44" viewBox="0 0 103 44">
    <g fill="none" fill-rule="evenodd">
        <path fill="#757C8D" d="M73.8 13.351c2.046 0 4.044.391 5.893 1.158l.465.193-1.309 4.16-.6-.364c-1.151-.698-2.454-1.07-4.01-1.07-2.5 0-4.118 1.04-4.118 3.137 0 1.083.681 1.842 2.455 2.968l1.612 1.013c2.726 1.785 3.984 3.44 3.984 6.2 0 4.51-3.312 8.128-8.703 8.128-2.47 0-4.357-.433-6.797-1.391l-.492-.194 1.484-4.267.586.372c1.336.847 3.165 1.403 4.678 1.403 2.895 0 4.558-1.612 4.558-3.644 0-1.513-.762-2.342-2.949-3.648l-1.103-.66c-2.78-1.725-3.999-3.304-3.999-6.213 0-4.319 3.793-7.28 8.364-7.28zm-60.918.615c5.68 0 8.865 3.416 8.865 9.003 0 1.57-.185 2.91-.415 4.294H4.756c-.093.508-.139.97-.139 1.478 0 4.94 3.048 6.372 7.25 6.372 2.17 0 4.524-.555 6.648-1.432l-.692 3.971c-2.263.554-4.618.97-6.972.97C5.125 38.622 0 36.313 0 28.002c0-6.51 4.571-14.036 12.882-14.036zm50.131-.209l-5.31 24.71H53.16l5.31-24.71h4.542zm39.07 0l-.881 4.077h-7.34L89.43 38.467H84.89l4.43-20.635h-7.34l.88-4.076h19.222zM12.42 17.475c-3.555 0-6.279 3.093-7.202 6.556h12.05c.093-.692.139-1.246.139-1.8 0-2.77-1.709-4.756-4.987-4.756z" transform="translate(.9)"/>
        <path fill="#9AA0AB" d="M41.342 26.147L49.377 41.958 41.342 41.958 36.029 30.489 24.106 43.772 18.598 40.208 32.919 25.305 25.208 9.754 32.919 9.754 38.102 21.093 49.831 8.004 55.209 11.438 41.342 26.147" transform="translate(.9)"/>
        <path fill="#C4C6CE" d="M44.863 4.395c0 2.426-1.966 4.393-4.394 4.393-2.427 0-4.395-1.967-4.395-4.393C36.074 1.968 38.042 0 40.47 0c2.428 0 4.394 1.968 4.394 4.395" transform="translate(.9)"/>
    </g>
</svg>
