<svg xmlns="http://www.w3.org/2000/svg" width="100" height="40" viewBox="0 0 100 40">
    <path fill="#757C8D" d="M55.24 33.671v3.152c0 .248.033.46.1.636.068.176.158.319.27.428.113.109.243.187.39.236.145.049.297.073.455.073.21 0 .405-.033.585-.1.18-.069.338-.176.473-.322.135-.146.24-.332.315-.557.075-.225.113-.491.113-.8v-2.746h1.013v5.336h-1.013v-.822h-.023c-.127.285-.349.516-.664.692-.315.177-.679.265-1.092.265-.262 0-.51-.04-.743-.118-.232-.079-.437-.2-.613-.366-.176-.165-.317-.377-.422-.636-.105-.26-.158-.565-.158-.917V33.67h1.013zm6.258-3.174v3.94h.022c.18-.278.44-.498.777-.659.338-.161.698-.242 1.08-.242.413 0 .787.071 1.12.214.335.142.62.34.856.591.237.251.419.548.546.89.128.34.192.71.192 1.108 0 .398-.064.765-.192 1.103-.127.338-.31.634-.546.89-.236.254-.521.453-.855.596-.334.142-.708.214-1.12.214-.36 0-.711-.08-1.053-.237-.341-.157-.61-.379-.805-.664h-.022v.766h-1.013v-8.51h1.013zm-12.517 0v3.996h.022c.128-.285.349-.516.664-.692.315-.177.68-.265 1.092-.265.255 0 .501.04.738.118.236.08.442.201.619.366.176.165.317.377.422.636.105.259.157.565.157.918v3.433h-1.013v-3.152c0-.248-.034-.46-.101-.636-.068-.176-.158-.319-.27-.428-.113-.108-.242-.187-.389-.236-.146-.049-.298-.073-.455-.073-.21 0-.406.033-.586.1-.18.068-.338.175-.473.322-.135.146-.24.332-.315.557-.075.225-.112.492-.112.8v2.746h-1.013v-8.51h1.013zM19.953.3c10.689 0 19.354 8.665 19.354 19.353v19.354H19.953C9.265 39.007.6 30.342.6 19.653.6 8.965 9.265.3 19.953.3zm43.301 34.182c-.27 0-.514.046-.732.14-.217.094-.401.222-.551.383-.15.161-.267.356-.35.585-.082.23-.123.479-.123.749s.041.52.124.749c.082.228.199.424.349.585.15.161.334.289.551.383.218.093.462.14.732.14.27 0 .514-.047.731-.14.218-.094.402-.222.552-.383.15-.161.267-.357.349-.585.083-.23.124-.48.124-.75s-.041-.519-.124-.748c-.082-.229-.199-.424-.349-.585-.15-.161-.334-.289-.552-.383-.217-.094-.46-.14-.731-.14zm2.51-12.795c.398 0 .77.073 1.115.22.345.146.645.347.9.602s.456.551.602.89c.147.337.22.7.22 1.091 0 .39-.073.756-.22 1.097-.146.342-.347.638-.602.89-.255.251-.555.45-.9.596-.346.147-.717.22-1.115.22s-.769-.073-1.114-.22c-.345-.146-.646-.345-.9-.596-.256-.252-.457-.548-.603-.89-.146-.34-.22-.707-.22-1.097s.074-.754.22-1.092c.146-.338.347-.634.602-.89.255-.254.556-.455.9-.601.346-.147.717-.22 1.115-.22zm11.876 0c.39 0 .726.049 1.007.147.282.097.512.228.692.393.18.165.314.355.4.569.086.214.13.437.13.67v2.724c0 .187.003.36.01.517.008.158.02.308.035.45h-.9c-.023-.27-.035-.54-.035-.81h-.022c-.225.345-.492.59-.8.732-.307.142-.664.214-1.069.214-.247 0-.484-.034-.709-.101-.225-.068-.422-.17-.59-.304-.17-.135-.303-.302-.4-.501-.098-.199-.147-.43-.147-.693 0-.345.077-.634.231-.866.154-.233.364-.423.63-.569.267-.146.578-.251.935-.315.356-.064.737-.096 1.142-.096h.743v-.225c0-.135-.026-.27-.079-.405-.052-.135-.131-.257-.236-.366-.105-.109-.237-.195-.394-.259-.158-.064-.345-.095-.563-.095-.195 0-.366.018-.512.056-.146.037-.28.084-.4.14-.12.057-.229.123-.326.198-.098.075-.191.146-.282.213l-.607-.63c.285-.263.615-.46.99-.59.375-.132.75-.198 1.126-.198zm13.147 0c.398 0 .77.073 1.115.22.345.146.645.347.9.602s.456.551.603.89c.146.337.22.7.22 1.091 0 .39-.074.756-.22 1.097-.147.342-.348.638-.603.89-.255.251-.555.45-.9.596-.345.147-.717.22-1.115.22-.397 0-.769-.073-1.114-.22-.345-.146-.645-.345-.9-.596-.256-.252-.456-.548-.603-.89-.146-.34-.22-.707-.22-1.097s.074-.754.22-1.092c.147-.338.347-.634.602-.89.256-.254.556-.455.9-.601.346-.147.718-.22 1.115-.22zm-8.037-1.362v1.497h1.452v.878H82.75v2.42c0 .15.004.298.011.445.008.146.036.278.085.394.049.116.124.21.225.281.101.072.25.107.445.107.12 0 .244-.011.371-.034.128-.022.244-.063.35-.123v.923c-.12.067-.277.114-.468.14-.191.027-.34.04-.445.04-.39 0-.692-.055-.906-.163-.214-.11-.371-.25-.473-.423-.101-.172-.161-.366-.18-.58-.018-.213-.028-.429-.028-.647V22.7h-1.17v-.878h1.17v-1.497h1.013zm-61.003-3.041H19.87v9.874h1.877v-9.874zm48.655 4.538L72 25.908l1.531-4.086h1.08l-2.093 5.336h-1.114l-2.173-5.336h1.17zm-21.343 0v5.336h-1.013v-5.336h1.013zm4.402-.135c.255 0 .5.04.737.118.236.079.443.2.62.366.176.165.316.377.421.636.105.259.158.565.158.917v3.434h-1.013v-3.152c0-.248-.034-.46-.102-.636-.067-.176-.157-.319-.27-.428-.112-.109-.242-.188-.388-.236-.147-.049-.298-.073-.456-.073-.21 0-.405.033-.585.1-.18.068-.338.175-.473.322-.135.146-.24.332-.315.557-.075.225-.113.491-.113.8v2.746H50.67v-5.336h1.013v.822h.023c.127-.286.349-.516.664-.692.315-.177.679-.265 1.092-.265zM9.992 11.343H8.116v15.799h1.876v-5.095c-.01-.503.062-1.005.21-1.485.119-.381.318-.733.584-1.031.241-.267.541-.474.877-.604.348-.128.716-.19 1.086-.186.288.001.573.05.845.142.271.09.518.24.723.439.222.223.392.493.498.79.136.38.2.781.19 1.184v5.862h1.88l.023-6.375c.012-.581-.087-1.159-.292-1.702-.174-.448-.444-.853-.79-1.185-.327-.31-.718-.54-1.145-.68-.442-.146-.905-.219-1.371-.217-.712-.018-1.416.15-2.042.49-.541.28-.974.731-1.232 1.284h-.044v-7.43zm87.696 10.344c.255 0 .5.04.737.118.236.079.443.2.62.366.175.165.316.377.421.636.105.259.158.565.158.917v3.434H98.61v-3.152c0-.248-.034-.46-.102-.636-.067-.176-.157-.319-.27-.428-.112-.109-.242-.188-.388-.236-.146-.049-.298-.073-.456-.073-.21 0-.405.033-.585.1-.18.068-.338.175-.473.322-.135.146-.24.332-.315.557-.075.225-.113.491-.113.8v2.746h-1.013v-5.336h1.013v.822h.023c.127-.286.349-.516.664-.692.315-.177.679-.265 1.092-.265zm-11.088.135v5.336h-1.013v-5.336H86.6zm-26.88-.135c.255 0 .5.04.737.118.236.079.443.2.619.366.176.165.317.377.422.636.105.259.158.565.158.917v3.434h-1.014v-3.152c0-.248-.033-.46-.101-.636-.067-.176-.158-.319-.27-.428-.113-.109-.242-.188-.388-.236-.147-.049-.299-.073-.456-.073-.21 0-.405.033-.586.1-.18.068-.337.175-.472.322-.135.146-.24.332-.316.557-.075.225-.112.491-.112.8v2.746h-1.013v-5.336h1.013v.822h.022c.128-.286.35-.516.664-.692.316-.177.68-.265 1.092-.265zM26.612 11.343h-1.88v15.799h1.88v-5.095c-.012-.503.059-1.005.209-1.485.118-.382.317-.734.584-1.031.24-.269.54-.476.877-.604.347-.128.714-.19 1.082-.186.29.001.576.05.85.142.269.091.514.24.718.439.224.223.395.493.502.79.132.38.195.782.186 1.184v5.846h1.88l-.004-6.359c.012-.581-.087-1.159-.292-1.702-.173-.449-.442-.854-.79-1.185-.329-.308-.722-.54-1.15-.68-.44-.146-.902-.219-1.366-.217-.703-.013-1.397.156-2.015.49-.54.28-.974.731-1.232 1.284h-.04v-7.43zm52.31 13.248h-.54c-.24 0-.486.013-.738.04-.251.026-.48.076-.686.151-.207.075-.375.18-.507.316-.131.135-.197.308-.197.518 0 .307.103.529.31.664.206.135.486.202.838.202.278 0 .515-.047.71-.14.195-.094.352-.216.472-.366s.207-.317.26-.501c.052-.184.078-.366.078-.546v-.338zm-13.159-1.958c-.27 0-.514.046-.731.14-.218.094-.402.222-.552.383-.15.161-.267.356-.349.585-.083.23-.124.479-.124.75 0 .269.041.519.124.748.082.228.199.424.349.585.15.161.334.289.552.383.217.093.46.14.731.14.27 0 .514-.047.732-.14.217-.094.401-.222.551-.383.15-.161.267-.357.35-.585.082-.23.123-.479.123-.749s-.041-.52-.124-.749c-.082-.229-.199-.424-.349-.585-.15-.161-.334-.289-.551-.383-.218-.094-.462-.14-.732-.14zm25.023 0c-.27 0-.514.046-.731.14-.218.094-.402.222-.552.383-.15.161-.266.356-.349.585-.082.23-.124.479-.124.75 0 .269.042.519.124.748.083.228.2.424.35.585.15.161.333.289.55.383.218.093.462.14.732.14.27 0 .514-.047.732-.14.218-.094.402-.222.552-.383.15-.161.266-.357.348-.585.083-.23.125-.479.125-.749s-.042-.52-.125-.749c-.082-.229-.198-.424-.348-.585-.15-.161-.334-.289-.552-.383-.218-.094-.461-.14-.732-.14zm-42.234-3.467c.202 0 .377.073.523.22.147.145.22.32.22.523 0 .202-.073.377-.22.523-.146.146-.32.22-.523.22s-.377-.074-.523-.22c-.147-.146-.22-.32-.22-.523s.073-.378.22-.524c.146-.146.32-.22.523-.22zm37.54 0c.203 0 .378.073.524.22.146.145.22.32.22.523 0 .202-.074.377-.22.523-.146.146-.32.22-.524.22-.202 0-.377-.074-.523-.22-.146-.146-.22-.32-.22-.523s.074-.378.22-.524c.146-.146.32-.22.523-.22zM56.67 9.838c.473 0 .872.083 1.199.248.326.165.594.38.804.647.21.267.363.567.457.9.093.334.14.674.14 1.02v.36h-4.277c0 .232.05.444.152.635.1.192.234.355.399.49s.357.24.574.315c.218.075.443.113.676.113.315 0 .589-.073.821-.22.233-.146.447-.34.642-.58l.766.586c-.563.728-1.351 1.092-2.364 1.092-.42 0-.801-.072-1.143-.214-.342-.143-.63-.34-.867-.591-.236-.252-.418-.548-.546-.89-.127-.34-.191-.71-.191-1.108 0-.398.07-.767.208-1.109.14-.341.33-.638.574-.889.244-.251.535-.448.873-.59.337-.144.705-.215 1.103-.215zm5.955 0c.39 0 .726.049 1.007.146.281.098.512.23.692.394.18.165.313.355.4.569.086.214.13.437.13.67v2.724c0 .187.003.36.01.517.008.158.02.308.034.45h-.9c-.023-.27-.034-.54-.034-.81h-.023c-.225.345-.491.59-.799.732-.307.142-.664.214-1.07.214-.247 0-.483-.034-.708-.102-.225-.067-.422-.168-.591-.303-.169-.136-.302-.302-.4-.501-.097-.2-.146-.43-.146-.693 0-.345.077-.634.23-.867.155-.232.365-.422.631-.568.266-.146.578-.251.934-.315.357-.064.738-.096 1.143-.096h.743v-.225c0-.135-.026-.27-.08-.405-.052-.135-.13-.257-.235-.366-.105-.109-.237-.195-.395-.259-.157-.064-.345-.095-.562-.095-.195 0-.366.018-.512.056-.147.037-.28.084-.4.14-.12.057-.229.122-.327.197-.097.075-.19.147-.28.214l-.609-.63c.286-.263.616-.46.991-.59.375-.132.75-.198 1.126-.198zm7.812-1.362v1.497h1.452v.878h-1.452v2.42c0 .15.003.298.01.445.008.146.037.278.085.394.049.116.124.21.225.281.102.072.25.107.445.107.12 0 .244-.011.371-.034.128-.022.244-.063.35-.123v.923c-.12.067-.276.114-.468.14-.191.027-.34.04-.444.04-.39 0-.693-.055-.907-.163-.213-.11-.37-.25-.472-.423-.102-.172-.162-.365-.18-.58-.02-.213-.028-.429-.028-.646v-2.78h-1.171v-.879h1.17V8.476h1.014zM48.98 6.8v3.996h.022c.128-.285.349-.516.664-.692.315-.177.68-.265 1.092-.265.255 0 .501.04.738.118.236.08.442.201.619.366.176.165.317.377.422.636.105.259.157.565.157.918v3.433h-1.013v-3.152c0-.248-.034-.46-.101-.636-.068-.176-.158-.319-.27-.428-.113-.109-.242-.188-.389-.236-.146-.049-.298-.073-.455-.073-.21 0-.406.033-.586.101-.18.068-.338.174-.473.32-.135.147-.24.333-.315.558-.075.225-.112.492-.112.8v2.746h-1.013v-8.51h1.013zm18.438 0v8.51h-1.013v-8.51h1.013zm6.787 0v3.996h.023c.128-.285.35-.516.664-.692.315-.177.68-.265 1.092-.265.255 0 .5.04.737.118.237.08.443.201.62.366.176.165.316.377.421.636.106.259.158.565.158.918v3.433h-1.013v-3.152c0-.248-.034-.46-.101-.636-.068-.176-.158-.319-.27-.428-.113-.109-.242-.188-.389-.236-.146-.049-.298-.073-.456-.073-.21 0-.405.033-.585.101-.18.068-.338.174-.473.32-.135.147-.24.333-.315.558-.075.225-.113.492-.113.8v2.746h-1.013v-8.51h1.013zm-53.138 5.593c-.636-.121-1.268.223-1.512.823s-.03 1.288.51 1.645 1.256.284 1.712-.175v-.016c.256-.252.399-.597.395-.956-.007-.647-.469-1.2-1.105-1.32zm42.839.35h-.54c-.24 0-.486.013-.738.04-.251.026-.48.076-.686.151-.207.075-.376.18-.507.316-.131.135-.197.308-.197.518 0 .307.103.529.31.664.206.135.485.202.838.202.278 0 .514-.047.71-.14.194-.094.352-.216.472-.366s.206-.317.259-.501c.053-.184.079-.366.079-.546v-.338zm-7.26-2.093c-.248 0-.475.046-.682.14-.206.094-.38.216-.523.366-.143.15-.253.317-.332.501-.079.184-.118.366-.118.546h3.197c-.008-.225-.044-.432-.108-.62-.063-.187-.159-.35-.286-.489-.128-.139-.288-.248-.479-.326-.191-.08-.415-.118-.67-.118z"/>
</svg>
