<svg xmlns="http://www.w3.org/2000/svg" width="123" height="63" viewBox="0 0 123 63">
    <g fill="none">
        <path fill="#B5B9C3" d="M31.716 41.333L33.23 41.333 33.23 61.517 29.697 61.517 29.697 41.333z" transform="translate(0 .6)"/>
        <path fill="#9AA0AC" d="M31.716 21.048L33.23 21.048 33.23 41.333 29.697 41.333 29.697 21.048z" transform="translate(0 .6)"/>
        <path fill="#757C8D" d="M90.102 29.895c0-.554-.037-.946-.114-1.175-.136-.455-.429-.684-.878-.684-.623 0-.977.373-1.06 1.118-.031.258-.046.505-.046.741h2.098zm.913.617h-3.011v.387c0 .585.053 1.008.16 1.265.152.373.448.559.89.559.662 0 1.007-.422 1.038-1.265h.889c-.054 1.277-.696 1.915-1.927 1.915-.799 0-1.347-.269-1.643-.81-.22-.402-.33-1.053-.33-1.95 0-1.018.095-1.748.285-2.188.297-.692.882-1.038 1.757-1.038.82 0 1.367.303 1.64.911.168.38.252 1.031.252 1.95v.264zm-5.406 2.747h-.9v-5.748h.9v5.748zm.045-7.15h-.99v-.981h.99v.981zm-3.534 4.094c0-.646-.054-1.124-.16-1.436-.166-.472-.479-.707-.935-.707-.47 0-.783.265-.935.798-.09.318-.136.847-.136 1.584 0 .662.045 1.133.136 1.415.144.47.437.707.879.707.516 0 .858-.286 1.026-.856.083-.296.125-.798.125-1.505m.935-2.691c0 .084-.006.234-.016.45-.012.217-.018.386-.018.507v5.03c0 .7-.163 1.21-.49 1.528-.328.32-.848.48-1.562.48-1.187 0-1.787-.557-1.803-1.666h.958c0 .7.297 1.05.89 1.05.463 0 .772-.169.923-.502.107-.221.16-.586.16-1.095v-.776c-.32.45-.764.673-1.334.673-.715 0-1.205-.3-1.47-.902-.176-.394-.264-1.01-.264-1.847 0-.927.096-1.619.285-2.075.274-.653.761-.98 1.46-.98.639 0 1.1.265 1.38.798v-.673h.9zm-4.743.753c-.092-.015-.157-.024-.194-.024-.434 0-.76.134-.975.4-.217.265-.325.62-.325 1.06v3.558h-.913v-4.698c0-.388-.012-.737-.034-1.049h.89v.753c.311-.578.798-.867 1.459-.867.061 0 .092.289.092.867m-4.745 1.63c0-.554-.038-.946-.114-1.175-.137-.455-.43-.684-.878-.684-.623 0-.977.373-1.06 1.118-.03.258-.046.505-.046.741h2.098zm.913.617h-3.01v.387c0 .585.053 1.008.158 1.265.153.373.45.559.89.559.66 0 1.008-.422 1.037-1.265h.89c-.053 1.277-.695 1.915-1.927 1.915-.799 0-1.345-.269-1.642-.81-.221-.402-.33-1.053-.33-1.95 0-1.018.094-1.748.285-2.188.296-.692.881-1.038 1.756-1.038.82 0 1.368.303 1.642.911.167.38.251 1.031.251 1.95v.264zm-5.406 2.747h-.9v-3.671c0-.495-.035-.833-.103-1.015-.13-.335-.392-.503-.787-.503-.389 0-.688.191-.901.57-.176.328-.262.716-.262 1.164v3.455h-.901v-4.493c0-.509-.015-.927-.046-1.254h.89v.786c.319-.608.817-.912 1.493-.912 1.012 0 1.517.598 1.517 1.791v4.082zm-5.2 0h-3.878v-8.244h3.798v.787h-2.828v2.827h2.68v.765h-2.68v3.079h2.908v.786zm-9.351-2.816c0-.783-.058-1.342-.17-1.677-.161-.479-.469-.718-.925-.718-.449 0-.752.251-.913.752-.105.327-.159.837-.159 1.529 0 .752.06 1.303.183 1.653.159.471.444.707.855.707.486 0 .81-.24.97-.718.105-.312.159-.821.159-1.528m.924 2.816h-.879l-.01-.66c-.328.5-.777.752-1.347.752-.737 0-1.242-.331-1.516-.993-.175-.44-.263-1.124-.263-2.053 0-.873.103-1.535.309-1.984.273-.623.755-.935 1.447-.935.578 0 1.012.225 1.3.673v-3.044h.912v7.16c0 .206.017.567.047 1.084m-5.486 0h-.9v-3.671c0-.495-.035-.833-.103-1.015-.13-.335-.392-.503-.787-.503-.388 0-.688.191-.901.57-.176.328-.262.716-.262 1.164v3.455h-.901v-4.493c0-.509-.015-.927-.047-1.254h.89v.786c.32-.608.818-.912 1.494-.912 1.012 0 1.517.598 1.517 1.791v4.082zm-5.508 0h-.9l-.012-.73c-.35.548-.833.822-1.448.822-1.026 0-1.54-.589-1.54-1.768v-4.071h.901v3.672c0 .471.039.805.114 1.004.13.326.396.49.798.49.754 0 1.129-.559 1.129-1.676v-3.49h.913v4.481c0 .45.015.87.045 1.266m55.639-12.11c-.28.03-.501.046-.66.046-.518 0-.872-.11-1.062-.331-.16-.198-.24-.56-.24-1.084v-3.717h-.854v-.662h.854v-1.06l.902-.4v1.46h1.027v.662h-1.027v3.615c0 .32.046.534.137.644.092.11.262.165.513.165.046 0 .182-.015.41-.045v.707zm-3.352-7.572c-.07-.007-.186-.011-.354-.011-.281 0-.47.103-.57.307-.06.145-.09.377-.09.696v.833h.98v.661h-.98v5.086h-.902v-5.086h-.845v-.661h.845v-.628c0-.623.075-1.068.228-1.333.213-.396.624-.595 1.231-.595.16 0 .312.009.457.025v.706zm-4.779 5.348v-.684h-.227c-1.202 0-1.802.41-1.802 1.232 0 .737.28 1.106.843 1.106.426 0 .742-.182.947-.547.16-.29.239-.658.239-1.107m.947 2.225h-.877l-.013-.753c-.387.562-.9.843-1.539.843-.487 0-.863-.16-1.13-.479-.235-.303-.352-.707-.352-1.208 0-.814.311-1.361.935-1.643.41-.19 1.088-.29 2.029-.296v-.251c0-.471-.037-.798-.113-.98-.122-.305-.38-.457-.776-.457-.273 0-.502.076-.685.228-.182.153-.273.365-.273.639v.056h-.9v-.056c0-.525.189-.916.57-1.174.326-.228.767-.342 1.323-.342.661 0 1.12.159 1.38.479.242.288.364.767.364 1.436v2.122c0 .69.019 1.303.057 1.836m-5.257 0h-.901v-3.673c0-.486-.034-.825-.102-1.014-.13-.335-.392-.503-.788-.503-.774 0-1.163.567-1.163 1.7v3.49h-.9v-8.245h.9v3.158c.372-.524.856-.787 1.449-.787 1.003 0 1.505.6 1.505 1.802v4.071zm-5.12-1.79c0 1.268-.598 1.904-1.79 1.904-.822 0-1.373-.267-1.655-.8-.213-.402-.319-1.102-.319-2.097 0-.996.096-1.703.286-2.12.289-.647.858-.97 1.71-.97.654 0 1.117.151 1.391.456.252.288.377.756.377 1.402h-.89c0-.805-.297-1.209-.889-1.209-.472 0-.78.256-.925.764-.082.297-.125.825-.125 1.586 0 .866.066 1.463.195 1.79.143.364.417.547.82.547.358 0 .608-.125.753-.376.106-.19.164-.482.171-.878h.89zm-4.892.215c0 1.118-.602 1.677-1.802 1.677-1.178 0-1.756-.62-1.733-1.86h.9c0 .116.004.222.01.32.054.6.336.901.846.901.577 0 .866-.296.866-.89 0-.318-.091-.57-.274-.752-.114-.122-.369-.29-.763-.501-.541-.29-.883-.503-1.026-.639-.29-.266-.434-.62-.434-1.06 0-.495.163-.871.49-1.13.304-.243.711-.365 1.22-.365.593 0 1.016.14 1.266.417.251.277.384.705.4 1.283h-.902c0-.715-.27-1.072-.81-1.072-.236 0-.421.072-.558.216-.137.145-.205.334-.205.57 0 .259.11.48.33.662.114.106.384.274.81.502.464.25.783.464.958.638.273.29.41.65.41 1.083m-4.31 1.574c-.28.03-.502.046-.662.046-.517 0-.87-.11-1.06-.331-.16-.198-.24-.559-.24-1.084v-3.717h-.855v-.662h.856v-1.06l.9-.4v1.46h1.027v.662h-1.026v3.616c0 .318.045.533.137.643.09.111.261.166.512.166.047 0 .182-.016.41-.046v.707zm-3.308-4.994c-.09-.015-.155-.024-.193-.024-.433 0-.759.134-.976.4-.216.265-.325.62-.325 1.06v3.558h-.911v-4.698c0-.388-.013-.737-.035-1.049h.89v.753c.312-.578.798-.867 1.46-.867.06 0 .09.289.09.867m-4.094 4.994h-.9v-5.747h.9v5.747zm.046-7.15h-.992v-.981h.992v.981zm-1.824-1.095l-1.893 8.245h-1.164l-1.447-7.23-1.529 7.23h-1.164l-1.824-8.245h1.026l1.415 7.208 1.55-7.208h1.164l1.436 7.208 1.507-7.208h.923zm-12.305 3.25c-.092-.014-.156-.023-.194-.023-.433 0-.758.134-.975.4-.217.265-.325.62-.325 1.06v3.558h-.913v-4.698c0-.388-.01-.737-.033-1.049h.889v.753c.311-.578.799-.867 1.46-.867.06 0 .091.289.091.867m-6.477-2.076h-.844v-1.094h.844v1.094zm1.79 0h-.867v-1.094h.867v1.094zm.639 7.07h-.901l-.011-.73c-.35.548-.833.821-1.449.821-1.026 0-1.54-.588-1.54-1.767V15.4h.902v3.673c0 .471.038.805.114 1.004.129.326.395.49.798.49.752 0 1.128-.559 1.128-1.676v-3.49h.913v4.481c0 .45.015.87.046 1.266m-5.03-7.572c-.068-.007-.186-.011-.353-.011-.281 0-.472.103-.57.308-.061.144-.091.376-.091.696v.832h.98v.661h-.98v5.087h-.901v-5.087h-.844v-.661h.844v-.628c0-.623.075-1.068.228-1.333.213-.396.623-.594 1.231-.594.16 0 .312.008.456.024v.706zm79.93-4.538h-.901V5.174c0-.419-.037-.716-.114-.89-.114-.282-.342-.423-.684-.423-.677 0-1.015.522-1.015 1.563v3.615h-.902V5.127c0-.402-.03-.684-.091-.843-.106-.282-.337-.423-.695-.423-.342 0-.605.168-.786.503-.16.296-.24.68-.24 1.152v3.523h-.901V4.284c0-.342-.016-.673-.047-.993h.902v.754c.304-.586.757-.879 1.356-.879.656 0 1.081.293 1.278.879.335-.586.81-.879 1.425-.879.525 0 .898.172 1.118.514.198.296.297.778.297 1.447V9.04zm-7.983 0h-.9l-.012-.73c-.351.548-.833.82-1.448.82-1.026 0-1.54-.587-1.54-1.766V3.29h.901v3.673c0 .471.038.805.114 1.004.13.326.394.49.798.49.752 0 1.13-.559 1.13-1.676v-3.49h.91v4.481c0 .449.017.87.047 1.266m-5.6 0h-.9V3.292h.9v5.747zm.046-7.15h-.991V.906h.991v.981zm-2.029 2.155c-.092-.015-.156-.023-.195-.023-.432 0-.757.133-.974.4-.217.265-.326.619-.326 1.06v3.558h-.912V4.34c0-.389-.011-.738-.033-1.05h.888v.753c.312-.578.798-.866 1.46-.866.06 0 .092.288.092.866m-4.745 1.63c0-.554-.037-.945-.113-1.174-.137-.455-.43-.684-.878-.684-.624 0-.978.373-1.061 1.117-.03.259-.046.506-.046.742h2.098zm.913.617h-3.011v.387c0 .586.053 1.008.159 1.266.153.373.449.558.89.558.662 0 1.007-.421 1.039-1.265h.888c-.053 1.277-.696 1.916-1.926 1.916-.8 0-1.347-.27-1.642-.81-.22-.403-.331-1.053-.331-1.95 0-1.018.094-1.748.284-2.189.297-.692.883-1.038 1.757-1.038.82 0 1.368.304 1.642.912.167.38.25 1.03.25 1.95v.263zM98.462 9.04c-.282.03-.501.045-.662.045-.517 0-.871-.11-1.06-.33-.16-.198-.24-.56-.24-1.084V3.953h-.854V3.29h.854v-1.06l.902-.4v1.46h1.025v.662h-1.025v3.615c0 .319.045.534.137.644.09.11.261.165.512.165.046 0 .182-.015.411-.045v.707zm-3.581-1.574c0 1.118-.6 1.677-1.802 1.677-1.178 0-1.757-.62-1.734-1.86h.902c0 .115.003.221.01.32.054.6.336.901.844.901.578 0 .869-.297.869-.89 0-.318-.092-.57-.276-.752-.114-.121-.368-.29-.763-.502-.54-.29-.882-.502-1.026-.638-.29-.266-.433-.62-.433-1.061 0-.495.163-.87.49-1.13.304-.242.71-.364 1.219-.364.594 0 1.016.139 1.267.416.25.278.383.705.4 1.283h-.902c0-.715-.271-1.072-.81-1.072-.236 0-.422.073-.558.217-.138.144-.206.334-.206.57 0 .258.11.48.33.662.115.106.385.273.81.501.464.251.783.464.959.639.273.29.41.65.41 1.083M90 9.039h-.902V3.292H90v5.747zm.044-7.15h-.991V.906h.991v.981zM87.4 9.038h-.9V5.367c0-.494-.035-.832-.103-1.016-.13-.334-.393-.501-.788-.501-.386 0-.687.19-.9.57-.175.328-.262.715-.262 1.164v3.455h-.9V4.546c0-.51-.017-.927-.047-1.255h.89v.787c.32-.608.816-.912 1.493-.912 1.012 0 1.517.597 1.517 1.79V9.04zm-5.554 0h-.901V3.291h.901V9.04zm.046-7.15h-.993V.906h.993v.981zm-2.646 7.15h-.9V5.173c0-.418-.038-.715-.114-.89-.115-.28-.343-.422-.685-.422-.677 0-1.016.521-1.016 1.562V9.04h-.9V5.127c0-.403-.03-.684-.091-.843-.106-.282-.34-.423-.695-.423-.342 0-.604.167-.788.502-.16.297-.239.68-.239 1.152V9.04h-.9V4.284c0-.342-.016-.673-.046-.993h.9v.754c.305-.587.757-.88 1.357-.88.655 0 1.08.293 1.277.88.335-.587.81-.88 1.427-.88.524 0 .897.172 1.117.514.197.297.296.78.296 1.448v3.912zM71.56 7.465c0 1.118-.6 1.676-1.802 1.676-1.178 0-1.756-.619-1.733-1.859h.9c0 .115.005.221.012.32.053.6.334.9.844.9.577 0 .867-.296.867-.889 0-.319-.092-.57-.274-.752-.115-.121-.369-.29-.763-.502-.54-.29-.883-.502-1.027-.638-.29-.267-.434-.62-.434-1.061 0-.495.164-.871.49-1.13.305-.242.712-.364 1.22-.364.594 0 1.016.139 1.267.416.25.278.383.705.4 1.283h-.901c0-.715-.27-1.072-.81-1.072-.236 0-.422.073-.56.217-.136.144-.205.334-.205.57 0 .258.11.479.33.662.115.106.385.273.81.501.464.251.784.464.96.638.272.29.409.651.409 1.084m-5.53-1.79c0-.555-.039-.947-.115-1.176-.137-.454-.43-.683-.878-.683-.624 0-.977.373-1.06 1.117-.03.258-.047.506-.047.742h2.1zm.911.616h-3.01v.387c0 .585.053 1.008.16 1.266.152.373.449.558.89.558.661 0 1.006-.421 1.037-1.265h.89c-.053 1.277-.696 1.916-1.928 1.916-.798 0-1.345-.27-1.642-.81-.22-.403-.33-1.053-.33-1.95 0-1.018.094-1.748.284-2.19.296-.691.882-1.037 1.756-1.037.822 0 1.369.304 1.642.912.168.38.251 1.03.251 1.95v.263zm-6.283-.069c0-.783-.057-1.342-.171-1.676-.16-.48-.467-.719-.923-.719-.45 0-.753.252-.913.753-.107.327-.16.836-.16 1.528 0 .753.061 1.303.183 1.653.16.473.444.708.855.708.487 0 .81-.24.97-.719.106-.311.16-.82.16-1.528m.922 2.817h-.877l-.011-.661c-.327.501-.776.752-1.346.752-.737 0-1.243-.33-1.517-.992-.175-.441-.262-1.125-.262-2.053 0-.874.102-1.535.308-1.984.274-.624.756-.935 1.448-.935.578 0 1.012.225 1.3.672V.794h.912v7.161c0 .206.015.567.045 1.084m-5.484 0h-.902V5.367c0-.494-.033-.832-.102-1.016-.13-.334-.391-.501-.787-.501-.388 0-.688.19-.9.57-.176.328-.263.715-.263 1.164v3.455h-.9V4.546c0-.51-.016-.927-.047-1.255h.89v.787c.32-.608.817-.912 1.494-.912 1.011 0 1.517.597 1.517 1.79V9.04zm-5.508 0h-.901l-.012-.73c-.35.547-.833.82-1.448.82-1.026 0-1.54-.588-1.54-1.767V3.291h.9v3.673c0 .47.04.805.116 1.003.129.326.395.49.798.49.752 0 1.128-.558 1.128-1.676v-3.49h.913v4.482c0 .449.015.87.046 1.266M44.19 6.735c0-.54-.116-.94-.348-1.202-.231-.264-.614-.395-1.146-.395h-1.038v3.125h.879c.578 0 .988-.094 1.231-.285.28-.22.422-.635.422-1.243m-.126-3.82c0-.51-.125-.866-.375-1.072-.221-.183-.578-.274-1.073-.274h-.958v2.817h1.015c.928 0 1.39-.49 1.39-1.471m1.119 3.866c0 .836-.21 1.429-.627 1.779-.38.319-.992.48-1.836.48H40.7V.793h2.19c.738 0 1.28.159 1.626.479.346.32.52.847.52 1.585 0 .517-.088.912-.264 1.186-.182.312-.505.54-.968.684.531.13.9.369 1.105.719.183.304.274.748.274 1.334M33.229.966v20.183h-3.532V.966h3.532zm-19 7.406c.028-.226.044-.46.044-.698 0-.13 0-.28-.015-.452 2.011-.03 3.775-1.478 3.775-3.145 0-.847-.552-1.487-.865-1.87.07-.014.141-.031.212-.048.294.256 1.13 1.166 1.13 2.316 0 2-1.998 3.855-4.28 3.897m-2.027-6.963c-.037-.223-.122-.424-.251-.598.007-.204.09-.398.418-.239-.177.183-.04.503-.04.503s.363-.168.288-.407c.54.129.152.852-.415.741m-.467 1.026c-.073-.298-.225-.605-.42-.836-.177-.21-.472-.459-.866-.459-.182 0-.485.085-.677.165C9.7 1.175 9.56.86 9.56.716c0-.146.248-.294.721-.294 1.041 0 1.664.47 1.664 1.26 0 .277-.11.53-.21.753m2.675 13.423c.121 0 .18.02.25.045.3.816 1.455 2.354 1.503 2.42l.011.014.017-.004c.284-.045 1.007-.154 1.613-.154h.013c.067 0 .14 0 .19.046.037.04.058.108.058.206 0 .151-.065.408-.14.518-.213-.232-.557-.335-1.107-.335-.167 0-.362.05-.468.077l-.044.01-.049.012.318.32c.49.49.915.912.915 1.193 0 .17-.166.39-.318.49-.032-.517-.554-1.207-1.061-1.593l-.044-.032-.008.18c-.008.124-.018.309-.018.507 0 .982-.1 1.13-.44 1.13-.052 0-.132-.014-.182-.033.191-.236.267-.55.267-1.098l-.002-.254-.003-.204c0-.224.023-.392.041-.525l.01-.077-.053-.006c-.16-.023-.456-.063-.682-.063-.485 0-.814.044-1.052.27-.157-.128-.319-.347-.319-.486 0-.205.127-.221.295-.221.084 0 .163.012.272.026.209.03.524.077 1.17.077h.04l-.013-.04c-.164-.469-.614-1.15-1.335-2.028.064-.234.128-.388.355-.388m-6.231 2.417l-.012.039h.04c.646 0 .96-.047 1.17-.077.108-.014.187-.026.272-.026.166 0 .295.016.295.22 0 .14-.162.359-.319.486-.239-.225-.569-.27-1.053-.27-.227 0-.522.041-.682.064l-.025.002-.028.004.009.077c.02.133.042.3.042.524l-.003.205-.002.253c0 .55.075.863.268 1.099-.05.019-.13.033-.183.033-.34 0-.44-.148-.44-1.13 0-.198-.01-.383-.017-.507l-.01-.182-.042.034c-.508.386-1.03 1.076-1.06 1.592-.154-.098-.318-.32-.318-.489 0-.281.422-.704.913-1.194l.282-.282.036-.037-.092-.022c-.106-.027-.302-.077-.468-.077-.551 0-.894.103-1.107.335-.076-.11-.14-.367-.14-.518 0-.098.019-.167.058-.206.049-.047.122-.047.188-.047h.014c.605 0 1.33.11 1.613.155l.017.004.01-.013c.05-.067 1.205-1.605 1.504-2.421.07-.026.13-.046.25-.046.227 0 .29.155.356.389-.723.877-1.172 1.56-1.336 2.028m-3.12-13.8c0-1.15.836-2.06 1.13-2.315.072.017.142.034.212.048-.312.382-.865 1.023-.865 1.87 0 1.683 1.799 3.145 3.835 3.145-.013.144-.02.296-.02.451 0 .25.013.48.038.698-2.303-.014-4.33-1.883-4.33-3.896M20.506 8.02c1.033 1.634 1.842 1.606 3.062 1.606-1.01-.774-1.678-1.766-1.997-2.272l-1.886-3.02c-.185-.933-.667-1.805-1.39-2.454.243-.091.445-.188.566-.28-1.231 0-2.453-.626-3.125-.626-.432 0-.71.259-.71.6.028.38.42.767 1.143.767.164 0 .373-.022.603-.06.392.547.709 1.04.709 1.744 0 1.322-1.582 2.352-3.177 2.352-.09 0-.177-.003-.266-.01-.146-.328-.626-.878-.626-1.504 0-1.05.685-1.908.685-2.948 0-.647-.316-1.047-.437-1.214.197-.181.411-.405.46-.558-.113.049-.248.056-.445.056-.765 0-1.389-.2-1.996-.2-.347 0-.44.107-.44.21 0 .036.005.074.016.094-.13-.052-.252-.084-.396-.111-.178-.035-.372-.052-.578-.052-.738 0-1 .31-1 .575 0 .225.176.635.377.947.287-.145.633-.243.792-.243.391 0 .74.374.925.816-.264.032-.315.044-.581.044-.719 0-1.209-.258-1.31-.258-.01 0-.03.005-.03.02 0 .102.206.368.607.515.53.194 1.324.275 1.456.296 0 .023-.135.274-.285.321-.032.012-.056.013-.093.005-.553-.11-.708-.156-1.41-.423-.02-.008-.034.005-.034.028 0 .278.72.89 1.363 1.125-.538.686-1.21 1.388-1.526 2.46-.09.006-.177.01-.267.01-1.596 0-3.176-1.03-3.176-2.353 0-.704.317-1.198.708-1.743.23.037.439.06.603.06.723 0 1.115-.388 1.144-.768 0-.341-.278-.6-.711-.6-.672 0-1.893.626-3.126.626.122.092.324.188.567.28-.723.649-1.205 1.521-1.39 2.454l-1.886 3.02C1.68 7.86 1.01 8.853 0 9.627c1.22 0 2.03.028 3.064-1.607l.967-1.548c.072.202.16.397.263.59L2.371 10.14c-.321.51-.984 1.494-1.999 2.273 1.222 0 2.03.028 3.064-1.605l1.656-2.652c.124.132.254.26.393.384l-2.339 3.742c-.32.512-.98 1.492-1.997 2.271 1.22 0 2.03.03 3.064-1.605L6.49 9.3c.15.094.304.187.462.274l-2.78 4.45c-.322.513-.982 1.49-1.998 2.271 1.22 0 2.03.028 3.063-1.605l2.864-4.584c.17.065.341.127.517.183l-3.236 5.18c-.317.504-.992 1.5-1.998 2.27 1.22 0 2.03.029 3.064-1.603l3.449-5.521c.035.005.07.011.104.018.093.299.16.577.16.855 0 1.735-1.139 3.267-2.506 4.45.088.037.24.05.382.05.281 0 .464-.015.59-.037-.316.72-.996 1.649-1.339 2.13-.448-.081-1.097-.144-1.524-.144-.446 0-.496.262-.496.494 0 .405.19.727.41.907.082-.207.248-.485 1.073-.485l.082.005c-.24.269-.994.878-.994 1.368 0 .326.357.812.826.812-.028-.104-.024-.2-.024-.272 0-.398.352-.864.65-1.188-.01.097-.005.086-.005.2 0 .94.085 1.371.681 1.371.293 0 .495-.161.564-.209-.387-.357-.408-.637-.408-1.164l.004-.457c.001-.12 0-.279-.02-.394.214-.03.3-.03.464-.03 0 0 .848-.067 1.052.373.23-.21.564-.508.564-.836 0-.217-.103-.462-.54-.462-.165 0-.684.1-1.12.1.117-.259.637-1.02 1.088-1.572.069.214.175.446.412.634.032-.354.24-1.477.796-2.134.063.444.151.899.151 1.86 0 2.333-.56 4.058-1.753 4.387.155.27.483.513.823.513.436 0 .674-.493.916-.958.126.343.474 1.185.823 1.185.35 0 .698-.842.824-1.185.242.465.48.958.915.958.341 0 .669-.243.824-.513-1.191-.329-1.753-2.054-1.753-4.388 0-.96.087-1.415.151-1.859.555.657.764 1.78.796 2.134.237-.188.343-.42.412-.634.45.552.97 1.313 1.088 1.573-.435 0-.956-.101-1.12-.101-.437 0-.54.245-.54.462 0 .328.334.625.565.836.203-.44 1.051-.373 1.051-.373.164 0 .25 0 .464.03-.02.115-.021.274-.02.394l.003.457c0 .527-.02.807-.407 1.164.069.048.272.21.563.21.597 0 .683-.432.683-1.373 0-.113.003-.102-.005-.2.298.325.65.79.65 1.189 0 .072.004.168-.025.272.47 0 .827-.486.827-.812 0-.49-.754-1.1-.995-1.368l.083-.005c.824 0 .99.278 1.073.485.22-.18.409-.502.409-.907 0-.232-.05-.494-.496-.494-.426 0-1.076.063-1.524.144-.344-.481-1.023-1.41-1.34-2.13.128.022.31.038.592.038.14 0 .293-.014.38-.052-1.366-1.182-2.505-2.714-2.505-4.45 0-.277.067-.555.16-.854.034-.007.07-.013.104-.018l3.45 5.52c1.032 1.633 1.842 1.605 3.063 1.605-1.006-.771-1.68-1.767-1.996-2.271l-3.237-5.18c.174-.056.347-.118.516-.183l2.864 4.584c1.033 1.633 1.842 1.605 3.063 1.605-1.016-.78-1.676-1.758-1.997-2.27l-2.781-4.451c.158-.087.312-.18.461-.274l2.28 3.648c1.034 1.634 1.842 1.605 3.062 1.605-1.016-.779-1.675-1.76-1.997-2.27L18.085 8.54c.138-.123.269-.252.391-.384l1.657 2.652c1.033 1.633 1.842 1.605 3.064 1.605-1.016-.78-1.678-1.763-1.998-2.273L19.275 7.06c.103-.191.192-.387.263-.589l.968 1.548z" transform="translate(0 .6)"/>
    </g>
</svg>
