<svg xmlns="http://www.w3.org/2000/svg" width="61" height="60" viewBox="0 0 61 60">
    <path fill="#757C8D" d="M22.56 13.765c-.357 0-1.07.06-1.367.297-.238.238-.653.356-.832.356-.237 0-.237.357 0 .357.12 0 .238 0 .357-.06.119.297.237.594.653.594.475 0 .654-.415.654-.653v-.535h.534c.238 0 .238-.356 0-.356zm-.892.891c0 .119-.06.297-.297.297-.119 0-.178 0-.178-.06-.06-.059-.119-.178-.119-.296.119-.06.297-.179.416-.297.06-.06.119-.06.238-.12v.476h-.06zm14.256 10.217l-1.069.772c-.713-1.188-.594-1.188-1.307 0l-1.069-.772c-.06-.06-.119-.06-.178-.06-.06 0-.119 0-.178.06l-1.07.772c-.712-1.188-.594-1.188-1.306 0l-1.07-.772c-.059-.06-.118-.06-.178-.06s-.119 0-.178.06l-1.07.772c-.712-1.188-.593-1.188-1.306 0l-1.07-.772c-.237-.178-.415 0-.356.237l.832 2.792c0 .06.119.178.238.178h1.96c.06 0 .178-.059.237-.178l.713-2.316.713 2.316c0 .06.119.178.238.178h1.96c.06 0 .178-.059.237-.178l.713-2.316.713 2.316c0 .06.119.178.238.178h1.96c.06 0 .178-.059.237-.178l.832-2.792c0-.237-.178-.415-.416-.237zm-8.256 2.02h-2.139l-.356-1.248c1.01.772.772.832 1.425-.178.654 1.01.416.95 1.426.178l-.356 1.247zm3.801 0h-2.138l-.357-1.248c1.01.772.773.832 1.426-.178.653 1.01.416.95 1.426.178l-.357 1.247zm3.802 0h-2.139l-.356-1.248c1.01.772.772.832 1.426-.178.653 1.01.415.95 1.425.178l-.356 1.247zM38.3 14.12h.534v.535c0 .238.178.653.653.653.416 0 .535-.297.654-.594.118.06.237.06.356.06.238 0 .238-.357 0-.357-.178 0-.594-.178-.832-.356-.297-.297-1.01-.297-1.366-.297-.297 0-.297.356 0 .356zm.83.12c.12 0 .179.059.238.118.12.119.238.178.416.297-.06.119-.119.238-.119.297 0 .06-.059.06-.178.06-.237 0-.297-.179-.297-.298v-.475h-.06zm12.297-5.169C45.785 3.49 38.36.4 30.4.4 22.44.4 15.015 3.489 9.372 9.072 3.73 14.656.7 22.14.7 30.1c0 7.96 3.089 15.385 8.672 21.028C14.956 56.71 22.44 59.8 30.4 59.8c7.96 0 15.385-3.089 21.028-8.672C57.01 45.544 60.1 38.06 60.1 30.1c0-7.96-3.089-15.385-8.672-21.028zM30.4 59.147c-16.038 0-29.047-13.009-29.047-29.047S14.362 1.053 30.4 1.053 59.447 14.062 59.447 30.1 46.438 59.147 30.4 59.147zm23.82-16.514c-.179-.118-.892-.475-.951-.534-.06-.06-.178-.119-.297-.119-.06 0-.06.06-.178.06-.119.059-.357.237-.119.296.238.06.713.416.891.476.238.059.356.118.475.059.119 0 .416-.119.178-.238zm-.773-23.581c-.416-.238-1.307.059-.713.831.179.238.357.119.476 0 .059 0 .059-.06.118-.06l.12-.118c.118-.06.177-.119.296-.178.416-.119-.178-.475-.297-.475zm3.267 14.077c-.119-.237-.416-.297-.475-.297h-.119c-.119 0-.237.06-.356.179-.119.118 0 .297.06.415.237.238.296.238.593.238h.238c.237 0 .178-.178.119-.297l-.06-.238zM30.4 1.35C14.54 1.35 1.65 14.24 1.65 30.1S14.54 58.85 30.4 58.85 59.15 45.96 59.15 30.1 46.26 1.35 30.4 1.35zm27.265 27.74c-.06 0-.238-.119-.297-.178-.06-.119-.12-.356-.12-.535 0-.178 0-.356-.237-.356-.237.06-1.069.119-1.307.119-.178 0-.297.06-.356.237-.06.179 0 .416-.178.416-.238 0-.357-.237-.475-.356-.12-.06-.179-.06-.238-.238 0-.178.238-.534.297-.713.06-.178.238-.178.416-.178s.237 0 .356-.06c.119 0 1.366-.177 1.485-.059.119.12.654.594.891.773.238.118.238.415.178.475-.059.06-.237.178-.237.356-.06.238-.119.238-.178.297zm-1.426-3.326v-.06c0-.118.178-.237.297-.178.297.238.713.119.297.713-.238.297-.119.416-.535.356-.178-.059-.653-.059-.95 0-.238.06-.416.179-.416.297-.06.12-.119.238-.237.179l-.12-.06c-.474-.237-.415-.356-.177-.772.118-.178.237-.416.534-.297l.119.06c.119 0 1.07-.179 1.129-.179.059 0 .059 0 .059-.06zm1.663.178c-.06.06-.06.178-.119.238-.059.059-.118.178-.237.118l-.06-.059c-.415-.178-.356-.297-.118-.653.118-.179.118-.297.356-.179l.178.12c.119.118.119.237 0 .415zm-.297-1.544c-.297.178-1.366.356-1.663.415-.119 0-.95.179-1.129.297-.237.12 0 .476-.297.535-.118 0-.178 0-.297-.06-.178-.059-.297-.237-.297-.356 0-.178.06-.297.06-.475 0-.297.237-.178.475-.238.297-.118 2.079-.594 2.257-.653.535-.238.416.119.891.297.119 0 .178.119 0 .238zm-.772-1.723c-.119.238-.416.238-.713.416 0 .119.06.237 0 .297-.119.297-.713.475-.594.178v-.178c0-.06 0-.178-.06-.238-.118 0-.89.178-1.128.297-.237.119 0 .475-.297.535-.119 0-.178 0-.297-.06-.178-.059-.297-.237-.297-.356 0-.178.06-.297.06-.475 0-.238.237-.178.475-.238.237-.06.89-.297 1.366-.416 0-.356-.178-.712.178-.534.178.06.238.297.238.297.06 0 .119.06.119.119.118 0 1.01-.476 1.069-.476.297.12.119.357-.119.832zm-1.485-2.495c.06 0 .119-.06.178 0 .178.06.297.119.475.119.179 0 .416.178.535.297.119.119.297.535.238.713-.06.178-.476-.178-.713-.297-.178-.06-.297-.119-.475-.119l.178.356c.119.179.356.416 0 .297-.357-.118-.713-.178-.713-.356-.178.119-.356.238-.594.356-.475.238-1.07.416-1.247.535-.297.178-.476.06-.535-.119-.06-.178 0-.06-.119-.178-.119-.178.06-.238.297-.356.119-.06.772-.179 1.248-.416.356-.178.653-.416.772-.475-.06-.297-.178-.713 0-.654.297.06.356-.178.475.297zm-11.88 29.878c0-.178.119-.237.297-.237h.119c.119 0 .237 0 .237.119v.118c.06.476-.118.476-.475.416-.06 0-.178-.06-.178-.297v-.119zM30.4 53.028c-9.801 0-18.176-6.177-21.443-14.85.118-.059.297-.118.534-.237 2.08-1.129 3.386-3.386 4.158-5.524-.475 2.316-1.366 4.99-2.97 6.771-.178.178-.06.416.238.357 2.792-.713 4.336-4.396 4.99-7.425-.238 3.029-1.13 6.296-3.208 8.672-.178.238 0 .475.237.356 3.386-1.306 4.812-5.167 4.93-10.454.06.06.12.178.238.238 0 3.267-.772 7.425-2.613 10.098-.179.237.059.475.297.297 3.682-2.139 4.098-6.416 4.158-9.98l.237.12c.238 2.91-.119 7.068-1.841 9.444-.178.237.06.475.297.297 1.841-1.188 2.732-3.386 3.089-5.762-.06 1.544-.179 3.208-.594 4.514-.06.297.237.416.415.179 1.129-1.723 1.604-4.337 1.782-6.475.179-2.079.12-3.802.12-3.92.118 0 .237-.06.356-.179.118 2.317.653 4.812 2.079 6.416-.238.653-1.248 2.613-2.495 3.326l-.594.356c.475 0 .95.06 1.425.06-.594.89-1.247 1.782-2.02 2.554.535-.06 1.01-.119 1.426-.238-.059.297-.237.713-.475 1.129-.594 1.01-.95 1.663-2.376 1.663-.831 0-1.247-.475-1.663-.475-.356 0-1.485.713-1.544 1.604v.534c.356-.356.772-.95 1.306-.356-.712.653-.415 1.663-.178 2.435.178-.475.594-1.485 1.366-1.069-.178.594 0 1.307.297 1.842.06.118.535.653.535.653v-.713c.119-.95 1.307-.297 1.307-1.425 0-.297.416-.891.594-1.188.297-.535.237-.832 1.01-.832.95 0 1.9.297 2.138.713l.178.297.178-.297c.594-.95-.475-2.139-1.188-2.139-.297 0-.594.06-.831.12h-.119c0-.714.475-1.248 1.01-1.664.237.356.594.713 1.01 1.07-.06-.832.059-1.486.297-2.258.059-.178.118-.356.178-.475.178.356.356.713.594 1.069.119-1.188.297-2.257.713-3.386.118-.297.178-.534.297-.713l1.247 3.446-3.802 9.682 1.901-.594.06 1.366 1.782-1.07 1.01 1.664 1.01-1.663 1.781 1.069.06-1.366 1.9.594-3.801-9.682 1.247-3.446c.06.179.178.476.297.713.416 1.129.594 2.198.713 3.386.238-.356.416-.713.594-1.07.06.12.119.298.178.476.238.772.297 1.485.297 2.257.416-.356.772-.713 1.01-1.069.535.416 1.01.95 1.01 1.663h-.119c-.238-.06-.535-.119-.832-.119-.712 0-1.782 1.188-1.188 2.139l.179.297.178-.297c.237-.416 1.188-.713 2.138-.713.772 0 .713.297 1.01.832.178.297.594.89.594 1.188 0 1.128 1.188.475 1.307 1.425V50s.475-.535.534-.653c.357-.535.535-1.188.297-1.842.773-.475 1.129.594 1.367 1.07.178-.773.534-1.783-.179-2.436.476-.594.95.06 1.307.356v-.534c0-.95-1.128-1.604-1.544-1.604-.357 0-.832.475-1.663.475-1.426 0-1.782-.653-2.376-1.663-.238-.416-.357-.832-.476-1.129.476.12.95.179 1.426.238-.772-.772-1.426-1.663-2.079-2.554.475 0 .95 0 1.426-.06l-.594-.356c-1.248-.713-2.258-2.673-2.495-3.326 1.425-1.664 1.96-4.099 2.079-6.416.119.12.237.12.356.179 0 .118-.06 1.782.119 3.92.178 2.138.653 4.752 1.782 6.475.178.237.475.118.416-.179-.416-1.306-.535-2.97-.594-4.514.416 2.376 1.247 4.574 3.089 5.762.237.178.475-.06.297-.297-1.723-2.436-2.08-6.534-1.842-9.445l.238-.119c0 3.564.416 7.841 4.158 9.98.237.118.475-.06.297-.297-1.842-2.673-2.614-6.831-2.614-10.098l.238-.238c.119 5.287 1.544 9.148 4.93 10.454.238.12.416-.118.238-.356-2.08-2.376-2.911-5.643-3.149-8.672.654 3.029 2.198 6.712 4.99 7.425.238.059.416-.179.238-.357-1.604-1.782-2.495-4.455-2.97-6.771.772 2.138 2.079 4.455 4.158 5.524.237.119.415.178.534.237-3.386 8.673-11.761 14.85-21.562 14.85zm12.771-2.316c0 .475-.119.475-.535.416-.059 0-.178-.06-.118-.297v-.179c0-.178.118-.237.297-.178h.118c.12.06.238 0 .179.119l.059.119zm-2.792 1.485v.119c-.06.475-.178.415-.594.356-.06 0-.178-.06-.119-.297l.06-.178c0-.178.119-.238.356-.178.06 0 .06 0 .119.059.06 0 .178 0 .178.119zm-9.266 2.079l-.06.119c-.237.415-.356.356-.653.118-.178-.118-.297-.178-.119-.356l.119-.178c.06-.119.238-.119.356 0 .06.06.179.06.238.178.119 0 .178 0 .119.119zM15.55 49.108l-.119.06c-.416.178-.475 0-.534-.357 0-.06 0-.178.237-.238l.178-.059c.12-.06.238.06.297.238v.118c.06.12.06.179-.059.238zm-.832-.713H14.6c-.476.119-.476 0-.535-.416 0-.059 0-.178.238-.237h.178c.119-.06.237.06.297.237v.12c0 .177.06.296-.06.296zm-2.02-17.048c.535-.89.832-1.663.951-2.316.06-.178.119-.772.178-1.307.06-.119.12-.178.179-.297.059.238.118.416.237.594-.416 3.267-1.722 7.781-4.93 9.563 1.663-2.376 2.851-5.82 3.564-9.147.119-.06.178-.119.297-.178-.06.89-.297 2.435-.594 3.029-.06.06.06.119.119.06zm12.89-11.642c-.475-1.07-1.128-1.841-1.544-2.138.06-.297.119-.654 0-1.01.594.119 1.07.06 1.663 0-.178-.416-.415-.832-.712-1.188l-.06-.06c.416-.059.713-.118 1.01-.297.356.357 1.188 1.01 2.554 1.545-.237.06-.416.06-.594.06-.356 0-.89-.12-.89-.12.237.713.474 1.367.593 2.08-.475-.06-.89-.179-1.188-.298-.356-.118-.89-.415-.89-.415s0 .89.059 1.841zm-1.96-2.198c0 .06-.059.119-.059.178 0 .06-.06.12-.119.238-.416-.713-1.663-1.604-2.495-1.604-.118 0-.237-.06-.356-.178-.535-.535-.832-1.366-.832-2.079 1.129-.416 2.436-.713 2.911-.713.594 0 1.188.178 1.663.475l.06.06c.475.237.89.475 1.425.713-.713.356-1.307.297-2.02.237.476.416.832.832 1.189 1.366-.594.06-1.129-.118-1.664-.237.297.594.416 1.069.297 1.544zm-6.177-1.841c0 .178.06.416.119.594s.297.653.297.653l.237-.356c.119-.178.357-.297.594-.357 0 0 .238-.118.772-.118 0 .415-.415.653-.831.594.178.297.594.415.95.415.178 0 .416-.059.594-.118.297-.12.416-.12.713-.12.653 0 1.604.714 2.02 1.248-.594.416-1.367.713-2.198.713-2.08 0-3.742-1.663-3.742-3.742 0-2.08 1.663-3.742 3.742-3.742 1.485 0 2.732.831 3.326 2.02-.416-.179-.89-.298-1.425-.298-1.129-.119-5.168.891-5.168 2.614zm2.198-.119c-.238 0-.416.06-.594.06l-.179.059h-.118c-.297.06-.535.178-.773.356-.059-.119-.118-.297-.118-.416 0-.534.653-1.01 1.485-1.425.059.475.118.95.297 1.366zm6.415 3.148c.653.238 1.366.357 2.02.416-.06-.713-.238-1.366-.416-2.079h.356c.238.178.832.594 1.307 1.01.475.416 1.069.89 1.069.89.772-.593 1.544-1.306 2.376-1.84h.356c-.237.653-.356 1.366-.415 2.078.712-.059 1.366-.178 2.079-.415-.06.712-.06 2.376-.06 3.385 0 .535.06.773.772.773.95 0 1.901-.06 1.901 1.306v.95c0 .476.95.06 1.663-.237.773-.356 1.723-1.069 2.376-2.198.654-1.247 1.307-2.613 1.96-3.742.654-1.128 1.307-1.782 2.02-1.782.713 0 1.129.357 1.307 1.07-.178.356-.594.593-.95 0 .297 1.247-1.129 1.722-1.485.89.594 1.842.297 2.852-1.07 1.723.654 2.02-.475 2.079-.89 1.841.475 1.248-.595 2.198-1.13 1.664.535 1.247-1.247 2.376-1.722 1.247.06 1.485-1.069 2.02-1.663 1.129-.06.831-.416 1.069-.653 1.128v-3.564c0-.594-.535-.831-.832-.831h-2.673v-2.198l-2.02.831-1.247-2.91-1.07 2.732-2.019-.831v2.197h-2.673c-.356 0-.831.238-.831.832v3.564c-.238-.06-.594-.297-.654-1.129-.594.891-1.663.357-1.663-1.128-.475 1.128-2.257 0-1.723-1.248-.534.535-1.663-.415-1.128-1.663-.416.238-1.604.178-.891-1.841-1.426 1.069-1.723.06-1.07-1.723-.356.891-1.781.416-1.484-.89-.357.593-.773.356-.95 0 .177-.714.593-1.07 1.306-1.07.713 0 1.366.653 2.02 1.782.653 1.129 1.306 2.495 1.96 3.742.653 1.188 1.604 1.842 2.376 2.198.713.356 1.663.713 1.663.238v-.832c0-1.366.891-1.307 1.9-1.307.714 0 .773-.237.773-.772-.119-.95-.119-2.614-.178-3.386zm15.087-1.663c.416 0 .773-.119.95-.416-.356.06-.83-.178-.83-.594.534.06.771.119.771.119.238.06.476.178.594.356l.238.357s.238-.475.297-.654c.06-.178.119-.415.119-.594 0-1.663-3.98-2.732-5.287-2.732-.534 0-.95.119-1.425.297.653-1.188 1.9-2.02 3.326-2.02 2.079 0 3.742 1.664 3.742 3.743 0 2.079-1.663 3.742-3.742 3.742-.832 0-1.604-.238-2.198-.713.416-.535 1.366-1.247 2.02-1.247.356 0 .475 0 .713.118.297.179.534.238.712.238zm0-1.485c.179-.416.238-.891.297-1.307.832.357 1.485.832 1.485 1.426 0 .119-.059.237-.118.416-.238-.179-.476-.297-.773-.357h-.118l-.179-.06c-.178-.059-.356-.118-.594-.118zm-3.088-2.138c.534 0 1.841.237 2.91.712 0 .713-.297 1.545-.831 2.08-.12.118-.238.178-.357.178-.772 0-2.02.89-2.495 1.603-.059-.059-.059-.118-.118-.237 0-.06-.06-.119-.06-.178-.178-.535 0-.95.238-1.545-.535.119-1.129.238-1.663.238.356-.535.712-.95 1.188-1.366-.713.059-1.307.118-2.02-.238.475-.178.95-.475 1.426-.713l.059-.06c.594-.296 1.129-.474 1.723-.474zm-2.198 1.9c-.357.416-.594.832-.772 1.248.594.119 1.069.119 1.663 0-.06.416-.06.713 0 1.01-.416.297-1.07 1.069-1.545 2.138.06-.95.06-1.723.06-1.723s-.535.297-.891.416c-.297.119-.713.178-1.188.297.119-.713.356-1.425.594-2.079 0 0-.594.119-.891.119-.178 0-.357 0-.594-.06 1.366-.593 2.198-1.187 2.554-1.544.297.06.594.119 1.01.178zM48.22 31.288c-.297-.594-.535-2.079-.594-3.03.119.06.178.12.297.179.713 3.326 1.9 6.771 3.564 9.147-3.208-1.782-4.514-6.296-4.93-9.563.06-.178.178-.356.237-.594.06.119.12.238.179.297 0 .535.118 1.129.178 1.307.119.653.416 1.485.95 2.316.06.06.178 0 .119-.059zm-2.614-8.791c.06-.119.12-.297.179-.475.118.178.178.297.297.356.118 1.366.594 5.287.059 5.287-.772 0-1.07-3.505-1.07-4.693.12 0 .238 0 .357-.119.06.416.178 1.07.297 1.307 0-.178-.06-1.01-.119-1.663zm-.356 6.415c.119.95.356 2.435.772 3.326.06.12.178.06.119-.059-.238-1.01-.297-2.97-.297-3.861.119.06.178.06.297.06.06.653.178 2.197.535 3.92.415 2.138 1.188 4.633 2.613 6.534-2.91-1.485-4.217-7.01-4.336-9.564.119-.118.238-.237.297-.356zm1.604-2.732c-.178-.713-.535-2.733-.594-3.802l.178-.178c.06.416.178.89.297 1.188-.06-.238-.06-1.01-.119-1.604.119-.297.178-.713.238-1.129.119 1.604.356 3.743.772 6-.238.178-.653.06-.772-.475zm-2.91 3.088c.177.179.356.238.534.179-.06.772-.06 2.079.119 3.682.237 2.198.95 4.871 2.554 7.128-2.673-1.544-3.802-5.227-3.861-10.335.06-.06.06-.119.06-.238.059.654.237 1.663.474 2.851 0 .12.179.06.12 0 0-.594-.06-2.257 0-3.267zm.474-.831c-.772 0-1.069-2.495-1.128-3.564.119-.238.178-.416.178-.772.178 0 .178 0 .356-.06.06.297.12.772.357 1.307-.06-.297-.06-1.07-.06-1.544.179-.179.357-.416.476-.594.237 1.247.712 5.227-.179 5.227zm-6.237 4.811c0 .119.179.06.12 0 0-.594.059-1.544.177-2.138.12.06.179.119.297.119-.059.356-.118 1.603-.118 3.148 0 1.247.059 2.673.237 3.98-1.01-2.852-1.069-6.713-1.069-8.02.06.12.119.238.238.298-.06.594-.06 1.544.118 2.613zm.416-4.336c.06-.119.119-.356.178-.653.12.118.238.178.357.237 0 .297.06.535.178.95-.06-.237 0-.653.06-.89.178 0 .356-.12.534-.297.06 1.01.297 2.673-.475 2.673-.594-.06-.772-1.188-.832-2.02zm.891 2.495c0 .356 0 1.069.238 1.96 0 .119.178.06.119 0 0-.416 0-1.366.059-2.02.119 0 .238-.059.238-.059s-.179 1.604 0 3.623c.118 1.604.475 3.564 1.306 5.228-1.9-2.02-2.257-5.584-2.257-8.732h.297zm1.663-4.455l.357-.178c.119 1.069.475 3.504-.535 3.504-.534 0-.713-1.722-.713-2.792.06-.178.12-.415.12-.653.059.119.237.178.415.178 0 .357.06.95.178 1.307 0-.178.119-1.01.178-1.366zm.357 3.92c0 .654.119 1.663.356 2.792 0 .119.178.06.119 0-.119-.475.06-2.02.119-2.792.06.06.06.119.119.119 0 .535.059 1.841.237 3.445.238 1.842.772 4.04 1.901 6-2.792-2.198-3.089-6-3.089-9.326l.238-.238zm.237-4.277c.179-.118.357-.297.476-.534.059.416.118.89.237 1.069 0-.178.06-1.247.119-1.782.119.06.297.06.416 0 .06 1.188.237 4.158-.357 4.158-.712 0-.831-2.079-.89-2.91zm-4.99 14.256c.238.357.535.713.773 1.01-.653-.178-1.247-.416-1.841-.713-.06.832 0 1.248-.594 1.96-.06-.534-.179-1.128-.357-1.663-.178-.475-.178-1.128 0-1.247.178-.119.357.119.357.119-.12-.891 1.366.178 1.663.534zm-2.138-1.9c-.059-.06-.594-.535-.594-.535s.179.95.12 1.366c-.06.357-.12.713-.298 1.188-.178-1.128-.594-2.316-1.128-3.386.059 0 .118-.059.178-.059l.713 1.07-.357-1.248c.178-.119.357-.178.535-.297l.89 1.069-.534-1.366c.119-.119.238-.178.357-.297.297.713 1.069 2.138 2.02 2.97-.535-.06-1.308-.119-1.902-.475zm-1.96 11.523v.713l-1.01-.594-.653-6.534 1.663 6.415zm-1.069-6.534l2.554 6.534-.95-.297-1.604-6.237zm-1.723.06l-.653 6.534-1.01.594v-.713L29.865 44zm-2.257 6.177l-.95.297 2.554-6.534-1.604 6.237zm2.792-6l.653 6.535-.653 1.01-.594-1.01.594-6.534zm0-1.187l-.891-3.92.891 1.128.891-1.129-.891 3.92zm-4.217-4.04c-.535.357-1.367.476-2.02.476 1.01-.832 1.723-2.257 2.02-2.97.118.119.237.237.356.297l-.535 1.366.891-1.07c.179.12.357.238.535.298l-.356 1.247.712-1.069c.06 0 .12.06.179.06-.476 1.069-.891 2.257-1.129 3.385-.178-.416-.238-.831-.297-1.188-.06-.475.119-1.366.119-1.366s-.416.475-.475.535zm-.12 1.248c.179.119.179.772.06 1.247-.178.535-.297 1.129-.356 1.664-.594-.713-.535-1.129-.594-1.96-.594.296-1.188.534-1.842.712.238-.297.535-.653.773-1.01.237-.356 1.782-1.425 1.603-.534 0 0 .179-.238.357-.119zm6.06-3.326l-1.307-.95 1.307-.892 1.306.891-1.306.95zm-4.752-.891l1.306-.891 1.307.89-1.307.951-1.306-.95zm4.395-3.564l-1.366.89-1.307-.95 1.307-.95 1.366 1.01zm-.95-1.188l1.307-.95 1.306.95-1.306.95-1.307-.95zm.95 3.564l-1.366.89-1.307-.95 1.307-.95 1.366 1.01zm-3.089-2.673l-1.306-.95 1.306-.951 1.307.95-1.307.95zm-.356.297l-1.307.95-1.366-.95 1.307-.95 1.366.95zm.356.237l1.307.95-1.307.951-1.306-.95 1.306-.95zm.416 4.515l1.307-.95 1.307.95-.535.356c-.237.06-.534.06-.831.06-.297 0-.594 0-.832-.06l-.416-.356zm1.723-3.564l1.307-.95 1.306.95-1.306.95-1.307-.95zm1.722-1.188l1.307-.95 1.307.95-1.307.95-1.307-.95zm0-2.376l1.307-.95 1.307.95-1.307.95-1.307-.95zm-.415-.297l-1.188-.832h2.435l-1.247.832zm-.357.297l-1.366.89-1.307-.95 1.307-.95 1.366 1.01zm-3.089-.297l-1.188-.832h2.436l-1.248.832zm-.356.297l-1.307.95-1.366-.95 1.307-.95 1.366.95zm-3.089-.297l-1.01-.713v-.119h2.258l-1.248.832zm-.356.297l-.535.415c0-.297-.06-.534-.06-.831l.595.416zm.356.237l1.307.95-1.307.951-.772-.594c-.06-.238-.06-.475-.119-.653l.891-.654zm0 2.376l1.307.95-1.247.892c-.238-.476-.416-.95-.594-1.426l.534-.416zm1.723 1.188l1.307.95-1.307.951-1.307-.95 1.307-.95zm3.445 5.643l-.832-1.544c.238 0 .535.06.832.06.297 0 .535 0 .832-.06l-.832 1.544zm3.445-3.801l-1.307-.95 1.307-.951 1.307.95-1.307.95zm.416-2.08l1.307-.95.475.357c-.178.534-.356 1.01-.535 1.425l-1.247-.831zm1.307-1.484l-1.307-.95 1.307-.951.89.594c0 .237-.059.475-.118.653l-.772.654zm.416-2.08l.594-.415c0 .297 0 .534-.06.831l-.534-.415zm-.416-.296l-1.188-.832h2.257v.119l-1.07.713zm-11.346-1.248V24.16c0-.297.238-.416.416-.416h11.524c.178 0 .416.119.416.416v4.336H24.222zm8.851-5.227h-5.287v-1.544l1.842.772.772-2.08.772 2.08 1.842-.772v1.544h.059zm-14.79 11.108c.237-1.604.237-2.91.237-3.445.06-.06.119-.06.119-.12.119.832.237 2.377.119 2.793 0 .118.118.118.118 0 .238-1.129.357-2.139.357-2.792l.178.178c0 3.326-.297 7.187-3.089 9.326 1.188-1.901 1.723-4.099 1.96-5.94zm-.06-4.871c-.594 0-.475-2.97-.356-4.158.118.06.237.06.415 0 .06.594.12 1.604.12 1.782.118-.238.177-.713.237-1.07.119.179.297.357.475.535-.119.832-.238 2.911-.891 2.911zm1.07-2.732l.356.178c.059.356.178 1.188.178 1.366.119-.356.178-.95.178-1.307.178 0 .356-.06.416-.178 0 .238.06.416.119.653-.06 1.07-.179 2.792-.713 2.792-1.01 0-.594-2.435-.535-3.504zm1.306 4.514s.119.06.238.06c.059.653.118 1.603.059 2.019 0 .119.119.119.119 0 .237-.832.237-1.544.237-1.96.12 0 .179-.06.297-.06 0 3.149-.356 6.713-2.257 8.732.832-1.663 1.129-3.564 1.248-5.227.237-2.02.059-3.564.059-3.564zm.832-.416c-.773 0-.535-1.722-.476-2.673.12.178.297.297.535.297.06.238.06.654.06.891.178-.416.178-.713.178-.95.118-.06.237-.119.356-.238.06.297.119.475.178.654-.119.89-.297 2.02-.831 2.02zm.772 3.505c0-1.545-.119-2.851-.119-3.148.06 0 .178-.06.297-.12.06.595.178 1.545.178 2.14 0 .118.119.118.119 0 .178-1.07.238-2.02.178-2.614.06-.12.178-.179.238-.297 0 1.366-.06 5.167-1.07 8.019.12-1.307.179-2.792.179-3.98zm-5.88-4.871c.177 0 .356-.06.534-.178.06 1.01-.06 2.673-.119 3.267 0 .119.119.119.119 0 .297-1.188.416-2.139.475-2.851 0 .059.06.118.06.237 0 5.109-1.189 8.791-3.862 10.336 1.604-2.198 2.317-4.93 2.555-7.128.297-1.604.297-2.91.237-3.683zm.059-1.07c-.891 0-.416-3.979-.179-5.286.12.178.297.416.476.594 0 .475 0 1.248-.06 1.545.178-.535.297-1.01.357-1.307.118.06.178.119.356.06.06.356.119.534.178.771-.06 1.129-.297 3.624-1.128 3.624zm-.95-5.583c.118.119.237.119.356.119-.06 1.129-.297 4.693-1.07 4.693-.594 0-.118-3.92.06-5.287.06-.06.178-.178.297-.356.06.178.119.356.178.475 0 .653-.06 1.485-.06 1.663.06-.238.179-.891.238-1.307zm-.773 5.524c.06 0 .178 0 .297-.059 0 .891-.06 2.792-.297 3.861 0 .119.119.119.119.06.475-.892.653-2.377.772-3.327.06.119.178.297.297.356-.119 2.555-1.366 8.079-4.336 9.564 1.366-1.842 2.198-4.396 2.613-6.534.357-1.723.476-3.208.535-3.92zm-.416-6.593c-.06.535-.06 1.366-.119 1.604.12-.297.238-.772.297-1.188.06.06.12.178.179.178-.06 1.07-.416 3.089-.594 3.802-.12.534-.476.653-.713.475.416-2.257.653-4.396.772-6 0 .416.06.832.178 1.129zm37.125 19.84c.06 0 .06-.06.119-.06.119 0 .178-.119.238 0l.059.119c.238.416.119.475-.238.594-.059.06-.178.06-.297-.178l-.059-.178c-.06-.06 0-.179.178-.297zm.416-.535s-.06-.119-.06-.178c-.059-.119-.059-.238.12-.357.059-.059 0-.059.118-.059.119 0 .178-.119.238 0l.06.119c.237.356.177.416-.179.653-.119.06-.178.06-.297-.178zm.297-3.505c-3.683-4.87-4.87-14.909-4.87-18.473 0-1.426-.417-2.495-1.842-2.495-.95 0-1.723.95-2.376 2.02-.654 1.128-1.307 2.554-1.96 3.742-.654 1.188-1.782 2.02-3.09 2.376l-.118.06v-.654c0-1.663-1.129-1.723-2.317-1.723-.118 0-.237 0-.297-.059v-.297c0-2.138 1.248-3.623 1.782-4.099.179.297.416.594.713.891v-.475c.654.475 1.485.713 2.376.713 2.317 0 4.218-1.9 4.218-4.217 0-2.317-1.901-4.218-4.218-4.218-1.841 0-3.326 1.129-3.92 2.733-.535.297-1.07.594-1.723.831l-.356.119c.178.119.297.238.475.356-.891.832-2.495 1.485-3.623 1.901.415.119.831.238 1.306.357-.594.415-1.188.89-1.722 1.366-.594-.475-1.129-.95-1.723-1.366.416-.06.832-.179 1.307-.357-1.129-.416-2.732-1.01-3.623-1.9.118-.12.297-.238.475-.357l-.357-.119c-.594-.237-1.128-.534-1.722-.831-.594-1.604-2.139-2.733-3.92-2.733-2.317 0-4.218 1.901-4.218 4.218 0 2.316 1.9 4.217 4.217 4.217.891 0 1.723-.297 2.376-.713v.475c.297-.297.535-.594.713-.89.535.475 1.782 1.96 1.782 4.098v.297c-.119.06-.237.06-.297.06-1.188 0-2.316.059-2.316 1.722v.653l-.12-.059c-1.306-.356-2.435-1.188-3.088-2.376-.891-1.188-1.485-2.614-2.138-3.742-.654-1.07-1.426-2.02-2.376-2.02-1.426 0-1.842 1.01-1.842 2.495 0 3.564-1.188 13.662-4.87 18.533-.832-2.376-1.248-4.871-1.248-7.544 0-12.652 10.276-22.928 22.928-22.928 12.653 0 22.929 10.276 22.929 22.928-.06 2.614-.475 5.168-1.307 7.484zM5.155 22.675c.238.06 1.07.297 1.247.297.179.06.297.06.416-.119.119-.178.119-.416.297-.356.238.06.238.356.357.475.118.119.178.119.118.297-.059.178-.415.416-.475.594-.06.119-.297.06-.416 0-.178-.06-.237-.06-.356-.06s-1.307-.296-1.426-.415c-.118-.119-.415-.772-.594-1.01-.178-.238-.118-.416 0-.475.12-.06.238-.06.297-.238.06-.178.12-.237.179-.178.059 0 .178.178.237.297.06.119 0 .416-.06.535 0 .118-.059.297.179.356zm8.97-11.464l-.773.772c-.119.178-.119-.416-.119-.475 0-.119.06-.178.12-.238.059-.06.593-.475.712-.653.119-.119.119.178.119.297.06.06.119.178-.06.297zm39.857 7.247c-.178.059-.178.059-.297-.12-.06-.118-.06-.177.06-.237.118-.119.296-.119.474-.178.297-.06.594.356.773.535.237.297.059.653-.06.95-.119.238-.297.416-.534.475-.357.119-.654.357-.95.475-.179.06-.12.12-.06.179.237.118.178.356 0 .475s-.713-.119-.891-.297c-.238-.178 0-.594.06-.832-.12-.119-.654-.06-.654-.416 0-.118 0-.356-.06-.534-.059-.178 0-.297.179-.297h.118c.179-.06.357-.178.535-.297.178-.06.416-.06.594 0 .238.06.475.178.653.416 0 .059.06.059.06.118.06.06.119.12.237.179.12.059.179-.06.179-.179v-.297c-.06-.178-.12-.237-.416-.118zm-1.248-3.92c.12-.298.357-.417.416-.417.06.06.416.357.475.416.12.119-.356.475-.772.891-.237.238-.356.297-.416.416-.059.06.12.119.179.178.118.06.237.06.415.119.179 0 .238.06.357.119.119.06.119.06.119.178v.535c0 .118-.179.297-.416.356-.178.119-.832.475-1.01.653-.178.238 0 .297-.119.416-.06.06-.178.06-.297 0s-.297 0-.475-.119c-.178-.118-.06-.356 0-.534.06-.178.238-.297.356-.357.12-.059.891-.534 1.01-.712.119-.179.119-.297 0-.416s-.416-.178-.534-.178c-.12.059-.654.297-.713.475-.119.119-.06.297 0 .356.06.119-.06.178-.178.178h-.535c-.119 0-.178-.178-.178-.237 0-.119.119-.654.178-.772.06-.12.178-.12.297-.12.119-.059.772-.415.891-.474 0-.179.891-.832.95-.95zm-.831-1.07c.297 0 .416.178.416.297s-.12.238 0 .416c.118.178.118.237.059.297-.06.06-.238.06-.356 0-.12-.06-.297-.238-.416-.357-.06-.178-.178-.297-.357-.118-.178.178-.831.653-1.01.831-.178.119-.237.238-.178.416.06.178.238.356.06.475-.238.178-.416 0-.594 0s-.238.06-.297-.06c-.119-.118-.119-.593-.178-.712-.06-.178.118-.297.237-.356.119-.06.178-.179.297-.238.06-.06 1.01-.891 1.188-.891.119-.119.832.06 1.129 0zm-1.663-1.841c.178 0 .297 0 .534-.06.178-.06.475.06.654.119.178.06.415.416.415.653 0 .179-.534-.059-.772-.059-.297-.06-.475 0-.653.178l-1.723 1.723c-.237.237-.416.178-.534.06l-.238-.238c-.178-.12-.06-.238.178-.416s1.545-1.485 1.723-1.604c.119-.119.237-.356.416-.356zm-2.911-2.02c-.06-.119.119-.178.178-.178h.654c.059.06.297.178.178.416-.119.297-.238.237-.297.297-.06.118.119.118.237.118h.773c.118 0 .118.06.118.12 0 .059.12.415.12.534 0 .119-.12.356-.298.475s-.95.95-1.069 1.188.06.297 0 .416c0 .06-.178.119-.297.06-.119 0-.297.059-.475 0-.178-.06-.178-.357-.178-.535 0-.179.118-.357.237-.476.119-.059.95-1.01 1.07-1.247.118-.178.059-.297-.12-.356-.118-.06-.475-.06-.534 0-.119.059-.772.772-.891.95-.06.178.06.297.119.356.06.12 0 .179-.119.179s-.416.118-.535.118c-.118.06-.237-.118-.237-.178 0-.119-.06-.653-.06-.772s.12-.119.238-.238c.119-.059.891-.89 1.01-1.01.237 0 .237-.118.178-.237zm-.238-.772c-.059.119-.237.534-.297.653-.059.178-.118.178-.297.238-.178.06-.653.119-1.128-.06-.416-.178-.357.416-.178.594.118.12.415.416.059.476-.06 0-.178 0-.297.059l-.119.06c-.178.059-.297 0-.475-.12-.119-.059-.178-.118-.238-.237-.118-.178-.118-.475 0-.653.06-.179.713-1.188.891-1.367.179-.178.535-.297.773-.297.178 0 1.01.06 1.188.12.237.059.237.356.118.534zm-1.603-2.08c.178 0 .534.298.594.476.059.178-.476.119-.773.119-.297.06-.475.119-.534.356-.06.119-.178.594-.416 1.07-.238.415-.713.89-.772 1.01-.178.296-.357.296-.475.177-.238-.059-.238-.059-.416-.118-.178-.06-.06-.179.06-.476.059-.118.534-.594.83-1.01.298-.475.357-.89.417-.95.118-.178.178-.416.356-.475.178-.06.297-.06.475-.178.178-.06.475-.06.654 0zm-2.614-.593c.178-.06.297-.119.475-.178.178-.12.475-.12.654-.06.178 0 .534.297.653.475.06.179-.475.12-.772.179-.297.059-.475.178-.535.356-.06.119-.237.772-.475 1.188-.238.535-.535.832-.594 1.01-.178.297-.297.297-.475.237-.178-.059-.119-.059-.297-.178-.178-.06-.119-.178.06-.475.059-.119.474-.416.712-.95.238-.416.297-1.07.356-1.129.06-.119.12-.416.238-.475zm-1.188-1.426s.178-.06.238-.119c.118-.059.237 0 .297.179 0 .059.118.178.118.237 0 .119.12.178 0 .238l-.059.06c-.416.237-.475.118-.594-.238-.119-.179-.238-.297 0-.357zM40.439 7.35l.178-.06c.06-.059.534-1.01.534-1.128l-.059-.06-.06-.059c-.118-.06-.118-.238.06-.297.356-.119.535-.535.772.119.119.356.297.356 0 .653-.119.119-.416.594-.594.832-.119.237-.119.416 0 .534.06.12.119.238 0 .297l-.119.06c-.475.297-.534.119-.772-.297-.119-.178-.237-.475.06-.594zm-3.564-1.188l.118-.119c0-.06.12-.416.12-.653 0-.06.059-.654.059-.713l-.06-.06c-.119-.059-.178-.237-.06-.356.179-.119.298-.535.595-.297l.06.06.059.059.059.06c.238.296.416.237.178.593-.119.178-.297.891-.356 1.129-.06.237 0 .416.237.534l.06-.059s.06 0 .06-.06c0-.059.118-.415.177-.653 0-.06.179-.653.179-.713 0 0 0-.059-.06-.059-.119-.06-.178-.297 0-.356.178-.12.357-.476.594-.179l.06.06.059.06.06.059c.118.178.237.297.237.356l.06-.06c.296.06.534-.237.712.06l.06.06c0 .059.059.059.059.059v.06s0 .059.06.118c.118.178-.12 1.188-.298 1.426-.178.297-1.128 1.722-1.366.712-.178 0-.416.12-.534-.059-.06-.119-.179-.238-.238-.356-.06 0-.119.059-.238.059-.356.119-.356 0-.594-.238-.118-.118-.356-.356-.118-.534zm-1.545.06c0-.06.06-.12.06-.179.059-.297.415-2.198.415-2.317v-.178c0-.237.179-.178.238-.237.119-.06.653-.594.653-.12v.298c0 .06-.118.475-.237.831-.06.12-.357 1.485-.357 1.723 0 .297.416.238.297.535-.059.059-.118.118-.178.237-.178.178-.416.119-.534 0l-.12-.06c-.059-.059-.237-.118-.296-.177-.06-.179 0-.297.06-.357zm-2.91-.476l.059-.119c.06-.178.06-.416.119-.594 0-.178.178-.297.356-.475s.475-.238.713-.238h.119c.06 0 .178 0 .297-.059.119-.06 0-.119-.06-.178l-.178-.119c-.178-.119-.237-.238-.297.06-.06.178-.119.356-.356.296-.119 0-.178-.118-.178-.178 0-.178.118-.475.178-.653.119-.238.653-.238.89-.238.417 0 .535.357.714.654.118.237.118.475.059.712-.119.357-.119.713-.238 1.07-.059.178 0 .178.12.178.237-.119.415.06.356.297-.06.237-.535.475-.773.534-.297.06-.475-.356-.594-.534-.178.06-.475.475-.712.237-.06-.059-.238-.237-.476-.237-.178-.119-.178-.238-.118-.416zM31.053 2.42l.179-.179c.118-.118.237-.118.356.06.06.06.178.119.178.178.06.119.178.119.06.238l-.06.059c-.297.356-.356.297-.653 0-.119-.119-.238-.178-.06-.356zm-.178 1.128c.297-.237.297-.713.772-.178.238.297.416.238.238.653-.06.12-.178.713-.238 1.01 0 .297.06.475.238.535.119.06.178.178.119.297l-.06.119c-.356.415-.475.356-.831 0-.178-.179-.416-.357-.178-.594l.118-.12c0-.118.12-1.187.06-1.187h-.119c-.178-.178-.297-.416-.119-.535zm-1.782 2.376c.357.119.535-.178.535-.416 0-.237-.178-.297-.357-.237-.178.06-.356-.119-.534-.178-.178-.06.06-.238.119-.357s.356-.475.534-.831c.119-.357-.178-.179-.594-.179s-.297-.118-.237-.356c.059-.178.059-.238.237-.238s1.01-.118 1.485-.178c.357 0 .119.297.06.416-.06.119-.357.356-.594 1.01-.238.594.118-.06.534.772.416.832 0 .832-.119 1.07-.118.237-.475.356-.712.356-.238 0-.357.059-.535-.12-.178-.118-.416-.177-.475-.534-.119-.297.356-.06.653 0zm-3.03-1.366c.06-.06.654-.832.773-1.01.06-.178.238-.297.356-.178.12.06.416.238.476.297.118.06.118.238.178.356.06.12.06.95.119 1.188s.118.238 0 .357c-.12.06-.594.594-.654.713-.06.118-.119.237-.297.237-.178-.06-.534-.297-.653-.297s-.178-.119-.178-.237c0-.12-.06-.891-.12-1.129-.118-.178-.059-.238 0-.297zm-2.97-.832c.298-.356.417-.831 1.07-.712.356.059.95.059.713.653 0 .06-.06.119-.06.238-.059.237-.059.415-.297.534h-.059c-.238.119-.356-.178-.178-.297.06-.119 0-.178.06-.237h-.06c-.119-.06-.475-.238-.535-.12 0 0 0 .06-.06.06v.06c-.059.059-.118.118-.059.237.06.119.238.832.297.891.06 0 .12-.06.12-.06l.118-.059c.178-.118.475-.178.594-.178.178 0 .297.06.356.238.06.119.238.713.297.831.12.179.06.416-.059.594-.416.357-.475 1.01-1.129.891-.237-.059-.653 0-.772-.059-.237-.119 0-.416.06-.535.237-.594.89.179 1.069-.297l.06-.118c.059-.12-.06-.535-.179-.594-.238-.179-.178-.297-.356 0-.179.178-.357.237-.594.118-.12-.118-.238-.118-.297-.356l-.357-1.07c-.06-.415.119-.474.238-.653zm-3.86.95c0-.118.119-.118.178-.118h.297c.238.06.891.297 1.07.297.177 0 .296.119.415.356.119.238.594 1.01.713 1.188.178.238.06.357-.06.535-.059.119-.534.832-.594.95-.118.12-.237.238-.475.179-.416-.06-.831.118-.831-.476 0-.237-.06-.356-.179-.534-.118-.178-.237-.357-.297-.475-.059-.179-.059-.297.06-.416l.178-.178c.178-.179.356-.179.416.059.06.178.416.95.594 1.188.06.178.178.06.297 0 .297-.178.237-.119.178-.475-.06-.238-.297-.772-.416-1.01-.178-.238-.237-.297-.416-.356-.178-.06-.534-.12-1.069-.179-.475.06-.119-.356-.06-.534zm-2.97 2.674c.119-.178.416-.832.653-.475l.06.059.059.06c.06.059.238.296.297.178.06-.12.119-.297.238-.416.059-.178.178-.357.237-.475.06-.12.178-.06.297-.06.06 0 .475.119.654.475.059.179.415.773.534.891.06.12.238.297.416.297.119 0 .356 0 .297.179v.178c0 .237-.535.475-.713.475-.297.06-.475-.297-.475-.356 0-.06-.535-1.07-.713-1.367-.119-.178-.178-.059-.237.06-.06.119-.238.416-.297.534v.12c.059.118.118.177.178.296s.119.178.178.238c.06.06.238.416.297.416.356 0 .297.356.119.534l-.178.119c-.238.238-.476.356-.713 0l-.06-.119c-.059-.06-.712-1.247-.772-1.307-.06-.297-.653.06-.356-.534zm-2.614 1.9c0-.475.297-.534.654-.415.178.06.297.119.415.119.238.059.179.178.238.297.06.059.713 1.01.772 1.01l.06-.06h.059c.119-.06.178-.119.238-.297.059-.356-.06-.416-.238-.713-.119-.178-.238-.356-.297-.416-.178-.237-.297.297-.594.06-.119-.06-.119-.238-.06-.297.179-.119 0-.535.238-.594h.238c.119 0 .297 0 .416.06.178 0 .237.237.356.356l.297.415c.178.297.356.594.713.654.237 0 .237.178.237.297 0 .237-.415.653-.653.475-.06-.06-.06-.119-.178 0-.119.119-.238.238-.238.416s.06.297-.119.356c-.237.119-.475.119-.712.178-.297.06-.297-.297-.357-.475-.06-.119-.653-.89-.713-1.01-.178-.237-.712.06-.712-.356l-.06-.06zm-.95 1.545c0-.119.06-.178.119-.238.059-.059.594-.475.712-.653.12-.119.12.178.12.297s.059.238-.12.297l-.772.772c-.06.178-.06-.356-.06-.475zm-2.02 1.604c.06-.178.238-.654.238-.832.06-.178.119-.237.237-.297.12-.06.297-.237.535-.297.178-.119.238 0 .238.178-.06.238-.06.357-.12.416-.059.119-.237.178-.474.297-.238.119-.179.297-.06.416.06.119.238.356.475.416.238.119.297-.535.297-.772 0-.179.357-.12.535-.179.119 0 .238 0 .297.179.06.118.416.415.594.475s.06.178 0 .356-.119.416-.238.713c-.059.297-.772.475-.95.594-.178.119 0-.297-.06-.475 0-.178.595-.475.713-.535.12-.06-.118-.356-.237-.475s-.357-.06-.475 0c-.12.06-.06.475-.12.653-.059.179-.296.12-.415.179-.178.059-.594-.535-.772-.654-.357.06-.297-.178-.238-.356zm-1.425.475c.237-.06.415.178.712.416.12-.06.179-.178.297-.178.297-.06.773.356.476.415h-.179c-.059 0-.118.12-.178.179.06.118.654.653.832.772.237.119.416-.238.594 0 .06.06.06.178.119.237.059.179-.06.357-.179.416-.118.06-.297.119-.415.238-.238.178-.297-.119-.476-.238-.178-.119-.712-.653-1.069-.95-.297.178-.475.534-.534.178 0-.178.118-.356.118-.356v-.179c-.059-.059-.95-.653-.95-.712 0-.179.356-.179.832-.238zM7.59 14.121c0-.178.297-.534.535-.594.178-.059.119.476.119.773 0 .178.06.297.178.415.119-.118.178-.237.178-.297.119-.178.178-.534.297-.178.119.357.238.654.06.772.178.06.415.179.594.297.415.238.95.654 1.069.773.297.178.297.356.178.534-.119.178 0 0-.119.238-.06.178-.178.06-.416-.06-.118-.059-.594-.534-1.01-.831-.356-.238-.653-.357-.831-.416-.238.178-.535.535-.594.356-.06-.237-.297-.118.06-.534-.06 0-.06-.06-.12-.119-.059-.178-.059-.297-.178-.475v-.654zm-.89 2.733c.118-.357.534-.416.831-.475.297-.06.475.059.653.178.297.237.654.356.95.534.179.12.179.06.179-.059 0-.238.178-.356.416-.238.178.12.297.654.237.891-.059.297-.475.357-.712.416 0 .178.297.594 0 .772-.12.06-.297.179-.416.357s-.238.178-.357.06l-.059-.06c-.119-.119-.356-.178-.535-.297-.178-.119-.237-.297-.356-.535-.119-.237-.119-.534 0-.772 0-.06.06-.06.06-.119 0-.06.059-.178 0-.297 0-.178-.179-.119-.238-.06l-.238.12c-.178.118-.237.178.06.356.178.119.118.119.059.356-.06.12-.119.12-.238.12-.178-.06-.297-.179-.415-.298-.12-.237.059-.772.118-.95zM4.263 20.18c.06-.178.594.06 1.129.178.297.06.475.12.594.179.118 0 .059-.179.059-.297 0-.12-.06-.238-.119-.416-.06-.178-.06-.238-.119-.357 0-.118 0-.118.06-.178s.356-.237.475-.297.356 0 .535.119c.178.119.831.475 1.128.475.238.06.238-.178.416-.119.06 0 .119.12.178.238 0 .119.178.238.119.475 0 .238-.297.238-.475.297-.178.06-.416 0-.535-.119-.119-.118-.89-.415-1.128-.475-.238 0-.297.06-.357.178 0 .179.06.476.178.535.12.06.594.356.773.356.178 0 .237-.118.297-.178.059-.06.178-.06.237.06.06.118.238.415.297.475.06.06-.06.237-.119.297-.118.06-.594.237-.772.297-.119.06-.178-.06-.297-.178-.119-.06-.772-.416-.89-.476-.12-.059-1.07-.475-1.248-.415-.297.059-.535-.06-.535-.12 0 0 .119-.474.119-.534zm-.713 2.733c.178-.12.238.475.357.712.118.238.237.416.475.416.237.06 2.02.475 2.376.535.356.06.356.237.356.416-.06.178-.06.178-.06.356s-.177.119-.474.06c-.297-.06-2.08-.535-2.258-.595-.178-.059-.475-.059-.534-.178-.06-.119-.178-.297-.297-.416-.119-.118-.178-.415-.238-.594 0-.178.178-.594.297-.712zm-.119 2.85c.238-.177.476-.059.832-.059.06-.118.06-.237.119-.297.237-.237.831-.118.653.12l-.06.059h-.059c-.059.059-.059.178-.059.237.119.06.891.238 1.129.238.297 0 .237-.416.534-.297.06.06.178.119.238.178.178.119.178.297.06.475-.06.119-.179.238-.238.416-.12.238-.297.06-.535 0-.238-.06-.95-.178-1.426-.238-.118.297-.118.713-.356.416-.119-.178-.119-.356-.119-.356-.06-.06-.06-.119-.06-.178-.059-.06-1.128 0-1.187-.06-.119-.178.178-.356.534-.653zm2.733 2.733c0 .06-.06.178-.178.178h-.06c-.178.06-.119-.178-.297-.178h-.06c-.415 0-.83-.119-1.187-.06h-.06c-.178.06-.297.06-.415.179-.179.119-.238-.119-.297-.297-.12-.178.059-.238.118-.297.06-.06.06-.119.12-.238l-.12-.059c-.178-.297-.059-.297.12-.594.118-.119.356.06.356.238v.178c0 .119 0 .178-.06.237 0 0 .06.06.119.06.119 0 1.07.06 1.247.06.357 0 .238-.357.535-.417.178 0 .178.238.238.297.059.06.118.12.178.238.178.178-.297.297-.297.475zm.06 1.485c-.179.178-.357.416-.595.178l-.119-.118c-.118 0-1.188-.12-1.188-.06v.119c-.059.119-.237.238-.356.06-.238-.298-.713-.298-.178-.773.297-.237.237-.416.594-.237.119.059.713.178 1.01.237.297 0 .475-.06.534-.237.06-.12.178-.179.297-.12l.119.06c.297.416.238.535-.119.891zm-3.505.06l-.12-.06c-.415-.178-.356-.297-.118-.653.119-.178.119-.297.356-.178l.179.118c.118.06.178.179.059.357-.06.06-.06.178-.119.237-.119.12-.119.238-.237.179zm.653 3.98v-.357c.119-.356 0-.475.416-.475.178 0 1.485-.238 1.722-.297.238-.06.476-.178.416-.416h-.119c-.059 0-.415.119-.653.178-.06 0-1.307.178-1.366.238v.119c0 .118-.178.297-.297.178-.178-.119-.594-.06-.475-.416v-.119c0-.06 0-.06.059-.119l.06-.118c.118-.238.118-.357.178-.416 0 0-.06 0-.06-.06-.178-.118-.594-.178-.416-.475l.06-.119c0-.059.06-.059.06-.059s.059-.06.059-.119c.118-.237 1.247-.534 1.544-.594.713-.06 2.495.06 1.841.832.12.119.357.297.238.475-.06.119-.119.297-.178.416.06.06.119.119.178.119.297.237.238.297.119.653-.06.238-.178.535-.475.416 0 0-.238 0-.297.06-.06 0-.297.059-.535.177-.06 0-1.247.297-1.307.357v.119c0 .118-.119.297-.297.237-.119-.178-.534-.06-.475-.416zm1.544 1.484l.297-.95.297.95h.95l-.771.594.297.95-.773-.593-.772.594.297-.95-.772-.595h.95zm-.712 4.277c-.06-.178 0-.06-.12-.178-.118-.178.06-.238.298-.356.119-.06.772-.179 1.247-.416.357-.178.654-.416.772-.475-.059-.297-.178-.713 0-.654.238.06.297-.178.416.297.06 0 .119-.06.178 0 .179.06.297.119.476.119.178 0 .415.178.534.297.119.119.297.535.238.713-.06.178-.475-.178-.713-.297-.178-.06-.297-.119-.475-.119l.178.356c.119.179.356.416 0 .297-.356-.118-.713-.178-.713-.356-.178.119-.356.238-.594.356-.416.238-1.069.416-1.188.535-.356.119-.475 0-.534-.119zm1.841 1.901c-.119-.119-.653-.06-.594-.356 0-.12 0-.297-.06-.476-.059-.178 0-.237.12-.297h.118c.178-.059.297-.178.475-.237.179-.06.357-.06.594 0 .238.06.476.178.594.356 0 .06.06.06.06.119.06.06.119.119.237.178.12.06.179-.06.179-.178v-.238c0-.178-.06-.237-.297-.118-.179.059-.179.059-.297-.12-.06-.118-.06-.177.059-.237.119-.119.297-.119.416-.178.237-.06.594.356.713.475.237.297.059.594-.06.891-.119.238-.297.357-.475.475-.297.12-.594.357-.891.476-.178.059-.119.118-.06.178.238.119.179.356 0 .416-.237-.06-.712-.238-.89-.357-.238-.237 0-.594.059-.772zm1.366 3.326c-.178 0-.178-.059-.178-.178 0-.06-.06-.237-.06-.416 0-.178.357-.534.535-.594.178-.059.297-.415.238-.475-.06-.06-.475.06-.713.178-.178.179.06.357-.238.476-.118.059-.178 0-.297 0-.237 0-.297-.12-.297-.297v-.12c0-.118-.059-.296-.059-.356 0-.118.119-.118.238-.178.059 0 .118-.06.178-.06.297-.177 1.9-1.128 2.02-1.247.059 0 .059-.059.059-.059l.06-.06c.177-.178.237 0 .356.06.118.06.89.119.534.416-.06.06-.119.06-.119.119l-.118.059c-.06.06-.416.238-.773.416-.118.06-.178.297-.178.416-.06.178.178.178.357.118.178-.059.356 0 .475-.118.119-.12.237-.06.297.059 0 .119.119.178.178.356.06.179-.06.179-.238.179-.118 0-.237.059-.475.178-.237.119-.416.119-.653-.06-.297-.178-.297.357-.416.476-.119.118-.119.415-.119.594-.119.118-.416.118-.594.118zm1.723 2.376c-.238 0-.594-.415-.416-.653.06-.06.119-.06 0-.178-.119-.119-.238-.238-.356-.297-.179-.06-.238 0-.357-.178-.06-.238-.119-.476-.119-.713-.059-.297.297-.238.476-.297.118-.06.89-.535 1.01-.654.237-.178 0-.712.356-.653h.06c.415.06.474.297.356.653-.06.12-.12.297-.179.357-.059.178-.178.178-.297.237-.059.06-1.01.594-1.01.654l.06.06v.059c.06.178.119.178.297.237.297.06.416 0 .653-.178.179-.119.357-.238.416-.238.238-.118-.237-.297-.06-.534.06-.06.238-.119.298 0 .119.178.475 0 .534.297v.178c0 .119-.059.297-.059.356-.06.179-.238.238-.356.297l-.416.238c-.297.178-.594.297-.654.653.06.297-.118.297-.237.297zm1.247.476c-.178.237.178.475-.119.594-.118.059-.237.059-.297.059-.237.06-.356-.178-.415-.356v-.12c0-.118-.12-.296-.12-.356 0-.118.12-.118.238-.178.06 0 .12-.06.179-.119.237-.178 1.722-1.366 1.841-1.485l.06-.059.059-.06c.178-.178.237-.059.356 0 .119 0 .891 0 .594.357l-.119.119-.118.06c-.06.059-.416.237-.713.474-.178.12-1.307.95-1.426 1.07zm1.129 1.96c-.06.06-.178.06-.238.06-.178.059-.356-.06-.416-.179-.059-.119-.118-.297-.178-.475-.119-.238.119-.297.297-.416.178-.178.713-.653 1.01-1.01-.178-.297-.238-.06-.416-.356-.119-.178.475-.297.475-.297.06 0 .297.237.357.297.06-.06.713-.891.772-.891.238 0 .178.297.238.831 0 .238-.238.416-.476.713.06.119.476.297.476.357-.06.178-.179.297-.476.297-.059 0-.415-.238-.475-.297-.119.059-.713.594-.831.772-.238.237.118.475-.12.594zm1.663 1.96c-.297-.06-.238-.475-.297-.713-.119-.06-.594.238-.713-.06-.06-.118-.119-.296-.297-.415-.119-.119-.119-.238 0-.356l.06-.06c.118-.119.237-.297.297-.416.118-.118.297-.178.534-.237.238-.06.475 0 .713.119.06 0 .06.059.119.059.06.06.119.06.297.06.119 0 .119-.12.119-.238l-.06-.238c-.06-.178-.178-.237-.356 0-.119.119-.119.119-.297 0-.06-.06-.119-.119-.06-.237.06-.12.179-.238.297-.357.238-.178.654.06.832.119.356.119.297.535.356.832 0 .237-.118.475-.237.594-.238.237-.357.534-.594.831-.119.119-.06.178 0 .178.237 0 .297.238.178.416-.178.178-.653.178-.891.119zm1.9.95c-.059.06-.177.06-.237.12-.178.059-.356 0-.416-.179-.059-.119-.118-.297-.237-.416-.178-.237.119-.297.237-.475.12-.178.713-.891 1.01-1.247-.178-.297-.237 0-.475-.297-.119-.179.475-.357.475-.357.06 0 .297.238.357.238.059-.06.475-.772.594-.772.237 0 .356.118.415.594.06.237-.178.415-.356.712.06.12.535.238.475.297-.06.179-.119.297-.475.357-.06 0-.416-.178-.475-.238-.119.06-.772.832-.891 1.01-.178.297.237.475 0 .653zm3.03 1.604c-.178 0-.95 0-1.128-.06-.179 0-.357-.118-.416-.296-.119-.416-.535-.654 0-.95.178-.12.237-.238.356-.416.119-.179.238-.357.297-.476.119-.178.238-.178.416-.178l.119.06c.237.059.297.237.119.415-.12.179-.594.832-.713 1.129-.06.178 0 .178.119.238.356.178.237.178.475-.12.178-.177.534-.593.653-.89.178-.238.119-.357.06-.535-.06-.178-.179-.534-.416-1.01-.178-.356.356-.297.475-.356.119-.06.178 0 .238.119 0 .06.059.06.059.119l.06.118c.059.238.178.891.296 1.07.12.178.06.356-.059.534-.119.178-.594 1.01-.653 1.188 0 .357-.179.297-.357.297zm1.723.535c.119.119.416.297.119.416-.06 0-.179 0-.238.059l-.06.06c-.178.059-.296 0-.475-.06-.059-.06-.178-.06-.237-.178-.119-.178-.119-.416-.06-.594.06-.119.476-1.129.654-1.248.119-.178.475-.356.653-.356.178 0 .891-.06 1.07 0 .237.06.296.297.237.416-.06.119-.178.475-.178.594-.06.178-.119.178-.238.237-.178.06-.594.179-1.01.06-.534-.06-.415.416-.237.594zm3.089-.535c-.06 0-.12 0-.179-.06-.118 0-.178-.059-.237-.118 0 0-.06.06-.06.119-.059.178-.415 1.069-.475 1.247-.119.357.297.357.238.654-.06.178-.297.118-.416.178-.06.06-.178.119-.297.119-.297 0-.238-.476-.475-.535-.06 0-.178-.119-.178-.238v-.059c0-.178.237-.06.297-.238v-.059c.118-.416.415-.832.475-1.247v-.06c0-.178 0-.356-.06-.534-.059-.238.238-.179.476-.238.178-.06.237.119.297.178.059.06.118.06.237.178h.178c.357-.059.357 0 .594.357.06.237-.237.356-.415.356zm3.86.654l-.178.475c-.118.356-.415 1.247-.178 1.544.119.178.06.297-.06.416-.177.119-.771.119-.771-.178 0-.119.059-.119-.12-.119-.118 0-.356-.06-.474.06-.179.118-.179.178-.357.118-.237-.119-.416-.297-.594-.416-.237-.178.06-.415.119-.594.06-.118.416-1.663.475-1.782.06-.297-.475-.534-.178-.772l.06-.06c.356-.296.593-.118.772.238.059.179.118.297.178.416.119.178 0 .238-.06.416-.059.06-.475 1.782-.475 1.841h.119c.178.06.416.179.535 0 .237-.297.297-.95.415-1.247.06-.178.12-.416.12-.535.059-.237-.417-.059-.417-.415 0-.12.06-.238.238-.238.238.06.356-.356.653-.178l.179.178c.118.119.178.238.237.297-.06.178-.178.356-.237.535zm3.09 2.613l-.06.06-.06.059c-.118.238-.712.06-.89 0-.297-.178-.179-.535-.179-.594 0-.06.179-1.188.238-1.485 0-.178-.119-.178-.238-.06-.118.06-.415.179-.534.238h-.06v.06c0 .118-.059.237-.059.356v.297c0 .06-.06.475 0 .535.238.237.06.475-.238.475h-.118c-.357.06-.594 0-.535-.416v-.119c0-.119.119-1.425.178-1.485.06-.356-.594-.416 0-.713.178-.059.832-.415.832 0v.12c0 .059 0 .356.119.296.118-.06.297-.178.415-.237.179-.12.357-.179.476-.238.118-.06.178.06.297.119.059.06.356.356.237.831 0 .179-.119.891-.119 1.01s0 .416.12.535c.118.119.296.237.177.356zm1.544-.178l-.06.119c-.297.475-.415.356-.831.06-.178-.179-.416-.357-.238-.595l.119-.119v-1.247h-.119c-.119-.06-.237-.238-.119-.356.297-.297.238-.713.773-.238.297.297.415.178.297.594-.06.178-.179.713-.179 1.01 0 .297.12.416.238.534.119.06.178.12.119.238zm2.495 0c-.12.238-.594.238-.95.238-.238.356-.357.237-.714 0-.178-.12-.475-.297-.237-.594l.119-.12c0-.118-.06-1.187-.12-1.187h-.118c-.119 0-.297-.178-.119-.357.238-.297.178-.772.772-.297.297.238.476.179.297.594-.059.179-.059.713-.059 1.01 0 .178.06.297.178.416.119-.06.416.06.535 0 .178-.119.119-.475.119-.772 0-.654-.416-.891-.594-1.07-.179-.178.059-.178.178-.296.119-.06.178-.12.297-.179s.178-.059.297.06.534.89.534 1.247c-.178.297-.237 1.01-.415 1.307zm2.257-2.257c-.06.178-.357.534-.772.831-.416.238.059.535.356.535.178 0 .594-.06.356.238-.059.059-.118.118-.118.237l-.06.119c-.06.178-.237.238-.416.297h-.297c-.178-.06-.415-.238-.475-.416s-.475-1.247-.475-1.485c0-.237.119-.594.238-.772.118-.119.653-.713.831-.832.238-.118.475 0 .475.179.06.118.238.534.297.653.179.178.179.238.06.416zm2.198 1.307c0 .118-.12.178-.179.297-.237.178-.534-.238-.712-.179-.06 0-.238 0-.297-.059-.12-.178.178-.178.118-.356v-.06c-.178-.416-.178-.95-.356-1.307 0 0 0-.059-.06-.059-.118-.178-.296-.356-.475-.475-.237-.119.06-.297.179-.475.118-.179.237-.06.356 0 .06.059.238.059.356.118l.12-.118c.296-.297.296-.179.712-.06h.06c.178.119.059.416-.12.475-.059 0-.118.06-.178.06-.118.06-.178.06-.297.06v.118c.06.178.357 1.129.357 1.366.119.357.475.119.594.416.119 0-.119.119-.178.238zm1.722-.179l-.356.12c-.178.118-.238-.06-.297-.357-.06-.119-.119-.772-.357-1.248-.178-.475-.475-.831-.475-.89-.06-.179-.237-.416-.178-.535.06-.119.119-.297.178-.475.06-.179.119-.416.238-.535.119-.119.237-.297.416-.238.178.06.118.535 0 .773-.12.237-.06.415.059.653.06.119.356.475.594 1.01.178.475.297 1.069.356 1.247.06.297-.059.416-.178.475zm1.842-1.366v.119c-.12.535-.238.535-.713.356-.238-.059-.535-.178-.416-.475 0 0 .06-.119.06-.178-.06-.119-.476-1.07-.535-1.129H40.2c-.119 0-.297-.118-.238-.297.12-.356-.059-.772.654-.534.356.119.475 0 .475.416 0 .178.178.712.238.95.118.238.297.356.415.356.12.179.238.297.179.416zm1.722-.653c0 .178-.178.297-.297.356-.178 0-.297 0-.475.06-.238.059-.238-.238-.356-.416-.12-.178-.476-.832-.713-1.248-.297.06-.119.179-.475.297-.179.06-.179-.534-.179-.534 0-.06.297-.178.357-.238 0-.119-.713-.89-.654-.95.06-.238.357-.119.832 0 .238.06.356.356.535.653.118-.06.415-.416.475-.356.178.119.237.237.178.534 0 .06-.297.357-.416.357.06.119.357.831.535 1.01.178.237.475-.12.534.237.12.06.12.119.12.238zm2.436-1.426c-.12.238-.535.119-.773.119-.059.119.06.653-.237.653-.119 0-.297.06-.475.179-.12.118-.238.059-.297-.06l-.06-.06c-.06-.177-.237-.296-.356-.415-.119-.178-.119-.356-.119-.535 0-.237.119-.475.238-.653l.059-.06c.06-.059.06-.118.119-.237.119-.297-.06-.297-.119-.297h-.238c-.178.06-.237.119-.059.356.119.12.06.179-.06.297-.059.06-.178.06-.237 0-.119-.118-.178-.237-.238-.415-.118-.238.238-.594.357-.773.237-.297.594-.178.89-.118.238.059.417.178.535.356.179.297.476.535.654.772.119.178.178.119.178.06.06-.238.297-.238.416-.06.06.178-.06.654-.178.891zm1.366-.89c-.178.059-.297.059-.475.118-.238.119-.238-.178-.416-.356-.119-.179-.594-.713-.891-1.129-.297.119-.594.416-.594.06 0-.179.178-.357.178-.357 0-.06 0-.119.06-.178-.06-.06-.832-.772-.832-.832 0-.237.356-.178.831-.178.238 0 .357.297.654.535.119-.06.237-.12.297-.12.297-.059.713.476.416.535h-.179c-.059 0-.118.06-.237.12.06.118.534.771.653.89.238.178.475-.178.594.119.06.06.06.178.06.297.118.238 0 .416-.12.475zm2.495-2.317c.059.237-.12.594-.297.712-.179.179-.297.297-.476.297-.237 0-.415.12-.712-.059-.238-.178.237-.297.534-.416.297-.119.238-.475.119-.653-.119-.178-.416-.297-.535-.119-.118.119-.237.356-.415.416-.179.06-.12-.238-.179-.357 0-.118 0-.594-.118-.95-.12-.356-.238-.06-.535.238-.297.237-.297.059-.416-.12-.119-.177-.06-.237.06-.356.118-.118.415-.415.712-.772.297-.297.535-.178.594 0 .06.178.06.297.238.891.178.594-.06-.06.832.297.831.357.534.654.594.95zm1.366-2.08c-.119-.059-.06-.059-.178.06-.06.119-.179.238-.179.416s.06.237-.059.356c-.178.119-.416.238-.594.297-.238.119-.416-.356-.535-.534-.059-.12-.712-.654-.831-.773-.178-.178-.594.179-.713-.178v-.06c-.06-.415.178-.534.475-.474.119 0 .297.059.357.059.178 0 .178.119.297.238.059.059.89.95 1.01.95l.059-.06.06-.059c.118-.119.118-.119.118-.297 0-.297-.119-.356-.297-.594-.119-.119-.416-.475-.475-.534-.178-.179-.178.297-.475.178-.12-.06-.179-.178-.12-.238.12-.178-.118-.475.12-.594.059 0 .118-.06.178-.06.119 0 .297-.059.356-.059.178 0 .297.12.357.238l.297.356c.237.238.534.654.89.654.179 0 .238.119.298.237.118.12-.179.594-.416.476zm2.673-2.91c-.119.06-.238.178-.416.297-.238.119-.772-.06-.95-.119-.179-.06-.357-.119-.416-.06-.178.12.178.357.297.417.06 0 .297.178.356.178h.06c.297-.178.356 0 .475.178.178.238.06.416-.119.535l-.119.059s-.06 0-.06.06c-.177.118-.296.296-.534.059l-.119-.119-.118-.119c-.238-.119-1.842-1.425-2.139-1.485l-.237-.06c-.12-.059-.357-.118-.357-.296.06-.297.475-.654.713-.535l.119.06s.119.059.237.178l.476.356c.059.06.297.178.415.119.12-.06-.059-.356-.118-.416-.06-.06-.06-.06-.06-.119l-.06-.059c-.177-.238-.474-.119-.177-.535.118-.178.297-.534.534-.237l.06.06c.178.296.297.296.415.771 0 .06.06.297.06.357.06.178.356.119.534.119 0 0 .654 0 .773-.06.118-.178.297-.297.415-.119.06.06.06.12.06.12l.06.118c0 .119.059.178-.06.297zm.713-1.247c-.12.118-.535.237-.594.356-.06.06-.179.119-.297 0-.12-.119-.773-.475-.95-.535-.179-.059-.238-.118-.238-.178-.06-.119-.297-1.01-.357-1.188-.06-.178-.06-.356.06-.475.118-.06.475-.178.534-.178.119-.06.238 0 .357.06.118.059.831.534 1.01.593.178.119.237.06.237.238 0 .119.119.831.178.95.178.119.238.238.06.357zm1.069-2.08l-.06.06c-.059.06-.178.238-.237.238-.119.059-.178-.06-.238-.12-.06 0-.119-.059-.178-.118-.297-.119-2.02-.95-2.138-1.01-.06 0-.06 0-.12-.06h-.059c-.237-.059-.118-.177-.178-.296 0-.119-.356-.772.06-.713.059 0 .118.06.178.06l.119.059c.059 0 .415.237.772.475.119.06 1.366.772 1.544.772.238.06.357-.356.594-.119.06.06.119.12.178.238.06.238-.059.416-.237.535zm.772-2.435c-.178.06-.356 0-.475-.06-.119-.059-1.188-.474-1.366-.474-.179 0-.297.059-.297.178s.059.416.178.475c.119.06.89.416 1.069.416.178 0 .238-.119.297-.178.06-.06.178-.06.178.059.06.119.238.356.297.416.06.06 0 .237-.06.237-.059.06-.534.238-.653.297-.118.06-.178-.059-.237-.118-.119-.06-1.07-.416-1.188-.476-.119-.059-.178 0-.297.06-.06.119-.178 0-.238-.119 0-.06-.178-.475-.178-.594 0-.06.06-.297.297-.297.297 0 .238.119.356.119.12 0 .06-.119.06-.238s-.06-.237-.119-.356c-.06-.119-.119-.238-.119-.297-.06-.119 0-.119.06-.178.059-.06.297-.238.415-.297.06-.06.297 0 .476.059.178.06 1.128.475 1.366.475.237 0 .237-.178.356-.178.06 0 .119.119.178.238 0 .118.179.237.179.415-.12.297-.357.357-.535.416zm-.178-1.841l-.772-.594-.773.594.297-.95-.772-.595h.95l.298-.95.297.95h.95l-.772.594.297.95zm.713-2.792c-.12 0-.594.06-.713.119-.178.06-.238 0-.357-.119-.118-.119-.415-.535-.534-1.01-.06-.475-.535-.06-.594.178-.06.12-.119.594-.357.297-.059-.059-.118-.178-.178-.237l-.06-.06c-.177-.118-.177-.297-.177-.475 0-.119 0-.237.059-.297.119-.178.356-.297.535-.356.178 0 1.366 0 1.603.06.238.059.535.296.654.474.119.179.475.891.475 1.07.06.178-.178.356-.356.356zm.118-4.099c-.297.06-.475 0-.594.06-.118 0 0 .178.06.297s.119.237.237.356c.12.119.179.238.238.297.06.119.06.119 0 .178-.06.06-.297.357-.356.416-.06.06-.357.119-.535.06-.178-.06-.95-.179-1.188-.12-.238.06-.178.238-.356.238-.06 0-.179-.059-.238-.178-.06-.119-.238-.178-.297-.416-.06-.237.178-.356.297-.475s.356-.119.535-.06c.118.06 1.01.12 1.247.06.238-.06.297-.178.238-.297-.06-.119-.179-.416-.297-.475-.12-.06-.713-.119-.891-.119-.179.06-.179.178-.238.297-.06.119-.178.119-.238 0-.059-.119-.356-.297-.415-.356-.12-.06-.06-.238 0-.297.059-.06.475-.416.594-.535.118-.06.178 0 .297.06.118.059.89.118 1.01.118.118 0 1.187.06 1.306 0 .238-.118.535-.118.594-.059.06.06.119.535.119.594 0 .297-.594.297-1.129.356zM20.243 54.04c.297-.06.297-.12.356-.357 0-.06.06-.119.06-.178.118-.179-.06-.238-.179-.238h-.119c-.237 0-.356.238-.415.297l-.06.06c-.06.118-.06.237 0 .356s.238.119.357.06zM6.759 41.623s.06-.06.119-.06l.118-.06c.06-.059.179-.118.238-.177.356-.12-.238-.416-.297-.476-.356-.178-1.188.06-.653.773.118.178.297.118.475 0zM26.717 5.21c.119.238.119.416.238.476.119.059.416.237.356 0 0-.238-.119-.95-.119-1.07 0-.118 0-.237-.059-.297-.06-.059-.06-.059-.178-.118-.119-.12-.475-.238-.357 0 .06.237.06.831.12 1.01zM3.492 32.001h-.178c.059.06.118.06.178 0zm9.86 17.939c-.416-.06-1.069.594-.237 1.01.237.118.356 0 .415-.179 0 0 .06-.06.06-.119l.06-.118c.059-.12.118-.179.177-.238.297-.356-.356-.356-.475-.356zM9.075 17.923c.12-.238-.059-.356-.237-.416h-.06s-.059-.06-.118-.06l-.12-.059c-.118-.059-.237-.118-.296-.178-.297-.237-.238.416-.238.535 0 .534.772 1.128 1.07.178zm36.413-9.088l-.06.06c-.06.118-.119.237-.06.356.06.178.238.178.357.118.297-.059.297-.118.475-.356.06-.06.06-.119.12-.178.118-.178-.06-.238-.179-.297h-.119c-.297 0-.475.237-.534.297zM5.333 31.882c.535-.06.772-.297.238-.594-.178-.119-.475-.178-1.07-.119-.178 0-.89.416-.89.654 0 .059-.06.118-.12.178h.12c.178.06 1.485-.06 1.722-.119zM35.39 54.751c-.06-.238-.238-.119-.357 0l-.119.119c-.178.178-.118.475-.118.534v.06c.059.119.118.237.237.297.178.06.297-.06.357-.178.118-.297.118-.297 0-.594.059-.12.059-.179 0-.238zm9.741-2.495l-.119-.119-.059-.059c-.06-.06-.178-.178-.178-.238-.178-.297-.357.297-.416.416-.119.416.297 1.188.891.475.178-.237.06-.356-.119-.475zM39.37 4.974c-.059.06-.059.119-.059.119 0-.06.06-.06.06-.12zm-5.524.831c.297 0 .297-.178.297-.356v-.356c0-.12 0-.238.06-.297.118-.357-.476-.12-.594-.06-.357.178-.713 1.07.237 1.07zm4.871.476c-.238.475.119.653.416.297.119-.12.237-.357.297-.416.06-.178.178-.654 0-.832-.119-.06-.119-.119-.119-.237 0 .059-.06.059-.06.118-.178.179-.475.891-.534 1.07z"/>
</svg>
