<svg xmlns="http://www.w3.org/2000/svg" width="117" height="36" viewBox="0 0 117 36">
    <g fill="none" fill-rule="evenodd">
        <path fill="#828C9F" d="M25.93.044l.018.013c.178.137.229.49.323 2.189l.003.053c.186 3.39.107 10.642-.125 11.722l-.017.075c-.014.065-.009.073.021.03l-.084.38-2.358 8.27-8.44 6.007L3.358 30.58l-3.3-.01-.01.007L0 30.57l.188-1.691c.093-.829.196-1.543.231-1.612l.017-.032c.136-.238.34-.242 1.885-.075l.1.011c4.427.483 8.03.539 10.933.168l.088-.011c.671-.089.881-.152 1.52-.468l.042-.02c1.61-.8 3.168-1.985 4.008-3.047 1.862-2.355 2.885-6.293 3.23-12.435l.01-.187c.1-1.854.055-6.797-.078-9.025l-.021-.34c-.039-.66-.051-1.236-.027-1.331l.004-.018c.071-.252.272-.313 1.299-.377l.367-.022c1.294-.072 2.04-.077 2.134-.014z" transform="translate(.324 .8)"/>
        <path fill="#C2C5CE" d="M.046 30.575l.015-.03c.098-.175.453-.254 1.556-.39l.423-.05c4.743-.567 8.165-1.332 11.135-2.489.632-.246 1.475-.502 2.111-.642 2.839-.621 4.957-1.732 6.319-3.313 1.466-1.702 2.934-4.595 4.057-7.997l.42-1.272.023-.052.048-.213.028-.042c.116-.183.788-2.752 1.206-4.602l.012-.056c.359-1.599.73-3.48 1.007-5.101l.096-.565c.161-.924.244-1.113.465-1.168.1-.025.906.08 1.791.232l.25.044c1.47.258 1.648.342 1.643.709l-.001.024c-.004.116-.109.79-.235 1.506l-.006.035c-1.69 9.602-3.958 16.243-6.9 20.21-2.133 2.874-4.683 4.475-8.765 5.497l-.243.06c-.74.186-1.548.425-1.838.544l-.095.04c-1.547.623-4.3 1.397-6.657 1.87l-.073.015c-2.596.516-6.876 1.075-7.178.938l-.014-.007c-.214-.105-.274-.33-.435-1.783l-.039-.358L0 30.57l.046.005z" transform="translate(.324 .8)"/>
        <path fill="#757C8D" d="M49.965.46l-5.54 12.417c-2.95 6.61-5.38 12.078-5.401 12.151-.036.125.138.133 2.911.133h2.95l1.105-2.673 1.104-2.673 5.84-.02 5.839-.019 1.106 2.674 1.106 2.673 3.037.02c1.67.01 3.037.01 3.037 0 0-.011-2.519-5.65-5.596-12.531L55.868.1 53.005.08 50.142.06l-.177.4m19.824 12.152V25.16h5.763v-6.879l3.317-.045c1.825-.025 3.59-.083 3.924-.128 4.772-.652 7.734-3.06 8.577-6.976.191-.888.197-3.037.01-3.91-.38-1.78-1.007-2.961-2.213-4.172C87.509 1.386 85.37.46 82.437.142c-.455-.05-3.02-.08-6.693-.08H69.79v12.55M91.154.157c.124.154 8.47 11.829 8.618 12.055l.136.207-4.232 5.821c-2.327 3.202-4.413 6.069-4.636 6.371l-.404.55h6.65l2.978-4.361 2.978-4.361 3.033 4.361 3.032 4.361H115.982l-.285-.398-4.673-6.485-4.389-6.086L111 6.146 115.363.1l-3.087-.02c-2.407-.015-3.108.001-3.18.076-.05.053-1.325 1.87-2.832 4.039-1.507 2.168-2.764 3.951-2.793 3.962-.03.01-1.348-1.807-2.93-4.038L97.667.062h-3.294c-2.625 0-3.279.02-3.218.095M75.552 9.128v4.365l3.204-.028c3.05-.026 3.23-.035 3.758-.196 1.2-.363 2.016-.916 2.531-1.713.457-.708.627-1.356.625-2.395-.002-1.963-.856-3.284-2.549-3.942-1.008-.391-1.677-.455-4.782-.455h-2.787v4.364m-24.568 1.373c-1.064 2.57-1.945 4.72-1.958 4.776-.02.085.65.102 3.924.102 2.171 0 3.949-.025 3.95-.057 0-.097-3.903-9.497-3.944-9.496-.021.001-.909 2.105-1.972 4.675m-27.085 9.524c-1.493 2.96-2.855 4.583-4.844 5.62-1.258.657-2.393 1.026-3.993 1.345-.438.088-1.183.306-1.537.457-2.942 1.25-7.235 2.13-12.712 2.805-.666.082-1 .238-.704.534.105.105.456.289 1.325.388 5.435.618 9.472.657 13.039.126.94-.14 1.036-.171 2.085-.685 1.343-.658 2.129-1.127 3.136-1.873 1.001-.743 2.391-2.148 2.983-3.019 1.662-2.44 2.725-5.687 3.287-10.033.083-.642.175-1.528.164-1.537-.011-.008-.26.887-.48 1.559-.648 1.847-1.23 3.285-1.75 4.313zm47.196 9.121c-.316.221-.144.716.248.716.393 0 .565-.495.249-.716-.093-.065-.205-.118-.249-.118-.043 0-.155.053-.248.118m-32.092 2.157v2.047h.303c.253 0 .304-.025.304-.151 0-.19.004-.189.354.018.212.124.401.168.716.164.571-.008.955-.214 1.233-.66.18-.291.218-.435.218-.832 0-.29-.048-.573-.12-.712-.173-.336-.613-.693-.925-.752-.396-.074-1.002.003-1.16.147-.077.068-.162.124-.19.124-.028 0-.05-.324-.05-.72v-.72h-.682v2.047m19.183 0v2.047h.607v-4.094h-.607v2.047m51.108 0v2.047h.671l.025-.984c.023-.938.034-.993.218-1.178.227-.226.628-.31.929-.195.33.127.432.474.432 1.483v.874h.607v-1.118c-.001-1.259-.073-1.488-.547-1.733-.354-.184-1.045-.166-1.386.035l-.266.157v-1.435h-.682v2.047m-47.341-1.79c-.572.213-.85.627-.788 1.175.063.559.321.73 1.664 1.104 1.076.3.72 1.125-.432 1.006-.322-.033-.69-.153-1.041-.34-.03-.015-.11.083-.18.217-.123.239-.121.249.053.38.357.272 1.333.405 1.982.271.588-.121 1.028-.735.924-1.29-.08-.428-.377-.64-1.257-.894-1.068-.31-1.276-.532-.875-.933.303-.303.963-.307 1.658-.01.1.043.154-.003.235-.197.105-.252.103-.254-.163-.395-.36-.19-1.38-.244-1.78-.095m26.601-.002c-.378.173-.53.402-.53.796 0 .247.052.426.175.599l.176.247-.394.362c-.358.33-.397.397-.432.757-.036.38-.025.408.256.69.503.502 1.32.575 2.107.188l.372-.183.217.208.218.208.205-.206.205-.205-.233-.234-.234-.234.152-.413c.163-.442.14-.518-.18-.597-.176-.043-.204-.019-.287.26-.051.17-.118.308-.149.308s-.236-.181-.454-.403l-.398-.403.199-.106c.6-.321.769-1.062.336-1.476-.186-.179-.305-.223-.663-.243-.262-.015-.527.017-.664.08m-40.548 1.78c-.447.998-.834 1.87-.86 1.937-.04.103.01.123.304.123h.351l.198-.455.197-.455h1.992l.181.455.18.455.69-.003.69-.003.366-.494c.413-.559.393-.56.85.077.292.408.312.42.661.422.198 0 .36-.017.36-.04 0-.022-.238-.35-.53-.727-.292-.378-.531-.719-.531-.757 0-.038.24-.376.532-.75l.531-.682h-.373c-.37 0-.378.005-.703.453-.18.249-.352.454-.38.455-.03.001-.21-.203-.403-.453-.335-.435-.365-.455-.687-.455-.185 0-.337.018-.337.04 0 .023.222.335.493.695.271.36.493.684.493.723 0 .085-.993 1.366-1.03 1.328-.015-.014-.397-.843-.848-1.842l-.822-1.816-.375-.022-.376-.023-.814 1.814m45.288.127v1.933h.682v-1.137h.63c1.347 0 1.949-.441 1.948-1.427 0-.228-.058-.45-.162-.62-.343-.562-.663-.67-2.018-.677l-1.08-.006v1.934m-4.55-1.403c-.194.194-.192.383.005.634.202.257.334.252.607-.022.265-.264.283-.485.053-.646-.23-.16-.483-.148-.665.034m5.289.043c-.031.032-.057.394-.057.804v.745h.648c.752 0 1.028-.107 1.173-.457.132-.32.023-.733-.246-.933-.157-.116-.358-.161-.834-.185-.345-.018-.653-.006-.684.026m-45.232.962c-.178.427-.323.802-.323.834.002.06 1.442.081 1.442.02 0-.094-.704-1.631-.747-1.63-.027 0-.194.35-.372.776m6.92-.65c-.083.016-.228.046-.32.066-.2.042-.672.44-.796.67-.255.475-.19 1.263.14 1.697.305.399.764.57 1.437.536.414-.021.609-.068.767-.187.246-.183.256-.233.093-.463l-.12-.169-.294.15c-.329.168-.719.194-.969.065-.273-.14-.507-.387-.507-.534 0-.128.087-.139 1.138-.139h1.137v-.298c0-.732-.506-1.293-1.251-1.387-.167-.021-.372-.025-.455-.008m10.392.036c-.165.038-.355.12-.423.18-.167.152-.225.141-.225-.04 0-.126-.05-.15-.303-.15h-.304v4.018h.683v-1.36l.267.158c.404.238 1.198.18 1.588-.118.358-.273.567-.727.57-1.234.002-.477-.095-.751-.364-1.036-.377-.398-.917-.55-1.489-.418m3.866-.001c-.165.039-.379.144-.474.233l-.173.163v-.203c0-.19-.022-.203-.341-.203h-.341v2.957h.682v-.798c0-1.137.217-1.552.813-1.552.244 0 .249-.006.249-.342 0-.187-.026-.337-.057-.333-.032.004-.192.04-.358.078m3.979-.016c-.146.029-.36.114-.474.19-.205.135-.209.134-.209-.024 0-.139-.044-.16-.341-.16h-.341v2.957h.682v-.836c0-.964.1-1.292.445-1.471.33-.171.65-.149.897.064.21.181.213.191.237 1.213l.025 1.03h.671v-.966c-.001-1.11-.068-1.427-.36-1.706-.168-.161-.754-.382-.93-.35l-.302.06m3.314.038c-1.234.328-1.396 2.063-.244 2.62.453.22 1.136.19 1.48-.063l.227-.168v.234c0 .318-.176.633-.415.742-.304.138-.944.107-1.322-.065-.183-.083-.339-.142-.345-.13l-.146.235c-.13.206-.13.218.003.315.076.056.258.136.404.179 1.207.35 2.192.028 2.419-.789.047-.168.083-.923.084-1.721v-1.422h-.303c-.253 0-.304.025-.304.152 0 .186-.006.186-.317.009-.344-.196-.788-.243-1.221-.128m4.155-.058l-.321.067c-.227.048-.682.456-.834.747-.162.31-.162 1.07.001 1.382.161.308.51.598.855.712.414.137 1.271.066 1.528-.126.244-.182.254-.232.091-.462l-.12-.169-.294.15c-.357.183-.701.192-1.044.028-.219-.104-.507-.44-.507-.59 0-.025.529-.046 1.175-.046h1.176v-.298c0-.732-.506-1.293-1.251-1.387-.167-.021-.372-.025-.455-.008m3.718.035c-.166.039-.38.144-.474.233l-.173.163v-.203c0-.186-.025-.203-.304-.203h-.303v2.957h.607v-.798c0-1.137.217-1.552.813-1.552.244 0 .248-.006.248-.342 0-.187-.025-.337-.057-.333-.031.004-.192.04-.357.078m13.077-.014c-.714.141-1.145.634-1.198 1.372-.067.92.479 1.523 1.426 1.577 1.187.067 1.86-.723 1.635-1.92-.13-.696-1.03-1.193-1.863-1.029m3.996.002c-.158.03-.389.13-.512.22l-.223.166v-.192c0-.173-.03-.192-.303-.192h-.304v2.957h.682v-.953c0-.953 0-.954.222-1.176.163-.162.295-.221.493-.221.271 0 .271 0 .271-.342 0-.187-.008-.337-.018-.332-.01.005-.15.034-.308.065m1.633 0c-.594.094-.986.54-.896 1.02.072.379.326.563.96.693.766.156.807.172.864.32.14.365-.758.529-1.371.25l-.312-.141-.12.251c-.092.193-.099.268-.03.325.292.238 1.459.322 1.9.137.359-.15.58-.463.58-.82 0-.4-.258-.634-.822-.743-.74-.144-.96-.249-.96-.459 0-.345.683-.438 1.347-.183.084.033.158-.024.24-.183.158-.305.161-.297-.165-.379-.457-.114-.868-.144-1.215-.089m3.433-.034c-.042.014-.205.046-.362.073-.324.054-.761.402-.944.753-.163.31-.162 1.07 0 1.382.29.552.852.82 1.616.772.502-.032.78-.17.996-.495.1-.151.092-.172-.125-.284-.22-.114-.246-.112-.45.039-.5.37-1.19.202-1.418-.344-.14-.333-.138-.525.005-.827.24-.504.862-.647 1.357-.312.288.196.337.19.722-.09.054-.04-.326-.412-.525-.513-.198-.1-.742-.196-.872-.154m6.753.045c-1.289.31-1.512 2.215-.327 2.789.432.209 1.179.216 1.621.015.41-.186.444-.258.235-.502l-.175-.204-.262.16c-.442.27-1.12.158-1.39-.227-.249-.356-.207-.37 1.052-.37 1.33 0 1.276.03 1.091-.645-.215-.79-.997-1.22-1.845-1.016m-71.154 1.376c.334.761.625 1.44.645 1.508.056.192-.18.573-.386.625-.103.026-.277.013-.387-.029-.29-.11-.326-.099-.451.144-.112.216-.11.222.142.341.493.235 1.203.086 1.46-.305.096-.147 1.616-3.575 1.616-3.645 0-.013-.145-.022-.322-.022l-.322.001-.448 1.06c-.246.584-.469 1.061-.496 1.061-.027 0-.25-.477-.497-1.061l-.448-1.062h-.714l.608 1.384m28.117.095v1.478h.683v-2.957h-.682v1.479m-15.356-.918c-.244.108-.441.306-.517.52-.043.121.027.132.823.132.478 0 .87-.015.87-.034 0-.019-.04-.12-.088-.226-.171-.376-.699-.566-1.088-.392m25.782-.042c-.084.027-.206.084-.273.126-.148.093-.407.483-.354.535.02.021.416.029.878.017l.84-.022-.11-.228c-.061-.126-.172-.267-.246-.313-.187-.117-.555-.175-.735-.115m32.672.045c-.243.106-.484.38-.484.553 0 .072.208.096.834.096.896 0 .95-.028.71-.37-.12-.172-.532-.39-.726-.385-.054.002-.204.05-.334.106m-73.978.086c-.586.317-.576 1.356.015 1.662.527.272 1.127.016 1.295-.555.234-.79-.599-1.494-1.31-1.107m25.73.076c-.847.713.005 2.09.981 1.586.442-.229.59-.91.3-1.385-.267-.439-.883-.535-1.28-.201m11.5-.076c-.639.346-.55 1.255.15 1.522.646.247 1.233-.128 1.233-.787 0-.284-.042-.38-.258-.596-.216-.216-.312-.258-.588-.255-.181.002-.423.054-.537.116m20.814-.041c-.407.163-.6.9-.36 1.365.347.67 1.369.547 1.616-.195.264-.792-.478-1.483-1.256-1.17m-9.65.73c-.132.111-.27.282-.308.38-.15.397.263.75.85.727.287-.011.747-.202.747-.31 0-.031-.236-.27-.525-.528l-.525-.47-.24.202" transform="translate(.324 .8)"/>
    </g>
</svg>
