<svg xmlns="http://www.w3.org/2000/svg" width="42" height="61" viewBox="0 0 42 61">
    <g fill="none" fill-rule="evenodd">
        <path fill="#55D3DA" d="M31.809 52.483C1.883 61.603-.894 23.917 25.996 14.676c26.89-9.241 24.5 2.913 18.244 11.402-8.37 13.751 17.814 17.508-12.431 26.405z" transform="translate(-7 -2)"/>
        <g stroke="#000" stroke-linecap="round" stroke-linejoin="round" stroke-width="1.7">
            <path d="M11.687 45.72C5.39 48.396 0 51.636 0 58.5M0 0c0 16.517 31.2 10.667 31.2 29.25 0 8.603-7.8 11.786-15.6 14.883" transform="translate(-7 -2) translate(12.998 3.6)"/>
            <path d="M14.954 14.016c-.746.31-1.833.765-3.26 1.364C5.391 18.023 0 21.525 0 29.25 0 46.456 31.2 41.983 31.2 58.5m0-58.5c0 7.386-6.238 10.3-13.135 12.925M0 29.25L31.2 29.25M5.85 21.45L25.35 21.45M3.9 5.85h23.4M2.925 52.65h25.35M5.85 37.05L25.35 37.05" transform="translate(-7 -2) translate(12.998 3.6)"/>
        </g>
    </g>
</svg>
