<svg xmlns="http://www.w3.org/2000/svg" width="46" height="46" viewBox="0 0 46 46">
    <g fill="none" fill-rule="evenodd">
        <path fill="#55D3DA" d="M49.345 37.288C54.56 20.437 14.418-10 13.445 10.256c-.973 20.256-7.513 19.845-4.882 25.194 2.631 5.35 12.544 3.391 17.811 3.294 8.556 1.09 17.756 15.396 22.97-1.456z" transform="translate(-7 -2)"/>
        <path stroke="#000" stroke-linecap="round" stroke-linejoin="round" stroke-width="1.7" d="M43.824 17.424c-2.088-2.088.36-3.888 1.8-3.888 1.784.087 3.437-.932 4.16-2.565.724-1.632.368-3.542-.894-4.805-1.263-1.262-3.173-1.618-4.805-.894-1.633.723-2.652 2.376-2.565 4.16 0 1.44-1.8 3.888-3.888 1.8L30 3.6l-7.632 7.632c-2.088 2.088.36 3.888 1.8 3.888 1.824-.116 3.529.91 4.281 2.574.753 1.665.396 3.623-.896 4.915-1.292 1.292-3.25 1.649-4.915.896-1.665-.752-2.69-2.457-2.574-4.281 0-1.44-1.8-3.888-3.888-1.8L8.4 25.2l7.776 7.776c2.088 2.088-.36 3.888-1.8 3.888-2.038-.169-3.922 1.09-4.546 3.038-.623 1.947.18 4.067 1.936 5.113 1.757 1.046 4.003.741 5.418-.735.887-.867 1.36-2.073 1.296-3.312 0-1.44 1.8-3.888 3.888-1.8L30 46.8l7.776-7.776c2.088-2.088-.36-3.888-1.8-3.888-1.784.087-3.437-.932-4.16-2.565-.724-1.632-.368-3.542.894-4.805 1.263-1.262 3.173-1.618 4.805-.894 1.633.723 2.652 2.376 2.565 4.16 0 1.44 1.8 3.888 3.888 1.8L51.6 25.2l-7.776-7.776z" transform="translate(-7 -2)"/>
    </g>
</svg>
