<svg xmlns="http://www.w3.org/2000/svg" width="1271" height="480" viewBox="0 0 1271 480">
    <defs>
        <linearGradient id="prefix__a" x1="-34.608%" x2="122.157%" y1="-12.546%" y2="104.181%">
            <stop offset="0%" stop-color="#525F7A" stop-opacity="0"/>
            <stop offset="100%" stop-color="#909EBD"/>
        </linearGradient>
        <linearGradient id="prefix__b" x1="-34.608%" x2="122.157%" y1="-12.546%" y2="104.181%">
            <stop offset="0%" stop-color="#525F7A" stop-opacity="0"/>
            <stop offset="100%" stop-color="#909EBD"/>
        </linearGradient>
        <linearGradient id="prefix__c" x1="-25.197%" x2="114.131%" y1="-12.546%" y2="104.181%">
            <stop offset="0%" stop-color="#525F7A" stop-opacity="0"/>
            <stop offset="100%" stop-color="#909EBD"/>
        </linearGradient>
        <linearGradient id="prefix__d" x1="-25.197%" x2="114.131%" y1="-12.546%" y2="104.181%">
            <stop offset="0%" stop-color="#525F7A" stop-opacity="0"/>
            <stop offset="100%" stop-color="#909EBD"/>
        </linearGradient>
        <linearGradient id="prefix__e" x1="-95.162%" x2="173.8%" y1="-1.311%" y2="94.449%">
            <stop offset="0%" stop-color="#525F7A" stop-opacity="0"/>
            <stop offset="100%" stop-color="#909EBD"/>
        </linearGradient>
    </defs>
    <g fill="none" fill-rule="evenodd" opacity=".202">
        <path fill="url(#prefix__a)" d="M309.212 0l-78.155 115.855L477.1 480.648c19.996 29.621 12.178 69.908-17.487 89.901-29.666 19.994-69.908 12.177-89.9-17.487l-216.77-321.397-78.16 115.812L262.321 625.52c59.977 88.952 180.753 112.443 269.75 52.421 88.951-60.02 112.444-180.754 52.42-269.75L309.213 0z" transform="translate(-157 -470)"/>
        <path fill="url(#prefix__b)" d="M465.525 1048.089c-60.024 88.996-36.531 209.73 52.42 269.75 88.998 60.022 209.773 36.531 269.75-52.42l187.537-278.043-78.16-115.81-216.768 321.395c-19.993 29.665-60.234 37.48-89.9 17.488-29.667-19.993-37.485-60.28-17.488-89.903L818.96 755.754 740.803 639.9l-275.278 408.189z" transform="translate(-157 -470)"/>
        <path fill="url(#prefix__c)" d="M1358.303 657.257l-222.649 330.118 80.233 118.954 252.721-374.693c20.536-30.426 12.51-71.807-17.961-92.342-11.412-7.69-24.346-11.375-37.142-11.375-21.372 0-42.356 10.279-55.202 29.338" transform="translate(-157 -470)"/>
        <path fill="url(#prefix__d)" d="M222.65 932.298L0 1262.415l80.233 118.955 252.723-374.692c20.535-30.427 12.508-71.808-17.963-92.344-11.41-7.69-24.346-11.374-37.142-11.374-21.371 0-42.356 10.278-55.202 29.338" transform="translate(-157 -470)"/>
        <path fill="url(#prefix__e)" d="M1117.599 300.394L975.186 511.555l-142.42-211.16c-20.537-30.47-61.873-38.498-92.342-17.96-30.468 20.53-38.497 61.916-17.96 92.342l252.722 374.689 252.723-374.689c20.53-30.426 12.508-71.812-17.967-92.342-11.413-7.693-24.345-11.377-37.143-11.377-21.37 0-42.356 10.28-55.2 29.336" transform="translate(-157 -470)"/>
    </g>
</svg>
