<svg xmlns="http://www.w3.org/2000/svg" width="320" height="552" viewBox="0 0 320 552">
    <defs>
        <linearGradient id="prefix__a" x1="-34.426%" x2="122.002%" y1="-12.546%" y2="104.181%">
            <stop offset="0%" stop-color="#525F7A" stop-opacity="0"/>
            <stop offset="100%" stop-color="#909EBD"/>
        </linearGradient>
        <linearGradient id="prefix__b" x1="-95.162%" x2="173.8%" y1="-1.586%" y2="94.687%">
            <stop offset="0%" stop-color="#525F7A" stop-opacity="0"/>
            <stop offset="100%" stop-color="#909EBD"/>
        </linearGradient>
    </defs>
    <g fill="none" fill-rule="evenodd" opacity=".202">
        <path fill="url(#prefix__a)" d="M172.393 0l-43.471 64.51 136.853 203.123c11.123 16.494 6.774 38.926-9.726 50.059-16.501 11.132-38.884 6.78-50.004-9.738L85.474 128.995 42 193.481 146.312 348.3c33.36 49.53 100.537 62.61 150.04 29.189 49.475-33.42 62.542-100.647 29.156-150.202L172.393 0zM259.492 584.287c-33.386 49.555-20.32 116.78 29.157 150.202 49.502 33.42 116.68 20.341 150.04-29.19L543 550.482l-43.474-64.485-120.57 178.958c-11.12 16.519-33.504 20.87-50.004 9.738-16.501-11.132-20.85-33.565-9.727-50.06L456.078 421.51 412.606 357 259.492 584.287z" transform="translate(-252 -130.309)"/>
        <path fill="url(#prefix__b)" d="M622.27 167.373L543 285.222l-79.273-117.85c-11.431-17.004-34.44-21.485-51.4-10.023-16.958 11.458-21.427 34.556-9.996 51.537L543 418 683.67 208.886c11.427-16.981 6.962-40.079-10-51.537-6.353-4.293-13.552-6.349-20.675-6.349-11.894 0-23.576 5.737-30.725 16.373" transform="translate(-252 -130.309)"/>
    </g>
</svg>
