<svg xmlns="http://www.w3.org/2000/svg" width="36" height="28" viewBox="0 0 36 28">
    <path fill="#525F7A" d="M34.852 17.388L23.32 0l-5.339 8.036L12.67 0 1.138 17.388C.148 18.9-.211 20.692.12 22.484c.33 1.792 1.348 3.332 2.834 4.34C4.083 27.58 5.35 28 6.67 28c.44 0 .853-.028 1.293-.14 1.762-.336 3.275-1.372 4.266-2.884l3.688-5.544-2.725-4.116-4.706 7.112c-.33.476-.798.812-1.376.924-.578.112-1.128 0-1.624-.336-.467-.336-.798-.812-.908-1.4-.11-.588 0-1.148.33-1.652l7.79-11.732 11.118 16.744c2.064 3.108 6.22 3.92 9.275 1.848 3.027-2.072 3.825-6.328 1.761-9.436zm-4.348 5.628c-.991.672-2.34.42-3-.588L20.706 12.18l2.587-3.92 7.789 11.732c.688.98.412 2.352-.578 3.024z"/>
</svg>
