<svg xmlns="http://www.w3.org/2000/svg" width="169" height="32" viewBox="0 0 169 32">
    <defs>
        <linearGradient id="prefix__a" x1="92.945%" x2="17.026%" y1="27.854%" y2="82.119%">
            <stop offset="0%" stop-color="#55D3DA"/>
            <stop offset="22.99%" stop-color="#58CEDB"/>
            <stop offset="51.18%" stop-color="#62BFDD"/>
            <stop offset="81.97%" stop-color="#72A6E0"/>
            <stop offset="100%" stop-color="#7D94E3"/>
        </linearGradient>
    </defs>
    <g fill="none">
        <g fill="#000">
            <path d="M60.096 9.12c-1.28-1.76-3.616-2.88-6.144-2.88-4.64 0-8.256 3.84-8.256 8.576 0 4.736 3.584 8.576 8.256 8.576 2.56 0 4.896-1.088 6.144-2.88v2.432h2.848V.16h-2.848v8.96zm-3.872 11.264c-4.704 1.472-8.96-2.88-7.328-7.584.576-1.664 1.952-2.976 3.648-3.488 4.736-1.408 8.768 2.88 7.232 7.584-.48 1.408-2.08 3.008-3.552 3.488zM67.232.16H70.08V22.976H67.232zM74.4 6.688H77.248V22.976H74.4zM114.016 6.688L110.496 6.688 102.784 14.656 102.784.16 99.968.16 99.968 22.976 102.784 22.976 102.784 14.976 110.496 22.976 114.016 22.976 106.016 14.816zM89.632 6.272c-1.984 0-3.936.896-5.216 2.56V6.656h-2.848v16.288h2.848v-9.152c0-3.008 2.336-4.864 4.768-4.864 2.016 0 3.648 1.152 3.648 4.16v9.856h2.848V12.96c0-4.448-2.304-6.688-6.048-6.688zM17.6 6.272c-2.208 0-3.904.928-5.248 2.56C11.328 7.2 9.6 6.272 7.36 6.272c-1.856 0-3.424.832-4.512 2.336v-1.92H0v16.288h2.848v-9.184c0-3.008 1.632-4.864 4.064-4.864 2.016 0 3.648 1.152 3.648 4.16v9.856h2.848v-9.216c0-3.008 1.984-4.768 4.224-4.768s3.488 1.6 3.488 4.608v9.408h2.848v-9.472c-.032-4.448-2.4-7.232-6.368-7.232z" transform="translate(54.72 3.2)"/>
            <path d="M74.252 0.824H77.452V4.024H74.252z" transform="translate(54.72 3.2) rotate(-45 75.852 2.424)"/>
            <path d="M35.168 6.24c-4.672 0-8.416 3.84-8.416 8.576 0 4.736 4.032 8.576 8.672 8.576 2.848 0 5.376-1.312 7.168-3.072l-1.696-2.208c-1.376 1.376-3.52 2.528-5.472 2.528-2.784 0-5.184-1.92-5.696-4.512h13.76c.064-.416.096-.864.096-1.312 0-.384-.032-.8-.096-1.184-.576-4.16-4.064-7.392-8.32-7.392zm-5.472 7.424c.288-2.688 2.656-4.672 5.472-4.672 2.816 0 5.152 1.92 5.472 4.672H29.696z" transform="translate(54.72 3.2)"/>
        </g>
        <path fill="url(#prefix__a)" d="M40.768 19.872L27.36 0l-6.208 9.184L14.976 0 1.568 19.872C.416 21.6 0 23.648.384 25.696c.384 2.048 1.568 3.808 3.296 4.96C4.992 31.52 6.464 32 8 32c.512 0 .992-.032 1.504-.16 2.048-.384 3.808-1.568 4.96-3.296l4.288-6.336-3.168-4.704-5.472 8.128c-.384.544-.928.928-1.6 1.056s-1.312 0-1.888-.384c-.544-.384-.928-.928-1.056-1.6s0-1.312.384-1.888l9.056-13.408 12.928 19.136c2.4 3.552 7.232 4.48 10.784 2.112 3.52-2.368 4.448-7.232 2.048-10.784zm-5.056 6.432c-1.152.768-2.72.48-3.488-.672L24.32 13.92l3.008-4.48 9.056 13.408c.8 1.12.48 2.688-.672 3.456z"/>
    </g>
</svg>
